<svg width="1440" height="1629" viewBox="0 0 1440 1629" fill="none" xmlns="http://www.w3.org/2000/svg">
<path d="M-18 1C-26 77.6667 -19.0998 232.6 72.5002 239C187 247 206 193 363 209C520 225 520 277.5 647 315.5C774 353.5 901.254 295.108 1013.5 272.5C1155 244 1404 252 1482 374C1560 496 1430.5 692.5 1361 769C1291.5 845.5 1178.5 830.5 1077 870.5C975.5 910.5 874 975 710.5 962.5C547 950 487 796.5 317 810.5C217.167 816.167 -25.4 921.7 -51 962.5C-83 1013.5 -191 1250 82.0003 1342C352 1451.5 520 1349 655 1329.5C790 1310 948.5 1342 1167.5 1426C1386.5 1510 1432.5 1640.5 1469 1624.5" stroke="#6C63FF" stroke-width="5"/>
<path d="M-33.5 294.5C-8.83333 263.667 63.7 198.9 156.5 186.5C272.5 171 356.01 268.57 428 317C510.5 372.5 536 407.5 710.5 383.5C985 345.746 950 251.5 1093 239C1236 226.5 1332.02 339 1370.5 451.5C1408.98 564 1448.5 827.5 1350 870.5C1251.5 913.5 1086.5 944 986.5 921.5C886.5 899 850 870.5 720 843.5C603.313 819.265 390 843.5 247 896C116.566 943.887 60.0534 990.989 39.5 1059.5C18.5 1129.5 -14.5 1367 133 1391C280.5 1415 288 1363 420 1329.5C552 1296 825.937 1381.4 918.5 1402.5C986.5 1418 1096 1473.5 1313.5 1464C1410.5 1456.03 1521.5 1446.5 1566 1473.5" stroke="#FF63A8" stroke-width="5"/>
</svg>
