<svg width="582" height="440" viewBox="0 0 582 440" fill="none" xmlns="http://www.w3.org/2000/svg">
<g clip-path="url(#clip0_13_870)" filter="url(#filter0_d_13_870)">
<path opacity="0.18" d="M6.15582 283.107C9.0244 295.589 14.8359 307.492 23.9916 316.457C31.1556 323.521 34.3957 327.009 39.0628 336.077C43.4779 344.555 48.6357 352.626 54.4758 360.195C77.2758 389.731 109.886 410.079 145.26 421.195C187.367 434.404 232.952 434.775 276.174 426.212C298.781 421.759 321.135 414.873 344.173 414.338C361.637 413.893 378.938 417.069 396.194 419.355C454.769 427.162 560.55 431.748 574.12 356.203C577.539 337.235 573.897 319.098 568.784 300.828C566.579 293.212 563.003 286.06 558.231 279.723C554.679 274.662 550.8 269.72 546.95 263.516C538.032 254.611 538.984 229.499 540.782 217.848C543.145 202.501 554.516 189.173 562.557 176.202C568.502 166.54 574.655 156.611 576.914 145.464C580.006 130.163 575.532 114.445 571.088 99.4548C566.257 83.1289 561.011 66.2389 549.224 54.0241C540.306 44.7925 528.416 39.0933 516.823 33.6018C485.372 18.76 452.54 3.35425 417.359 0.519465C382.178 -2.31532 353.685 6.45618 324.42 25.9138C303.284 39.8799 282.684 55.7755 258.309 62.6472C240.473 67.6786 221.612 67.5302 203.166 69.5041C142.134 76.288 85.9389 105.899 45.8849 152.381C39.2373 159.951 33.3991 168.193 28.4654 176.974C24.1693 185.201 20.5121 193.745 17.5261 202.531C9.96078 223.473 3.19806 245.275 4.1493 267.523C4.32665 272.769 4.99846 277.987 6.15582 283.107Z" fill="#4A43B7"/>
<path d="M249.51 248.689C248.633 248.203 247.73 247.767 246.805 247.383C245.645 247.108 244.442 247.067 243.267 247.264L229.013 248.748C228.151 248.757 227.309 249.014 226.591 249.491C225.639 250.262 225.506 251.613 225.104 252.785C223.351 258.099 216.528 259.212 211.371 261.394C210.465 261.706 209.66 262.254 209.037 262.982C207.774 264.689 208.696 267.197 210.152 268.74C213.467 272.243 218.698 272.926 223.529 273.282C230.465 273.787 237.401 274.019 244.337 273.979C249.673 273.979 257.714 275.078 262.693 272.777C271.611 268.592 266.81 259.182 260.241 256.258C264.105 249.669 252.482 249.936 249.51 248.689Z" fill="#4C506D"/>
<path d="M481.716 327.039L474.849 335.113L513.493 346.749C514.846 346.988 516.057 347.731 516.882 348.827C518.369 351.439 514.935 354.021 512.141 355.016C464.861 371.92 412.9 357.286 362.707 356.084C334.764 355.402 306.926 359.053 279.043 361.086C265.369 362.125 251.605 362.808 237.961 361.323C227.648 359.947 217.414 358.039 207.298 355.609C175.744 348.827 143.699 343.736 111.431 343.113C105.337 342.994 99.1395 342.994 93.3577 341.079C91.8005 340.682 90.3978 339.83 89.3298 338.63C87.4422 336.181 88.4975 332.382 90.8162 330.319C93.1348 328.256 96.3006 327.499 99.3327 326.876C177.156 311.069 257.224 340.946 336.518 336.389C358.947 335.098 382.237 336.152 404.428 332.412C416.318 330.393 428.06 327.172 440.099 325.837C445.331 325.258 480.215 328.79 481.716 327.039Z" fill="url(#paint0_linear_13_870)"/>
<path d="M341.453 127.832C343.361 128.697 345.15 129.804 346.774 131.127C347.57 130.239 348.55 129.533 349.646 129.059C350.741 128.585 351.927 128.354 353.12 128.382C355.484 128.604 357.713 130.816 357.297 133.146C357.148 134.036 356.658 134.823 356.539 135.713C356.271 137.747 357.936 139.439 359.422 140.834C361.82 142.937 363.894 145.383 365.576 148.091C367.259 150.833 367.873 154.099 367.3 157.264C366.807 158.544 366.649 159.928 366.839 161.286C367.285 162.77 368.86 163.646 369.812 164.907C371.402 167 371.09 169.953 370.421 172.491C369.752 175.029 368.771 177.641 369.291 180.209C369.633 181.96 370.629 183.534 370.882 185.285C371.313 188.506 368.637 190.212 367.984 192.973C367.136 196.461 366.289 199.652 363.688 202.323C362.839 203.264 361.758 203.965 360.552 204.357C358.995 204.65 357.39 204.569 355.87 204.119C352.343 203.499 348.901 202.468 345.615 201.047C342.305 199.602 339.607 197.045 337.99 193.819C337.245 191.952 336.745 189.996 336.503 188.001L333.902 171.675C333.289 168.435 332.955 165.147 332.907 161.85C333.011 154.919 335.627 147.928 334.006 141.175C333.189 137.865 330.499 131.439 333.471 128.649C334.429 127.873 335.57 127.356 336.785 127.145C338 126.935 339.249 127.039 340.412 127.446L341.453 127.832Z" fill="#2F3554"/>
<path d="M480.289 271.085H140.117V279.708H480.289V271.085Z" fill="#4A43B7"/>
<path d="M265.532 161.494C262.753 160.751 259.884 160.885 257.001 160.084C254.715 159.443 252.685 158.11 251.189 156.269C250.467 155.337 249.986 154.241 249.788 153.079C249.591 151.916 249.685 150.723 250.06 149.605C250.131 149.364 250.251 149.139 250.411 148.945C250.572 148.751 250.771 148.592 250.996 148.477C251.422 148.344 251.878 148.344 252.304 148.477C254.145 148.924 255.957 149.484 257.729 150.154C258.346 150.424 259.004 150.584 259.676 150.629C260.011 150.635 260.34 150.543 260.623 150.363C260.906 150.184 261.129 149.925 261.266 149.62C261.298 149.334 261.384 149.057 261.519 148.804C261.681 148.625 261.907 148.516 262.148 148.5C262.389 148.483 262.627 148.56 262.812 148.715C263.168 149.055 263.434 149.478 263.585 149.947C264.342 152.511 265.979 154.728 268.207 156.21C270.659 157.753 273.438 158.703 276.323 158.985C278.418 159.163 280.544 158.985 282.625 159.341C285.097 159.761 287.392 160.897 289.224 162.607C289.525 162.845 289.752 163.164 289.878 163.527C289.95 163.916 289.909 164.318 289.759 164.685C289.15 166.807 288.273 169.137 286.37 170.191C285.622 170.571 284.805 170.798 283.967 170.856C283.13 170.915 282.289 170.805 281.495 170.532C279.9 169.97 278.398 169.175 277.036 168.172C273.976 165.86 270.707 163.838 267.271 162.132C266.708 161.875 266.127 161.662 265.532 161.494Z" fill="#FDB9A9"/>
<path d="M308.13 306.513C300.46 304.791 301.962 315.626 299.955 319.648C298.688 321.7 297.091 323.53 295.229 325.065C293.355 326.621 292.126 328.816 291.78 331.224C291.742 331.676 291.835 332.13 292.048 332.53C292.418 333.001 292.945 333.323 293.534 333.436C297.902 334.714 302.596 334.251 306.629 332.144C308.504 331.244 310.059 329.795 311.087 327.989C311.931 326.043 312.327 323.933 312.247 321.815C312.499 317.303 314.506 307.908 308.13 306.513Z" fill="#FDB9A9"/>
<path d="M301.352 328.835C301.352 328.835 279.578 329.755 288.793 336.582C298.008 343.409 311.786 334.92 313.139 333.361C314.491 331.803 313.391 329.132 313.391 329.132L301.352 328.835Z" fill="#4A43B7"/>
<path d="M312.187 331.833C310.24 334.193 300.014 337.369 295.481 337.042C290.948 336.716 286.89 334.608 287.336 331.684C287.782 328.76 295.779 321.963 297.28 321.978C298.781 321.993 299.985 325.466 303.002 326.193C304.364 326.424 305.762 326.303 307.063 325.84C308.364 325.378 309.525 324.59 310.434 323.551C310.711 323.177 311.11 322.909 311.561 322.793C312.013 322.677 312.491 322.719 312.916 322.913C313.525 324.348 313.777 325.909 313.65 327.462C313.523 329.016 313.021 330.515 312.187 331.833Z" fill="white"/>
<path d="M334.378 310.876C326.724 309.095 328.225 319.93 326.203 323.952C324.95 326.018 323.351 327.856 321.477 329.384C319.592 330.928 318.365 333.13 318.043 335.543C317.996 335.991 318.09 336.442 318.311 336.834C318.679 337.31 319.207 337.637 319.797 337.755C324.166 339.017 328.854 338.555 332.892 336.463C334.762 335.55 336.316 334.097 337.351 332.293C338.185 330.35 338.581 328.247 338.51 326.134C338.688 321.488 340.754 312.153 334.378 310.876Z" fill="#FDB9A9"/>
<path d="M327.6 333.005C327.6 333.005 305.826 333.925 315.056 340.768C324.286 347.61 338.049 339.076 339.387 337.591C340.725 336.107 339.64 333.347 339.64 333.347L327.6 333.005Z" fill="#4A43B7"/>
<path d="M338.436 335.959C336.489 338.333 326.263 341.51 321.744 341.183C317.226 340.857 313.139 338.764 313.584 335.84C314.03 332.916 322.027 326.104 323.528 326.119C325.029 326.134 326.233 329.621 329.265 330.334C330.627 330.565 332.025 330.444 333.326 329.981C334.627 329.519 335.788 328.73 336.697 327.692C336.975 327.318 337.373 327.05 337.825 326.934C338.276 326.818 338.754 326.86 339.179 327.054C339.786 328.487 340.035 330.047 339.906 331.598C339.776 333.149 339.272 334.645 338.436 335.959Z" fill="white"/>
<path d="M314.64 212.149L324.88 319.677L339.625 317.867C345.451 291.626 344.084 213.128 344.084 213.128L314.64 212.149Z" fill="#473F47"/>
<path d="M324.88 209.24L314.64 316.813L299.866 315.002C291.424 246.953 298.38 204.594 298.38 204.594L324.88 209.24Z" fill="#473F47"/>
<path d="M283.175 159.727C283.175 159.208 283.561 158.941 284.022 158.466L287.396 155.023L296.953 145.242L304.86 137.153V161.731C304.86 163.735 305.246 165.501 303.076 166.51C302.189 166.85 301.267 167.088 300.327 167.222C296.309 167.934 292.36 168.991 288.525 170.384C287.959 170.625 287.356 170.765 286.742 170.799C286.439 170.804 286.141 170.727 285.879 170.575C285.617 170.424 285.401 170.203 285.255 169.939C284.81 168.959 285.761 167.935 285.954 166.97C286.03 166.238 285.922 165.499 285.642 164.818C285.414 164.041 285.141 163.278 284.824 162.532C284.453 161.731 283.576 160.974 283.338 160.202C283.249 160.058 283.193 159.896 283.175 159.727Z" fill="white"/>
<path d="M299.673 170.354C299.494 168.38 298.974 166.436 298.766 164.417C298.283 160.365 298.358 156.265 298.989 152.232C299.686 147.933 300.982 143.751 302.838 139.81C304.548 136.396 307.624 134.942 311.073 133.25C313.967 131.677 317.108 130.608 320.362 130.088C322.658 129.883 324.971 130.013 327.229 130.474C334.17 131.795 343.34 135.372 348.037 140.863C351.604 144.989 352.035 150.867 352.139 156.314C352.288 163.824 352.134 171.334 351.679 178.844C351.619 179.932 351.545 181.015 351.456 182.094C350.817 190.331 350.148 198.88 347.799 206.82C347.056 209.314 346.313 211.822 343.965 213.158C338.54 216.319 330.216 214.642 324.331 213.766C316.542 212.668 308.531 211.51 301.62 207.726C300.175 207.108 299.007 205.983 298.335 204.564C297.726 202.887 298.469 201.047 298.989 199.325C301.322 191.652 299.509 183.563 299.509 175.727C299.509 174.243 299.702 172.862 299.702 171.438C299.732 171.081 299.673 170.71 299.673 170.354Z" fill="white"/>
<path opacity="0.1" d="M330.855 215.132C330.083 213.648 331.703 209.655 331.093 207.592C330.023 203.837 328.7 200.943 328.879 196.787C329.083 193.787 329.536 190.808 330.231 187.882L335.225 164.135C336.132 159.787 338.109 138.904 344.752 141.22C346.603 142.009 348.259 143.192 349.604 144.687C350.949 146.181 351.952 147.951 352.541 149.872C353.668 153.724 354.135 157.739 353.923 161.746C353.804 172.135 351.723 182.881 350.386 193.255C349.865 197.188 349.256 211.763 344.054 213.054C343.043 213.321 342.033 213.826 341.081 214.019C339.327 214.33 334.081 216.408 331.807 215.725C331.616 215.697 331.432 215.63 331.269 215.528C331.105 215.426 330.964 215.291 330.855 215.132Z" fill="#020202"/>
<path d="M322.993 215.488C321.343 218.616 320.749 222.192 321.298 225.684C321.292 225.868 321.341 226.05 321.439 226.207C321.537 226.363 321.679 226.486 321.848 226.56C321.959 226.589 322.076 226.593 322.189 226.573C322.301 226.552 322.409 226.507 322.502 226.441C323.84 225.625 323.677 222.998 325.237 222.909C325.565 222.923 325.888 222.998 326.188 223.132C327.534 223.773 328.944 224.271 330.395 224.616C331.857 224.939 333.388 224.678 334.66 223.888C335.395 223.247 335.983 222.455 336.383 221.566C336.783 220.678 336.987 219.713 336.979 218.738C336.932 216.677 337.172 214.619 337.692 212.624C338.358 210.782 338.855 208.885 339.179 206.954C339.907 202.709 340.383 198.316 342.345 194.413C343.831 191.444 346.075 189.01 347.621 186.116C349.315 182.94 350.772 176.172 345.927 175.252C344.384 174.96 342.807 174.891 341.245 175.044C340.656 175.074 340.082 175.236 339.565 175.519C338.796 176.153 338.27 177.035 338.079 178.012C335.064 186.394 332.714 194.999 331.049 203.748C330.127 208.913 325.311 210.783 322.993 215.488Z" fill="#FDB9A9"/>
<path d="M314.669 119.298C314.686 117.235 314.815 115.174 315.056 113.124C315.249 111.343 315.532 109.532 315.888 107.766C315.902 107.241 316.032 106.725 316.269 106.256C316.505 105.787 316.842 105.375 317.256 105.05C320.022 103.358 323.212 102.483 326.456 102.527C328.403 102.229 330.389 102.715 331.978 103.878C333.567 105.041 334.628 106.787 334.928 108.731C334.987 109.099 335.017 109.471 335.017 109.844C335.508 114.297 334.333 118.853 333.679 123.35C333.165 126.833 332.976 130.355 333.115 133.873C331.417 135 329.466 135.689 327.437 135.877C326.487 135.873 325.544 135.717 324.643 135.416C324.139 135.311 323.693 135.019 323.394 134.6C323.256 134.225 323.22 133.821 323.29 133.428C323.347 133.059 323.382 132.687 323.394 132.315C323.54 130.262 323.501 128.201 323.275 126.155C323.278 126.071 323.263 125.986 323.232 125.907C323.202 125.828 323.156 125.756 323.097 125.695C322.957 125.651 322.806 125.651 322.666 125.695H322.086C321.063 125.799 320.032 125.799 319.009 125.695C317.781 125.576 316.638 125.011 315.799 124.107C314.825 122.705 314.421 120.986 314.669 119.298Z" fill="#FDB9A9"/>
<path d="M318.043 106.816C317.515 107.556 316.714 108.056 315.817 108.206C314.919 108.356 313.999 108.145 313.258 107.618L313.124 107.514C312.971 107.415 312.85 107.274 312.776 107.108C312.702 106.942 312.678 106.758 312.708 106.579C311.935 106.653 311.429 105.777 311.325 105.006C311.248 104.317 311.328 103.62 311.559 102.967C311.791 102.314 312.169 101.722 312.663 101.236C313.164 100.757 313.771 100.402 314.434 100.198C315.097 99.9948 315.799 99.9486 316.483 100.063C316.54 99.4533 316.731 98.8634 317.042 98.3351C317.353 97.8068 317.776 97.3531 318.281 97.0059C318.797 96.6736 319.379 96.4564 319.987 96.3693C320.595 96.2822 321.215 96.3272 321.804 96.5013C322.331 95.768 323.127 95.272 324.018 95.121C325.265 94.6657 326.586 94.4492 327.913 94.4828C328.575 94.5123 329.219 94.7123 329.781 95.0633C330.344 95.4144 330.806 95.9046 331.123 96.4865C331.167 96.6107 331.232 96.7262 331.316 96.8278C331.5 96.9504 331.721 97.0031 331.94 96.9763C333.479 96.8542 335.022 97.1571 336.399 97.8519C337.141 98.3049 337.786 98.9001 338.296 99.6032C338.806 100.306 339.172 101.103 339.372 101.948C339.877 103.878 339.372 105.629 339.461 107.529C339.461 107.885 339.877 108.093 340.189 108.286C340.945 108.76 341.593 109.387 342.092 110.126C342.682 110.972 343.031 111.962 343.103 112.991C343.207 115.528 341.408 117.755 339.461 119.373C338.361 120.278 337.187 121.109 336.117 122.044C335.585 122.501 335.088 122.997 334.631 123.528C334.333 123.899 334.036 124.745 333.531 124.834C333.025 124.923 332.654 124.389 332.52 123.914C331.949 121.879 332.096 119.71 332.936 117.77C333.516 116.821 333.858 115.747 333.932 114.638C333.828 113.54 332.342 112.679 331.613 113.317C330.885 113.955 330.766 115.543 329.889 115.232C330.101 114.362 330.211 113.47 330.216 112.575C330.157 111.68 329.946 110.802 329.592 109.978C329.146 108.998 327.065 105.941 325.743 107.217C325.554 107.45 325.334 107.655 325.089 107.826C324.904 107.911 324.7 107.948 324.497 107.932C324.294 107.917 324.099 107.849 323.929 107.737C323.599 107.496 323.308 107.205 323.067 106.876C322.761 107.287 322.373 107.631 321.928 107.886C321.484 108.141 320.991 108.303 320.481 108.36C319.955 108.456 319.411 108.351 318.96 108.065C318.508 107.779 318.181 107.333 318.043 106.816Z" fill="#2F3554"/>
<path d="M322.101 125.621C324.491 125.18 326.828 124.489 329.072 123.558C329.265 130.816 323.364 132.315 323.364 132.315C323.511 130.262 323.471 128.201 323.246 126.155C323.248 126.071 323.233 125.986 323.203 125.907C323.172 125.828 323.126 125.756 323.067 125.695C322.927 125.651 322.776 125.651 322.636 125.695H322.101V125.621Z" fill="#DE9F93"/>
<path d="M149.644 211.748C153.88 214.182 157.447 211.644 158.562 207.295C159.023 205.351 159.201 203.333 159.84 201.359C160.82 198.915 162.125 196.613 163.72 194.517C165.329 192.422 166.483 190.016 167.109 187.452C167.399 186.164 167.34 184.822 166.937 183.564C166.535 182.307 165.804 181.179 164.82 180.298C164.36 179.886 163.756 179.673 163.14 179.704C162.159 179.793 161.654 180.907 161.416 181.886C161.382 182.891 161.228 183.887 160.955 184.855C160.186 186.161 158.93 187.11 157.462 187.496C154.163 188.847 150.625 190.049 148.307 192.735C146.34 195.222 145.398 198.365 145.676 201.522C145.795 204.624 146.716 210.086 149.644 211.748Z" fill="#2F3554"/>
<path d="M190.31 232.794L185.598 250.693C171.686 253.572 155.872 248.051 155.872 248.051C156.63 240.066 155.872 229.157 154.386 225.788C150.447 216.735 145.602 204.728 151.235 197.886C155.783 192.364 164.106 192.899 169.189 193.047C174.219 193.119 179.25 192.931 184.261 192.483C203.568 213.158 190.31 232.794 190.31 232.794Z" fill="#4C506D"/>
<path d="M173.083 159.371L179.029 176.202C179.029 176.202 188.719 176.365 186.728 166.673C184.736 156.982 178.033 156.581 178.033 156.581L173.083 159.371Z" fill="#2F3554"/>
<path d="M164.374 159.564C164.374 159.564 180.589 155.008 183.25 166.362C183.804 168.711 184.079 171.117 184.067 173.53C184.082 174.352 184.052 175.175 183.978 175.994C183.25 183.415 179.519 189.055 173.485 188.55C162.947 187.689 151.695 165.248 164.374 159.564Z" fill="#EC9C7D"/>
<path d="M166.276 180.788C166.179 180.887 166.064 180.965 165.936 181.019C165.808 181.072 165.671 181.1 165.533 181.1C165.395 181.1 165.258 181.072 165.13 181.019C165.002 180.965 164.887 180.887 164.79 180.788C165.978 182.565 166.722 184.601 166.96 186.725C167.777 192.854 164.79 193.107 164.79 193.107C175.848 199.281 177.483 195.095 177.483 195.095C176.771 194.1 176.356 192.924 176.285 191.702C176.214 190.481 176.49 189.265 177.082 188.194C172.058 189.574 167.644 183.667 166.677 180.313C166.592 180.507 166.453 180.671 166.276 180.788Z" fill="#D68369"/>
<path d="M176.012 157.887C175.158 157.591 174.253 157.47 173.351 157.531C168.892 157.531 164.18 157.798 160.138 159.802C157.581 161.063 155.203 163.319 155.01 166.169C155.012 167.618 155.29 169.053 155.827 170.399C156.271 171.447 156.571 172.55 156.719 173.679C156.719 174.539 156.377 175.43 156.377 176.32C156.394 178.284 156.988 180.199 158.087 181.827C158.977 183.03 160.004 184.126 161.148 185.092L163.556 187.274C163.656 187.393 163.791 187.476 163.943 187.511C164.071 187.51 164.196 187.469 164.299 187.392C165.179 186.891 165.895 186.147 166.362 185.249C166.829 184.352 167.026 183.338 166.93 182.331C166.892 181.585 166.574 180.88 166.038 180.357C165.565 180.033 165.069 179.746 164.552 179.497C163.98 179.146 163.507 178.655 163.18 178.071C162.852 177.486 162.679 176.827 162.679 176.157C162.65 175.873 162.696 175.586 162.813 175.325C162.931 175.064 163.115 174.839 163.348 174.673C163.616 174.556 163.913 174.52 164.201 174.57C164.489 174.62 164.756 174.754 164.968 174.955C165.592 175.519 165.518 176.172 166.336 176.335C167.223 176.337 168.089 176.068 168.818 175.564C174.183 172.595 176.249 164.774 177.869 159.238C177.111 159.059 176.784 158.213 176.012 157.887Z" fill="#2F3554"/>
<path d="M163.304 215.577C158.845 202.635 155.872 196.283 151.324 197.886C151.324 197.886 145.379 200.854 148.753 212.727C152.528 226.085 162.531 238.537 162.531 238.537L167.153 228.356C167.153 228.356 165.652 222.701 163.304 215.577Z" fill="#EC9C7D"/>
<path d="M210.524 262.982C210.241 262.64 209.32 261.498 207.952 260.013C208.072 260.121 208.182 260.241 208.279 260.37C209.082 261.201 209.825 262.106 210.524 262.982Z" fill="#DC9BD5"/>
<path d="M156.526 244.281C162.664 244.637 169.1 245.068 175.402 245.973C175.402 245.973 200.105 266.752 203.256 271.783C210.553 283.463 217.658 280.139 207.075 297.207C200.03 308.576 192.97 319.954 185.895 331.343C182.299 332.545 178.464 329.384 177.423 325.718C176.383 322.052 177.423 318.164 178.538 314.512C180.698 307.151 182.824 299.794 184.914 292.443C185.36 290.766 185.821 288.881 184.914 287.396C184.319 286.582 183.533 285.925 182.626 285.482C180.114 283.998 178.39 280.465 175.61 279.619C170.866 278.357 166.351 276.354 162.233 273.683C158.085 270.976 155.17 266.748 154.118 261.913C153.107 256.08 155.872 250.233 156.526 244.281Z" fill="#4A43B7"/>
<path d="M175.447 246.032C180.515 246.656 188.824 244.34 188.824 244.34C196.062 247.561 203.88 255.561 207.878 260.043C209.26 261.527 210.182 262.685 210.464 263.011V263.086L210.866 263.59C215.324 269.527 218.134 276.517 220.898 283.404L234.84 318.089C235.366 319.173 235.65 320.358 235.672 321.562C235.464 325.852 229.727 326.994 225.431 326.905L206.912 297.222C206.912 297.222 210.42 286.625 203.077 271.798C200.461 266.484 175.194 245.988 175.194 245.988L175.447 246.032Z" fill="#4A43B7"/>
<path d="M175.447 246.032C180.515 246.656 188.824 244.34 188.824 244.34C196.062 247.561 203.88 255.561 207.878 260.043C209.26 261.527 210.182 262.685 210.464 263.011V263.086L210.866 263.59C215.324 269.527 218.134 276.517 220.898 283.404L234.84 318.089C235.366 319.173 235.65 320.358 235.672 321.562C235.464 325.852 229.727 326.994 225.431 326.905L206.912 297.222C206.912 297.222 210.42 286.625 203.077 271.798C200.461 266.484 175.194 245.988 175.194 245.988L175.447 246.032Z" fill="url(#paint1_linear_13_870)"/>
<path d="M185.509 334.267C185.095 333.215 184.629 332.185 184.112 331.18C183.202 330.301 182.206 329.515 181.139 328.835C180.708 328.449 178.167 326.297 178.315 325.688C177.752 327.736 176.991 329.725 176.041 331.625C175.311 332.722 174.942 334.019 174.986 335.335C175.385 336.554 176.187 337.6 177.26 338.304C181.214 341.554 185.94 344.641 191.023 344.062C191.18 344.067 191.337 344.039 191.482 343.98C191.628 343.921 191.76 343.833 191.87 343.721C192.002 343.541 192.066 343.32 192.049 343.098C192.138 340.842 189.938 339.328 188.288 337.799C187.181 336.776 186.243 335.584 185.509 334.267Z" fill="#EC9C7D"/>
<path d="M235.241 324.501C234.215 323.314 234.126 323.284 232.61 323.967C231.511 324.466 230.461 325.067 229.474 325.762C229.342 325.836 229.238 325.951 229.177 326.089C229.132 326.229 229.132 326.379 229.177 326.519L230.663 330.972C230.798 331.615 231.137 332.198 231.629 332.634C232.04 332.879 232.504 333.022 232.982 333.05C236.661 333.796 240.442 333.906 244.159 333.376C245.11 333.183 246.151 332.664 246.151 331.744C246.133 331.395 246.002 331.062 245.779 330.794C244.649 329.31 242.569 328.939 240.785 328.3C238.636 327.539 236.725 326.229 235.241 324.501Z" fill="#EC9C7D"/>
<path d="M232.298 332.055C233.314 332.04 234.324 332.221 235.271 332.59C236.403 332.808 237.551 332.937 238.704 332.976C239.196 333.05 239.698 333.022 240.179 332.895C240.659 332.767 241.109 332.542 241.498 332.234C242.182 331.551 242.271 330.453 242.881 329.681C243.166 329.347 243.522 329.081 243.923 328.901C244.324 328.722 244.76 328.633 245.199 328.642C246.078 328.668 246.944 328.854 247.756 329.191C249.938 329.918 251.874 331.239 253.344 333.005C253.525 333.193 253.626 333.443 253.627 333.703C253.609 333.876 253.542 334.041 253.433 334.178C252.926 334.714 252.316 335.142 251.639 335.438C250.962 335.734 250.233 335.89 249.495 335.899C246.144 336.464 242.756 336.776 239.358 336.834C237.692 336.73 236.019 336.79 234.364 337.013C234.063 337.102 233.743 337.102 233.443 337.013C233.252 336.88 233.099 336.701 232.997 336.493C232.417 335.499 230.321 332.56 232.298 332.055Z" fill="#4A43B7"/>
<path d="M175.833 333.332C176.799 333.643 177.617 335.024 178.315 335.736C179.247 336.654 180.24 337.507 181.288 338.289C181.712 338.668 182.208 338.957 182.747 339.138C183.287 339.319 183.857 339.389 184.424 339.343C185.524 339.12 186.312 338.126 187.397 337.784C187.879 337.651 188.385 337.626 188.878 337.711C189.372 337.796 189.84 337.988 190.25 338.274C191.07 338.84 191.779 339.549 192.346 340.367C193.951 342.451 194.949 344.936 195.23 347.55C195.276 347.844 195.212 348.146 195.051 348.396C194.92 348.548 194.751 348.66 194.561 348.723C193.735 348.904 192.882 348.92 192.05 348.77C191.218 348.619 190.425 348.306 189.715 347.847C186.183 346.262 182.779 344.406 179.534 342.296C178.018 341.139 176.384 340.144 174.659 339.328C174.317 339.242 174.016 339.036 173.812 338.749C173.695 338.509 173.659 338.239 173.708 337.977C173.812 336.597 173.708 332.471 175.833 333.332Z" fill="#4A43B7"/>
<path d="M146.954 201.67C148.069 198.702 153.702 191.89 157.507 194.68C159.948 196.487 161.695 199.074 162.456 202.012C162.813 203.362 162.947 204.802 163.289 206.197C163.749 207.919 164.463 209.551 164.775 211.288C165.055 213.12 165.09 214.982 164.879 216.824C161.252 216.319 157.636 215.79 154.029 215.236L148.619 214.375C147.608 214.212 145.557 214.627 145.067 213.573C144.839 212.965 144.803 212.303 144.962 211.674L145.393 208.601C145.657 206.335 146.155 204.102 146.88 201.937C146.898 201.847 146.922 201.757 146.954 201.67Z" fill="#4C506D"/>
<path d="M379.547 326.757V335.751H347.324C347.324 335.751 349.211 328.85 361.979 326.757L366.155 323.358L379.547 326.757Z" fill="#4A43B7"/>
<path d="M379.547 324.961V333.94H347.324C347.324 333.94 349.211 327.054 361.979 324.961L366.155 321.562L379.547 324.961Z" fill="url(#paint2_linear_13_870)"/>
<path d="M402.882 337.68V346.66H370.659C370.659 346.66 372.546 339.758 385.299 337.68L389.49 334.282L402.882 337.68Z" fill="#4A43B7"/>
<path d="M402.882 335.87V344.864H370.659C370.659 344.864 372.546 337.962 385.299 335.87L389.49 332.471L402.882 335.87Z" fill="url(#paint3_linear_13_870)"/>
<path d="M463.539 222.122C462.673 223.98 461.996 225.919 461.517 227.911C461.086 230.345 460.373 232.734 459.912 235.183C459.053 240.113 458.645 245.11 458.693 250.114C458.693 252.088 458.693 254.314 457.207 255.68C456.171 256.511 454.917 257.027 453.595 257.164C451.024 257.683 448.705 258.648 446.164 259.123C443.374 259.528 440.555 259.697 437.736 259.627C429.428 259.627 413.955 258.707 414.461 247.086C415.025 233.936 416.051 221.143 417.894 208.023C418.518 203.644 418.652 198.568 419.975 194.338C421.119 190.806 425.251 190.762 428.684 191.133H429.353C430.013 191.165 430.669 191.249 431.315 191.385C435.897 191.847 440.507 191.976 445.108 191.771C450.281 191.622 458.559 191.103 463.657 195.971C464.008 196.309 464.341 196.666 464.653 197.04C469.751 203.288 466.987 213.291 463.539 222.122Z" fill="#4A43B7"/>
<path d="M396.446 219.02C396.004 221.789 395.775 224.587 395.763 227.391C395.687 228.37 395.898 229.35 396.372 230.211C396.906 230.79 397.574 231.228 398.319 231.487C399.063 231.746 399.859 231.818 400.638 231.695C405.653 231.639 410.45 229.638 414.015 226.115C417.324 222.831 420.351 219.276 423.066 215.488C423.815 214.602 424.381 213.576 424.73 212.471C425.08 211.365 425.206 210.201 425.102 209.047C425.102 205.87 424.984 202.68 424.686 199.503C424.686 198.761 419.499 199.34 418.979 199.503C417.063 200.05 415.236 200.87 413.554 201.937C413.568 199.729 413.762 197.525 414.134 195.348C414.247 194.716 414.169 194.065 413.911 193.478C413.331 192.454 411.874 192.35 410.685 192.454C408.114 192.646 405.275 193.077 403.67 195.081C402.998 196.031 402.495 197.091 402.184 198.212C399.671 204.969 397.752 211.931 396.446 219.02Z" fill="#4A43B7"/>
<path d="M404.086 221.692C403.811 222.723 403.917 223.819 404.383 224.779C405.528 226.515 408.159 225.922 410.016 225.076C412.513 223.89 414.888 222.464 417.106 220.816C417.292 220.634 417.513 220.492 417.756 220.398C417.999 220.303 418.258 220.259 418.518 220.267C418.89 220.4 419.215 220.637 419.455 220.95C422.928 224.759 427.167 227.793 431.895 229.855C433.5 230.552 435.626 230.983 436.785 229.721C437.944 228.46 437.038 226.085 435.997 224.497L423.765 205.618C423.617 205.348 423.388 205.13 423.111 204.995C422.65 204.832 422.174 205.188 421.803 205.514C420.12 206.967 418.25 208.19 416.244 209.151C415.542 209.594 414.695 209.748 413.881 209.581C412.736 209.195 412.395 207.8 412.201 206.613C411.961 204.643 411.907 202.656 412.038 200.676C412.17 199.858 412.114 199.02 411.874 198.227C411.562 197.578 411.006 197.078 410.327 196.836C409.648 196.594 408.901 196.63 408.248 196.936C408.156 196.965 408.071 197.011 407.995 197.069C406.509 198.212 406.717 202.516 406.509 204.357L404.086 221.692Z" fill="url(#paint4_linear_13_870)"/>
<path d="M446.357 221.024C445.245 223.039 443.756 224.822 441.972 226.278C439.966 227.836 435.343 233.936 432.475 232.066C433.733 233.175 435.22 233.996 436.829 234.471C432.371 237.573 426.812 238.404 421.491 239.398C420.108 239.574 418.774 240.023 417.567 240.719C416.969 241.077 416.484 241.595 416.167 242.214C415.849 242.833 415.711 243.528 415.768 244.222C416.155 246.626 419.187 247.338 421.639 247.487C427.585 247.858 433.604 247.977 439.549 248.704C444.603 249.327 450.058 250.648 453.164 254.641C453.382 254.993 453.697 255.276 454.071 255.457C454.386 255.535 454.719 255.501 455.012 255.36C455.306 255.219 455.54 254.98 455.676 254.685C455.923 254.083 456.034 253.435 456.003 252.785C456.096 247.832 456.861 242.914 458.277 238.166C458.857 236.252 458.916 234.293 459.481 232.467C460.165 230.181 461.413 228.014 462.186 225.803C463.744 221.273 464.791 216.584 465.307 211.822C465.664 208.483 465.426 204.401 462.558 202.694C461.469 202.136 460.242 201.906 459.025 202.033C457.809 202.159 456.655 202.637 455.706 203.407C453.838 204.964 452.391 206.964 451.499 209.225C449.775 213.098 448.482 217.373 446.357 221.024Z" fill="url(#paint5_linear_13_870)"/>
<path d="M463.657 196.06C458.559 191.192 450.281 191.711 445.093 191.875C440.497 192.068 435.893 191.934 431.315 191.474C430.661 191.385 430.007 191.296 429.338 191.236C432.073 190.094 435.953 190.865 438.881 190.954C443.29 191.103 447.704 191.375 452.124 191.771C456.315 192.142 460.937 192.869 463.657 196.06Z" fill="white"/>
<path d="M447.962 177.864C447.12 180.048 445.487 181.836 443.386 182.872C441.285 183.909 438.87 184.119 436.621 183.459C436.621 183.459 438.777 190.005 436.071 193.952C435.566 194.695 438.955 195.437 439.148 195.437C441.068 195.424 442.964 195.02 444.722 194.249C447.442 192.972 450.307 192.025 453.253 191.429C451.845 190.802 450.737 189.652 450.162 188.224C448.586 184.929 449.106 181.96 449.731 178.591C449.499 178.725 449.23 178.783 448.964 178.756C448.697 178.73 448.445 178.62 448.244 178.443C448.093 178.283 447.994 178.081 447.962 177.864Z" fill="#D68369"/>
<path d="M442.046 186.279C435.685 188.149 430.498 182.91 428.149 175.178C427.897 174.332 427.689 173.456 427.495 172.551C426.963 169.979 426.734 167.354 426.812 164.729C427.154 152.054 445.405 153.331 445.405 153.331C460.179 156.64 453.134 183.029 442.046 186.279Z" fill="#EC9C7D"/>
<path d="M432.683 151.268C430.356 151.85 428.325 153.265 426.975 155.245C426.38 156.345 425.715 157.406 424.984 158.421C423.854 159.802 422.16 160.796 421.565 162.473C424.442 162.943 427.394 162.42 429.933 160.989C430.136 161.337 430.426 161.625 430.776 161.826C431.125 162.026 431.522 162.132 431.925 162.132C432.737 162.119 433.541 161.968 434.303 161.686C434.716 161.515 435.173 161.473 435.611 161.568C435.939 161.719 436.233 161.936 436.473 162.206C437.219 162.842 438.115 163.28 439.077 163.477C440.039 163.674 441.035 163.625 441.972 163.334C443.117 162.993 444.261 162.31 445.331 162.651C445.911 162.961 446.393 163.427 446.721 163.996C447.049 164.566 447.211 165.215 447.189 165.872C447.189 166.644 446.803 167.356 446.773 168.187C446.742 169.018 446.863 169.848 447.13 170.636C447.533 170.057 448.036 169.555 448.616 169.152C448.916 168.964 449.261 168.857 449.615 168.841C449.969 168.826 450.321 168.902 450.637 169.063C450.888 169.229 451.101 169.447 451.262 169.701C451.766 170.486 451.978 171.422 451.861 172.347C451.745 173.272 451.306 174.127 450.622 174.762C450.816 175.549 451.009 176.35 451.187 177.137C452.197 176.036 453.002 174.764 453.565 173.382C454.045 171.832 454.693 170.339 455.498 168.929C456.069 168.311 456.568 167.628 456.984 166.896C457.158 166.346 457.362 165.806 457.593 165.278C458.336 163.957 459.377 162.636 458.946 161.019C458.515 159.401 456.657 158.05 457.073 156.462C457.177 156.15 457.266 155.854 457.341 155.542C457.382 155.074 457.284 154.604 457.058 154.191C456.199 152.52 454.976 151.062 453.479 149.925C451.983 148.787 450.25 147.998 448.408 147.616C444.719 146.887 440.92 146.922 437.246 147.72C433.545 148.359 429.888 149.279 426.143 149.561C425.991 149.542 425.838 149.566 425.699 149.629C425.56 149.691 425.441 149.791 425.355 149.917C425.311 150.047 425.311 150.188 425.355 150.318C425.504 151.119 426.247 151.653 426.841 152.217C427.436 152.781 427.986 153.702 427.54 154.369" fill="#FF681C"/>
<path d="M446.461 250.455C446.461 250.455 438.732 269.75 432.519 271.783C426.306 273.816 403.343 280.807 403.343 280.807L378.715 330.705L366.155 322.987L386.964 262.878L412.038 250.025C412.038 250.025 418.444 250.262 446.461 250.455Z" fill="#2F3554"/>
<path d="M457.192 254.166C457.192 254.166 458.678 271.753 452.421 273.787C446.164 275.82 423.259 282.825 423.259 282.825L402.778 338.497L389.401 335.098L406.865 264.867L431.88 252.058C431.88 252.058 446.416 246.819 457.192 254.166Z" fill="#4C506D"/>
<path d="M466.66 205.203C466.66 205.203 455.765 229.603 444.202 232.897C432.638 236.192 418.726 201.997 418.726 201.997L428.001 198.509L443.562 214.123C443.562 214.123 453.209 193.671 457.133 194.606C461.056 195.541 468.131 201.047 466.66 205.203Z" fill="#4A43B7"/>
<path d="M416.363 184.899C416.248 185.852 415.855 186.75 415.233 187.482C414.483 189.005 413.981 190.638 413.747 192.32C413.478 194.002 412.799 195.592 411.77 196.951C411.236 197.608 410.506 198.079 409.685 198.296C408.865 198.512 407.997 198.462 407.207 198.153C406.692 197.851 406.255 197.434 405.93 196.934C405.605 196.435 405.401 195.866 405.335 195.273C405.215 194.081 405.352 192.877 405.736 191.741C406.15 190.257 406.718 188.819 407.43 187.452C408.056 186.141 408.947 184.974 410.046 184.023C411.681 182.673 416.155 181.5 416.363 184.899Z" fill="#D68369"/>
<path d="M427.986 185.226C428.323 185.517 428.57 185.898 428.699 186.324C428.76 186.729 428.698 187.142 428.521 187.511C427.53 189.531 426.054 191.274 424.226 192.587L421.357 195.006C421.158 195.202 420.927 195.363 420.673 195.481C420.227 195.615 419.752 195.615 419.306 195.481L413.509 194.68C412.763 194.636 412.039 194.412 411.399 194.027C410.882 193.609 410.487 193.061 410.254 192.439C409.428 190.566 409.106 188.509 409.319 186.474C409.533 184.438 410.276 182.494 411.473 180.832C412.031 180.021 412.775 179.355 413.643 178.888C416.363 177.552 418.696 179.393 421.075 180.536C423.629 181.694 425.967 183.28 427.986 185.226Z" fill="white"/>
<path d="M424.716 186.027C425.489 185.879 426.202 185.285 426.99 185.537C427.255 185.635 427.483 185.811 427.644 186.042C427.92 186.488 428.067 187.002 428.067 187.526C428.067 188.05 427.92 188.564 427.644 189.01C427.107 189.887 426.411 190.657 425.593 191.281C425.454 191.416 425.286 191.517 425.103 191.578C424.642 191.682 424.24 191.251 423.943 190.88L421.238 187.229C420.644 186.428 418.265 184.023 420.376 184.261C421.996 184.424 422.903 186.368 424.716 186.027Z" fill="#D8DAE1"/>
<path d="M421 186.368C420.43 185.334 419.58 184.48 418.548 183.905C417.566 183.518 416.506 183.371 415.456 183.474C413.405 183.474 410.997 183.845 410.016 185.641C409.712 186.361 409.593 187.146 409.671 187.924C409.749 188.702 410.021 189.448 410.462 190.094C411.25 191.429 412.38 192.557 413.182 193.878C414.327 195.778 414.877 198.153 416.616 199.533C417.349 200.098 418.204 200.484 419.113 200.661C422.085 201.359 426.069 199.934 425.355 196.342C424.494 192.79 423.021 189.415 421 186.368Z" fill="#EC9C7D"/>
<path d="M450.489 189.93C450.973 189.782 451.491 189.782 451.975 189.93C452.718 190.257 453.06 191.207 453.818 191.504C452.049 193.136 449.641 193.878 447.605 195.155C445.491 196.629 443.599 198.398 441.987 200.409C440.055 199.355 440.174 196.372 438.494 194.962C439.69 194.647 440.828 194.146 441.868 193.478C442.68 193.085 443.464 192.639 444.216 192.142C446.15 191.018 448.278 190.268 450.489 189.93Z" fill="#4A43B7"/>
<path d="M433.976 191.058C433.366 191.59 432.818 192.187 432.341 192.839L430.438 195.259C430.338 195.35 430.259 195.463 430.208 195.589C430.157 195.715 430.134 195.85 430.141 195.986C430.198 196.144 430.312 196.275 430.46 196.354C430.608 196.433 430.78 196.456 430.944 196.416C431.259 196.325 431.567 196.211 431.865 196.075C432.57 195.939 433.29 195.899 434.005 195.956C434.887 195.867 435.75 195.642 436.562 195.288C436.607 195.283 436.65 195.268 436.69 195.246C436.729 195.224 436.764 195.194 436.792 195.158C436.819 195.122 436.839 195.081 436.851 195.037C436.863 194.993 436.865 194.947 436.859 194.902C436.808 194.053 436.939 193.203 437.246 192.409C437.454 191.815 437.855 191.133 437.454 190.524C436.681 189.292 434.734 190.435 433.976 191.058Z" fill="#4A43B7"/>
<path d="M201.279 225.595L198.633 222.538C198.633 222.538 170.393 226.99 166.306 228.608C162.219 230.226 162.456 238.522 162.456 238.522C173.515 241.58 201.279 225.595 201.279 225.595Z" fill="#EC9C7D"/>
<path d="M196.21 226.426C196.299 226.768 196.491 227.074 196.76 227.302C197.059 227.47 197.387 227.581 197.727 227.629C199.718 228.104 201.264 229.692 203.166 230.434C205.753 231.443 208.666 230.834 211.356 230.181C211.829 230.229 212.304 230.122 212.711 229.877C213.117 229.632 213.434 229.263 213.613 228.824C213.792 228.384 213.824 227.899 213.703 227.44C213.583 226.981 213.318 226.574 212.946 226.278C212.292 224.952 211.371 223.775 210.241 222.82C207.878 221.039 204.578 221.425 201.665 221.885C198.975 222.315 195.007 222.449 196.21 226.426Z" fill="#EC9C7D"/>
<path d="M354.235 160.128C354.82 163.814 354.78 167.572 354.116 171.245C353.787 173.047 353.36 174.831 352.838 176.588C352.675 177.066 352.584 177.566 352.57 178.072C352.57 178.591 352.897 179.007 352.57 179.556C352.139 180.461 350.787 180.075 349.91 179.556C346.318 177.731 342.288 176.945 338.272 177.285C337.321 177.374 336.132 177.419 335.656 176.588C335.465 176.16 335.403 175.685 335.478 175.222C335.731 171.259 336.087 167.267 336.518 163.23C337.103 159.707 337.958 156.233 339.075 152.841C339.937 149.694 342.686 141.234 347.131 143.134C350.787 144.796 353.655 156.7 354.235 160.128Z" fill="white"/>
<path d="M466.526 233.12H153.895V238.522H466.526V233.12Z" fill="#4A43B7"/>
<path d="M466.526 233.12H153.895V238.522H466.526V233.12Z" fill="url(#paint6_linear_13_870)"/>
<path d="M336.162 170.131C336.723 166.228 337.562 162.369 338.673 158.585C340.457 152.499 343.474 146.058 349.33 143.654C350.157 143.461 350.886 142.976 351.381 142.288C351.857 141.324 351.233 140.196 350.638 139.32C347.74 135.001 344.975 135.045 341.096 138.073C337.47 140.908 334.423 143.728 332.684 148.106C331.075 152.489 330.426 157.166 330.781 161.82C331.012 166.579 331.857 171.288 333.293 175.831C333.605 176.855 334.393 178.101 335.404 177.76C335.537 175.207 335.79 172.655 336.162 170.131Z" fill="#2F3554"/>
<path d="M264.477 141.888C264.968 143.13 265.01 144.506 264.596 145.776C264.254 147.943 264.358 150.229 263.912 152.306C263.763 153.397 263.354 154.437 262.721 155.338C262.087 156.239 261.247 156.975 260.271 157.486C258.573 157.991 256.766 157.991 255.068 157.486C254.767 157.469 254.472 157.389 254.203 157.251C253.934 157.113 253.697 156.92 253.508 156.685C253.377 156.401 253.311 156.092 253.315 155.779C253.31 154.357 253.125 152.941 252.765 151.564C252.126 149.605 250.565 147.735 251.1 145.746C251.695 143.52 255.187 141.383 257.313 140.804C259.438 140.225 263.184 139.81 264.477 141.888Z" fill="white"/>
<path d="M262.634 138.251C262.61 138.102 262.555 137.961 262.47 137.836C262.357 137.677 262.21 137.545 262.039 137.45C261.429 137.061 260.788 136.724 260.122 136.441C259.824 136.289 259.484 136.242 259.156 136.307C258.929 136.385 258.738 136.543 258.621 136.752C258.254 137.518 258.201 138.397 258.472 139.201L258.74 140.492C259.198 140.388 259.667 140.344 260.137 140.359C260.648 140.379 261.151 140.489 261.623 140.685C261.965 140.834 262.322 141.086 262.693 140.893C262.839 140.802 262.955 140.671 263.028 140.516C263.102 140.361 263.13 140.188 263.109 140.017C263.026 139.411 262.867 138.818 262.634 138.251Z" fill="#4A43B7"/>
<path d="M256.451 137.227C256.287 137.034 256.084 136.878 255.854 136.771C255.624 136.664 255.374 136.609 255.12 136.609C254.867 136.609 254.617 136.664 254.387 136.771C254.157 136.878 253.953 137.034 253.79 137.227L251.457 138.889C250.828 139.238 250.348 139.802 250.104 140.478C250.03 140.83 250.03 141.194 250.104 141.546C250.389 142.824 250.892 144.044 251.59 145.153C251.382 144.826 253.419 143.253 253.671 143.075C254.515 142.523 255.393 142.027 256.302 141.591C256.592 141.414 256.844 141.182 257.044 140.908C257.244 140.634 257.387 140.323 257.466 139.993C257.545 139.664 257.557 139.321 257.503 138.987C257.448 138.652 257.328 138.332 257.149 138.043C256.976 137.726 256.738 137.448 256.451 137.227Z" fill="#4A43B7"/>
<path d="M257.179 202.026H249.658C247.721 202.026 246.151 203.595 246.151 205.529V229.617C246.151 231.552 247.721 233.12 249.658 233.12H257.179C259.116 233.12 260.687 231.552 260.687 229.617V205.529C260.687 203.595 259.116 202.026 257.179 202.026Z" fill="#4A43B7"/>
<path d="M257.179 202.026H249.658C247.721 202.026 246.151 203.595 246.151 205.529V229.617C246.151 231.552 247.721 233.12 249.658 233.12H257.179C259.116 233.12 260.687 231.552 260.687 229.617V205.529C260.687 203.595 259.116 202.026 257.179 202.026Z" fill="url(#paint7_linear_13_870)"/>
<path d="M273.187 238.522H267.613V346.66H273.187V238.522Z" fill="#4A43B7"/>
<path d="M357.431 238.522H351.857V346.66H357.431V238.522Z" fill="#4A43B7"/>
<path d="M466.437 238.522H460.863V346.66H466.437V238.522Z" fill="#4A43B7"/>
<path d="M161.535 238.522H155.961V346.66H161.535V238.522Z" fill="#4A43B7"/>
<path d="M419.127 176.602C420.189 175.963 421.434 175.697 422.665 175.846C423.275 175.923 423.852 176.163 424.339 176.538C424.825 176.914 425.201 177.413 425.429 177.983C425.712 178.775 425.712 179.64 425.429 180.432C425.119 181.211 424.704 181.945 424.196 182.613C424.923 182.21 425.593 181.711 426.187 181.129C426.708 180.625 427.317 180.016 428.016 180.209C428.309 180.313 428.571 180.492 428.774 180.728C429.071 181.04 429.383 181.367 429.665 181.693C429.891 181.92 430.064 182.194 430.171 182.495C430.215 182.819 430.194 183.148 430.11 183.464C430.025 183.78 429.88 184.076 429.68 184.335C429.382 184.994 428.854 185.522 428.194 185.819C427.77 185.871 427.339 185.825 426.935 185.686C426.531 185.548 426.163 185.319 425.86 185.018L422.769 182.732C422.293 182.364 421.796 182.022 421.283 181.708C420.673 181.382 420.034 181.085 419.395 180.818C418.756 180.55 416.422 179.868 416.571 178.903C416.72 177.938 418.384 177.003 419.127 176.602Z" fill="#4A43B7"/>
<path d="M371.67 233.12H386.592L389.386 209.433L368.727 209.225L371.67 233.12Z" fill="#4A43B7"/>
<path d="M391.333 206.895H366.155V211.495H391.333V206.895Z" fill="white"/>
<path d="M386.102 193.492H380.87L378.254 206.895" stroke="#2F3554" stroke-width="1.05129" stroke-miterlimit="10"/>
<path d="M277.72 233.12H327.942L331.911 228.489H274.168L277.72 233.12Z" fill="white"/>
<path d="M312.663 223.443C311.86 222.257 310.823 221.247 309.616 220.475C308.373 219.898 307.018 219.599 305.648 219.599C303.805 219.372 301.935 219.649 300.237 220.401C298.342 221.656 296.855 223.435 295.957 225.521C295.794 225.763 295.701 226.046 295.689 226.337C295.689 227.05 296.522 227.421 297.176 227.599C301.003 228.605 304.965 229.011 308.917 228.801C310.032 228.801 314.506 229.113 315.16 228.014C315.814 226.916 313.421 224.304 312.663 223.443Z" fill="white"/>
<path d="M297.592 223.443C296.82 222.257 295.807 221.246 294.619 220.475C293.376 219.898 292.022 219.599 290.651 219.599C288.794 219.35 286.904 219.607 285.181 220.341C283.286 221.596 281.799 223.376 280.901 225.462C280.737 225.704 280.645 225.986 280.633 226.278C280.633 226.99 281.465 227.361 282.119 227.54C285.947 228.546 289.908 228.952 293.861 228.742C294.976 228.742 299.45 229.053 300.104 227.955C300.758 226.857 298.275 224.304 297.592 223.443Z" fill="white"/>
<path d="M305.321 216.75C304.517 215.564 303.481 214.554 302.274 213.781C301.022 213.216 299.664 212.923 298.29 212.92C296.448 212.701 294.58 212.978 292.88 213.722C290.993 214.982 289.512 216.76 288.614 218.842C288.455 219.087 288.358 219.368 288.332 219.658C288.332 220.371 289.179 220.742 289.818 220.92C293.648 221.919 297.608 222.324 301.56 222.122C302.675 222.122 307.134 222.419 307.803 221.336C308.472 220.252 305.989 217.61 305.321 216.75Z" fill="white"/>
<path d="M208.755 213.069C210.405 213.291 212.01 214.271 213.615 213.885C215.22 213.499 216.305 211.792 217.94 211.436C218.647 211.336 219.369 211.432 220.024 211.715C220.68 211.998 221.245 212.456 221.656 213.039C222.47 214.208 223.051 215.524 223.365 216.913C223.738 217.824 223.856 218.819 223.707 219.792C223.187 221.914 220.467 222.76 219.471 224.66C218.921 225.714 218.921 227.035 218.148 227.925C217.249 228.71 216.087 229.129 214.893 229.098C212.523 229.439 210.115 229.439 207.744 229.098C204.281 228.46 199.926 225.417 201.056 221.395C202.081 217.774 204.133 212.445 208.755 213.069Z" fill="white"/>
<path d="M221.27 208.305C221.295 207.504 221.11 206.711 220.735 206.004C219.798 204.52 217.628 204.668 216.112 205.425C214.423 206.267 213.078 207.667 212.307 209.388C211.966 208.948 211.541 208.581 211.056 208.306C210.571 208.032 210.037 207.857 209.484 207.791C208.931 207.724 208.37 207.768 207.834 207.92C207.298 208.072 206.798 208.329 206.362 208.676C205.997 208.965 205.681 209.311 205.426 209.7C204.947 210.546 204.625 211.471 204.474 212.431C204.331 212.814 204.27 213.223 204.293 213.632C204.316 214.04 204.423 214.44 204.608 214.805C204.879 215.089 205.204 215.317 205.564 215.475C205.923 215.633 206.311 215.718 206.704 215.725C208.264 215.948 209.84 216.126 211.401 216.245C213.926 216.663 216.519 216.3 218.832 215.206C221.344 213.811 221.418 210.753 221.27 208.305Z" fill="#4A43B7"/>
<path d="M422.145 222.063C423.253 220.673 424.747 219.641 426.44 219.095C427.79 218.887 429.163 218.887 430.513 219.095C437.751 219.748 444.9 217.492 452.109 216.542C454.279 216.06 456.547 216.311 458.559 217.254C459.619 217.981 460.579 218.845 461.413 219.822C465.278 223.681 470.628 225.758 474.79 229.217C475.179 229.483 475.471 229.869 475.622 230.315C475.919 231.443 474.552 232.259 473.422 232.556C463.687 235.139 453.387 231.443 443.369 232.408C439.148 232.808 434.986 234.04 430.75 233.892C428.191 233.605 425.65 233.169 423.141 232.586C421.818 232.348 417.834 232.586 416.868 231.755C414.758 229.81 420.569 223.74 422.145 222.063Z" fill="#2F3554"/>
<path d="M463.345 235.183C462.321 238.919 461.635 242.738 461.294 246.596C461.131 249.787 461.458 253.75 463.717 256.229C464.928 257.503 466.473 258.413 468.176 258.856C468.937 258.975 469.671 259.226 470.346 259.598C470.84 259.95 471.236 260.423 471.496 260.971C471.756 261.519 471.872 262.124 471.832 262.729C471.716 263.935 471.325 265.098 470.688 266.128C470.491 266.528 470.206 266.878 469.855 267.152C469.305 267.477 468.658 267.598 468.027 267.494C464.797 267.317 461.756 265.916 459.525 263.575C457.766 261.911 456.371 259.9 455.43 257.67C454.489 255.439 454.021 253.038 454.056 250.618C454.219 246.418 456.062 242.5 457.534 238.567C459.005 234.634 460.135 230.256 458.812 226.263C458.693 225.907 458.574 225.432 458.812 225.18C459 225.053 459.226 224.996 459.451 225.016C465.307 225.046 464.311 231.116 463.345 235.183Z" fill="#2F3554"/>
</g>
<defs>
<filter id="filter0_d_13_870" x="0" y="0" width="582" height="440" filterUnits="userSpaceOnUse" color-interpolation-filters="sRGB">
<feFlood flood-opacity="0" result="BackgroundImageFix"/>
<feColorMatrix in="SourceAlpha" type="matrix" values="0 0 0 0 0 0 0 0 0 0 0 0 0 0 0 0 0 0 127 0" result="hardAlpha"/>
<feOffset dy="4"/>
<feGaussianBlur stdDeviation="2"/>
<feComposite in2="hardAlpha" operator="out"/>
<feColorMatrix type="matrix" values="0 0 0 0 0 0 0 0 0 0 0 0 0 0 0 0 0 0 0.25 0"/>
<feBlend mode="normal" in2="BackgroundImageFix" result="effect1_dropShadow_13_870"/>
<feBlend mode="normal" in="SourceGraphic" in2="effect1_dropShadow_13_870" result="shape"/>
</filter>
<linearGradient id="paint0_linear_13_870" x1="307.922" y1="143.134" x2="301.252" y2="403.89" gradientUnits="userSpaceOnUse">
<stop offset="0.01"/>
<stop offset="0.08" stop-opacity="0.69"/>
<stop offset="0.21" stop-opacity="0.32"/>
<stop offset="1" stop-opacity="0"/>
</linearGradient>
<linearGradient id="paint1_linear_13_870" x1="-131293" y1="54152.6" x2="-122032" y2="53852.4" gradientUnits="userSpaceOnUse">
<stop offset="0.01"/>
<stop offset="0.08" stop-opacity="0.69"/>
<stop offset="0.21" stop-opacity="0.32"/>
<stop offset="1" stop-opacity="0"/>
</linearGradient>
<linearGradient id="paint2_linear_13_870" x1="-25548.9" y1="1514.56" x2="-24770" y2="992.872" gradientUnits="userSpaceOnUse">
<stop offset="0.01"/>
<stop offset="0.08" stop-opacity="0.69"/>
<stop offset="0.21" stop-opacity="0.32"/>
<stop offset="1" stop-opacity="0"/>
</linearGradient>
<linearGradient id="paint3_linear_13_870" x1="-26031.5" y1="1435.69" x2="-25251.3" y2="914.472" gradientUnits="userSpaceOnUse">
<stop offset="0.01"/>
<stop offset="0.08" stop-opacity="0.69"/>
<stop offset="0.21" stop-opacity="0.32"/>
<stop offset="1" stop-opacity="0"/>
</linearGradient>
<linearGradient id="paint4_linear_13_870" x1="-27651.4" y1="6003.2" x2="-26901.4" y2="6003.2" gradientUnits="userSpaceOnUse">
<stop offset="0.01"/>
<stop offset="0.08" stop-opacity="0.69"/>
<stop offset="0.21" stop-opacity="0.32"/>
<stop offset="1" stop-opacity="0"/>
</linearGradient>
<linearGradient id="paint5_linear_13_870" x1="-40962.9" y1="10263" x2="-42203.1" y2="7271.45" gradientUnits="userSpaceOnUse">
<stop offset="0.01"/>
<stop offset="0.08" stop-opacity="0.69"/>
<stop offset="0.21" stop-opacity="0.32"/>
<stop offset="1" stop-opacity="0"/>
</linearGradient>
<linearGradient id="paint6_linear_13_870" x1="235825" y1="-755.344" x2="235825" y2="-480.308" gradientUnits="userSpaceOnUse">
<stop offset="0.01"/>
<stop offset="0.08" stop-opacity="0.69"/>
<stop offset="0.21" stop-opacity="0.32"/>
<stop offset="1" stop-opacity="0"/>
</linearGradient>
<linearGradient id="paint7_linear_13_870" x1="9542.07" y1="-4872.66" x2="9100.68" y2="-4932.4" gradientUnits="userSpaceOnUse">
<stop offset="0.01"/>
<stop offset="0.08" stop-opacity="0.69"/>
<stop offset="0.21" stop-opacity="0.32"/>
<stop offset="1" stop-opacity="0"/>
</linearGradient>
<clipPath id="clip0_13_870">
<rect width="574" height="432" fill="white" transform="translate(4)"/>
</clipPath>
</defs>
</svg>
