<svg width="535" height="403" viewBox="0 0 535 403" fill="none" xmlns="http://www.w3.org/2000/svg">
<g clip-path="url(#clip0_13_362)">
<path opacity="0.18" d="M127.924 86.0973C98.7679 101.663 68.7267 117.964 48.4043 144.033C36.2 159.707 28.0684 178.364 23.7864 197.777C16.4517 230.913 21.8818 269.328 47.1143 292.116C55.8943 300.082 66.633 305.704 77.7094 310.024C100.669 318.963 125.348 322.619 149.915 320.723C170.089 319.151 190.229 313.838 210.301 316.369C234.784 319.447 256.16 333.758 278.968 343.181C307.309 354.845 338.168 359.051 368.599 355.398C376.271 354.467 384.038 352.975 390.785 349.209C398.795 344.733 404.732 337.423 411.047 330.74C425.284 315.615 442.08 303.118 460.661 293.824C470.407 288.951 480.733 284.907 489.196 278.049C511.484 260.027 515.3 227.775 514.003 199.175C512.706 170.574 506.256 139.004 483.354 121.636C478.241 117.762 472.487 114.758 467.53 110.674C450.996 97.0526 446.052 74.2509 435.462 55.6139C411.716 13.9389 358.731 -4.30655 311.029 0.850514C242.673 8.24185 186.69 54.7297 127.924 86.0973Z" fill="#6C63FF"/>
<path d="M486.062 199.465C485.441 205.202 478.356 214.835 468.556 225.662C452.495 243.374 429.161 264.266 415.126 276.436C407.886 282.72 403.125 286.683 403.125 286.683V177.642C403.125 177.642 420.117 155.893 432.463 154.496C444.809 153.099 469.725 167.53 469.725 167.53C469.725 167.53 488.142 179.512 486.062 199.465Z" fill="#6C63FF"/>
<path d="M468.556 225.662C452.495 243.374 429.161 264.266 415.126 276.436C414.079 274.769 413.87 272.501 413.775 270.449C413.404 260.195 413.492 249.928 413.586 239.668C413.674 229.705 413.762 219.749 414.39 209.806C414.984 200.545 416.119 191.074 420.36 182.806C421.318 183.661 422.108 184.686 422.691 185.83C428.033 195.003 431.41 205.121 434.787 215.166C436.457 220.116 438.128 225.086 439.798 230.076C443.542 228.019 446.888 225.31 449.679 222.078C452.246 219.236 454.535 216.165 456.892 213.154C458.54 211.048 461.755 205.054 464.321 207.308C468.482 210.933 468.82 219.229 468.556 225.662Z" fill="url(#paint0_linear_13_362)"/>
<path d="M415.599 34.0744H138.967V354.278H415.599V34.0744Z" fill="#6C63FF"/>
<path d="M415.599 34.0744H138.967V354.278H415.599V34.0744Z" fill="url(#paint1_linear_13_362)"/>
<path d="M377.581 49.5523L138.967 70.9298C140.041 70.9298 138.967 41.2295 138.967 34.0744H390.549V36.5854C390.549 40.0233 389.183 43.3205 386.751 45.752C384.319 48.1836 381.021 49.5505 377.581 49.5523Z" fill="url(#paint2_linear_13_362)"/>
<path d="M415.599 70.9298H138.967V391.133H415.599V70.9298Z" fill="#6C63FF"/>
<path d="M178.295 70.9298H138.967V391.133H178.295V70.9298Z" fill="url(#paint3_linear_13_362)"/>
<path d="M202.19 130.776H154.406V178.533H202.19V130.776Z" fill="white"/>
<path d="M252.628 130.776H204.844V178.533H252.628V130.776Z" fill="white"/>
<path d="M303.073 130.776H255.289V178.533H303.073V130.776Z" fill="white"/>
<path d="M353.511 130.776H305.727V178.533H353.511V130.776Z" fill="white"/>
<path d="M202.19 180.632H154.406V228.389H202.19V180.632Z" fill="white"/>
<path d="M252.628 180.632H204.844V228.389H252.628V180.632Z" fill="white"/>
<path d="M303.073 180.632H255.289V228.389H303.073V180.632Z" fill="white"/>
<path d="M353.511 180.632H305.727V228.389H353.511V180.632Z" fill="white"/>
<path d="M202.19 230.488H154.406V278.245H202.19V230.488Z" fill="white"/>
<path d="M252.628 230.488H204.844V278.245H252.628V230.488Z" fill="white"/>
<path d="M303.073 230.488H255.289V278.245H303.073V230.488Z" fill="white"/>
<path d="M353.511 230.488H305.727V278.245H353.511V230.488Z" fill="white"/>
<path d="M202.19 280.344H154.406V328.101H202.19V280.344Z" fill="white"/>
<path d="M252.628 280.344H204.844V328.101H252.628V280.344Z" fill="white"/>
<path d="M303.073 280.344H255.289V328.101H303.073V280.344Z" fill="white"/>
<path d="M353.511 280.344H305.727V328.101H353.511V280.344Z" fill="white"/>
<path d="M202.19 330.2H154.406V377.957H202.19V330.2Z" fill="white"/>
<path d="M252.628 330.2H204.844V377.957H252.628V330.2Z" fill="white"/>
<path d="M303.073 330.2H255.289V377.957H303.073V330.2Z" fill="white"/>
<path d="M403.104 130.776H355.321V178.533H403.104V130.776Z" fill="white"/>
<path d="M403.104 80.92H355.321V128.677H403.104V80.92Z" fill="white"/>
<path d="M353.511 80.92H305.727V128.677H353.511V80.92Z" fill="white"/>
<path d="M403.104 180.632H355.321V228.389H403.104V180.632Z" fill="white"/>
<path d="M403.104 230.488H355.321V278.245H403.104V230.488Z" fill="white"/>
<path d="M403.104 280.344H355.321V328.101H403.104V280.344Z" fill="white"/>
<path d="M160.397 21.1277V47.0211C160.397 48.4183 162.173 49.5523 164.355 49.5523C166.543 49.5523 168.313 48.4183 168.313 47.0211V21.1277C168.313 19.7305 166.543 18.5965 164.355 18.5965C162.173 18.5965 160.397 19.7305 160.397 21.1277Z" fill="#6C63FF"/>
<path d="M198.232 21.1277V47.0211C198.232 48.4183 200.002 49.5523 202.19 49.5523C204.378 49.5523 206.148 48.4183 206.148 47.0211V21.1277C206.148 19.7305 204.378 18.5965 202.19 18.5965C200.002 18.5965 198.232 19.7305 198.232 21.1277Z" fill="#6C63FF"/>
<path d="M236.067 21.1277V47.0211C236.067 48.4183 237.837 49.5523 240.025 49.5523C242.213 49.5523 243.983 48.4183 243.983 47.0211V21.1277C243.983 19.7305 242.213 18.5965 240.025 18.5965C237.837 18.5965 236.067 19.7305 236.067 21.1277Z" fill="#6C63FF"/>
<path d="M273.903 21.1277V47.0211C273.903 48.4183 275.672 49.5523 277.86 49.5523C280.042 49.5523 281.818 48.4183 281.818 47.0211V21.1277C281.818 19.7305 280.042 18.5965 277.86 18.5965C275.672 18.5965 273.903 19.7305 273.903 21.1277Z" fill="#6C63FF"/>
<path d="M311.731 21.1277V47.0211C311.731 48.4183 313.507 49.5523 315.696 49.5523C317.877 49.5523 319.653 48.4183 319.653 47.0211V21.1277C319.653 19.7305 317.877 18.5965 315.696 18.5965C313.507 18.5965 311.731 19.7305 311.731 21.1277Z" fill="#6C63FF"/>
<path d="M349.566 21.1277V47.0211C349.566 48.4183 351.343 49.5523 353.524 49.5523C355.712 49.5523 357.489 48.4183 357.489 47.0211V21.1277C357.489 19.7305 355.712 18.5965 353.524 18.5965C351.343 18.5965 349.566 19.7305 349.566 21.1277Z" fill="#6C63FF"/>
<path d="M386.591 21.1277V47.0211C386.591 48.4183 388.367 49.5523 390.549 49.5523C392.737 49.5523 394.507 48.4183 394.507 47.0211V21.1277C394.507 19.7305 392.737 18.5965 390.549 18.5965C388.367 18.5965 386.591 19.7305 386.591 21.1277Z" fill="#6C63FF"/>
<path d="M421.9 34.0744H415.606V391.133H421.9V34.0744Z" fill="#6C63FF"/>
<path d="M421.9 34.0744H415.606V391.133H421.9V34.0744Z" fill="url(#paint4_linear_13_362)"/>
<path d="M316.763 87.9198C316.764 88.6714 316.542 89.4065 316.126 90.0322C315.709 90.6579 315.116 91.1461 314.422 91.4349C313.727 91.7238 312.963 91.8004 312.225 91.6551C311.487 91.5098 310.809 91.149 310.276 90.6185C309.744 90.088 309.38 89.4115 309.232 88.6745C309.084 87.9376 309.158 87.1734 309.445 86.4784C309.731 85.7835 310.218 85.1891 310.842 84.7704C311.467 84.3517 312.202 84.1276 312.954 84.1262C313.962 84.1262 314.928 84.5255 315.642 85.2365C316.356 85.9475 316.759 86.9124 316.763 87.9198Z" fill="url(#paint5_linear_13_362)"/>
<path d="M316.763 137.783C316.764 138.534 316.542 139.269 316.126 139.895C315.709 140.521 315.116 141.009 314.422 141.298C313.727 141.587 312.963 141.663 312.225 141.518C311.487 141.373 310.809 141.012 310.276 140.481C309.744 139.951 309.38 139.274 309.232 138.537C309.084 137.8 309.158 137.036 309.445 136.341C309.731 135.646 310.218 135.052 310.842 134.633C311.467 134.215 312.202 133.99 312.954 133.989C313.962 133.989 314.928 134.388 315.642 135.099C316.356 135.81 316.759 136.775 316.763 137.783Z" fill="url(#paint6_linear_13_362)"/>
<path d="M326.049 137.783C326.051 138.534 325.829 139.269 325.412 139.895C324.996 140.521 324.403 141.009 323.708 141.298C323.014 141.587 322.25 141.663 321.512 141.518C320.774 141.373 320.096 141.012 319.563 140.481C319.03 139.951 318.667 139.274 318.519 138.537C318.371 137.8 318.445 137.036 318.731 136.341C319.018 135.646 319.504 135.052 320.129 134.633C320.753 134.215 321.488 133.99 322.24 133.989C323.248 133.989 324.215 134.388 324.929 135.099C325.643 135.81 326.046 136.775 326.049 137.783Z" fill="url(#paint7_linear_13_362)"/>
<path d="M335.39 137.783C335.391 138.534 335.17 139.269 334.753 139.895C334.336 140.521 333.743 141.009 333.049 141.298C332.355 141.587 331.59 141.663 330.852 141.518C330.114 141.373 329.436 141.012 328.904 140.481C328.371 139.951 328.008 139.274 327.859 138.537C327.711 137.8 327.785 137.036 328.072 136.341C328.359 135.646 328.845 135.052 329.469 134.633C330.094 134.215 330.829 133.99 331.581 133.989C332.589 133.989 333.556 134.388 334.27 135.099C334.983 135.81 335.386 136.775 335.39 137.783Z" fill="url(#paint8_linear_13_362)"/>
<path d="M316.763 238.21C316.763 238.962 316.54 239.697 316.122 240.322C315.704 240.947 315.11 241.434 314.415 241.721C313.721 242.009 312.956 242.084 312.219 241.938C311.481 241.791 310.803 241.429 310.272 240.898C309.74 240.366 309.378 239.689 309.231 238.952C309.084 238.215 309.16 237.45 309.447 236.756C309.735 236.062 310.223 235.468 310.848 235.05C311.473 234.633 312.208 234.41 312.96 234.41C313.967 234.41 314.932 234.81 315.644 235.521C316.356 236.233 316.756 237.197 316.756 238.204L316.763 238.21Z" fill="url(#paint9_linear_13_362)"/>
<path d="M162.43 242.004C164.526 242.004 166.226 240.305 166.226 238.21C166.226 236.115 164.526 234.417 162.43 234.417C160.334 234.417 158.634 236.115 158.634 238.21C158.634 240.305 160.334 242.004 162.43 242.004Z" fill="#FF63A8"/>
<path d="M326.049 238.21C326.049 238.962 325.826 239.697 325.408 240.322C324.991 240.947 324.397 241.434 323.702 241.721C323.007 242.009 322.243 242.084 321.505 241.938C320.767 241.791 320.09 241.429 319.558 240.898C319.026 240.366 318.664 239.689 318.518 238.952C318.371 238.215 318.446 237.45 318.734 236.756C319.022 236.062 319.509 235.468 320.134 235.05C320.76 234.633 321.495 234.41 322.247 234.41C323.254 234.41 324.219 234.81 324.931 235.521C325.643 236.233 326.043 237.197 326.043 238.204L326.049 238.21Z" fill="url(#paint10_linear_13_362)"/>
<path d="M335.39 238.21C335.39 238.962 335.167 239.697 334.749 240.322C334.331 240.947 333.737 241.434 333.043 241.721C332.348 242.009 331.583 242.084 330.846 241.938C330.108 241.791 329.431 241.429 328.899 240.898C328.367 240.366 328.005 239.689 327.858 238.952C327.711 238.215 327.787 237.45 328.075 236.756C328.362 236.062 328.85 235.468 329.475 235.05C330.1 234.633 330.835 234.41 331.588 234.41C332.594 234.41 333.56 234.81 334.271 235.521C334.983 236.233 335.383 237.197 335.383 238.204L335.39 238.21Z" fill="url(#paint11_linear_13_362)"/>
<path d="M485.61 136.149C484.549 140.483 485.968 146.49 483.955 150.466C480.578 157.149 470.704 161.583 469.245 168.921C469.157 169.346 458.169 174.638 452.502 172.829C449.537 171.891 448.031 169.002 450.314 162.468C451.03 160.443 455.042 159.687 456.122 157.803L455.899 157.635C450.415 153.497 449.821 144.728 450.955 138.876C452.09 133.024 454.69 127.401 457.48 122.055C459.627 117.937 464.477 115.703 469.123 115.777C474.966 115.879 481.132 118.214 484.171 123.202C486.494 127.003 486.663 131.816 485.61 136.149Z" fill="url(#paint12_linear_13_362)"/>
<path d="M458.621 104.626C455.629 106.206 452.448 108.069 449.098 107.563C449.012 108.367 449.143 109.179 449.478 109.915C449.813 110.652 450.339 111.284 451.003 111.748L448.923 112.213C448.837 112.219 448.754 112.244 448.679 112.286C448.605 112.328 448.54 112.386 448.49 112.456C448.464 112.532 448.455 112.612 448.463 112.691C448.471 112.77 448.497 112.847 448.538 112.915C449.05 114.109 449.891 115.132 450.962 115.865C450.591 116.662 449.247 116.486 448.788 117.215C448.691 117.427 448.641 117.657 448.641 117.89C448.641 118.123 448.691 118.353 448.788 118.565C449.252 119.824 450.045 120.936 451.084 121.785C449.841 123.135 450.618 125.632 452.333 126.247C453.215 126.493 454.158 126.393 454.969 125.968C455.78 125.542 456.398 124.824 456.696 123.958C456.773 124.739 456.593 125.524 456.183 126.193C461.85 127.084 467.908 127.921 473.122 125.518C472.877 126.057 472.744 126.64 472.73 127.232C473.988 127.626 475.323 127.709 476.62 127.475C476.89 130.256 476.641 133.062 475.884 135.751C475.418 137.425 474.749 139.045 474.452 140.753C474.063 142.483 474.372 144.297 475.31 145.802C476.208 145.721 476.843 144.877 477.188 144.047C477.436 143.182 477.812 142.358 478.302 141.603C479.653 140.024 482.462 140.604 483.55 142.352C484.637 144.101 484.225 146.45 483.185 148.211C482.542 149.25 481.692 150.146 480.688 150.843C479.685 151.539 478.548 152.022 477.35 152.262C477.546 154.145 477.748 156.028 477.944 157.905C481.503 154.53 485.488 151.634 488.689 147.941C491.891 144.249 494.315 139.524 493.903 134.651C493.654 131.647 492.343 128.792 492.242 125.774C492.195 124.424 492.397 123.04 492.343 121.677C492.218 119.504 491.456 117.416 490.154 115.673C488.851 113.929 487.064 112.606 485.015 111.869C483.293 111.282 481.395 111.113 479.869 110.121C477.971 108.892 476.985 106.604 475.101 105.348C473.074 103.998 469.927 103.445 467.57 102.777C464.504 101.926 461.316 103.215 458.621 104.626Z" fill="#3F3D56"/>
<path d="M416.133 168.495C415.892 168.643 415.684 168.839 415.524 169.072C415.363 169.304 415.253 169.568 415.201 169.845C415.227 170.136 415.348 170.411 415.544 170.627C415.74 170.844 416.001 170.991 416.288 171.047C416.865 171.148 417.458 171.121 418.024 170.966L421.455 170.291C419.602 171.326 418.065 172.842 417.004 174.679C416.879 174.89 416.818 175.134 416.829 175.379C416.839 175.625 416.921 175.862 417.065 176.062C417.524 176.643 418.301 176.413 418.922 176.17L421.9 174.982L419.874 176.947C419.244 177.513 418.694 178.162 418.24 178.877C418.043 179.211 417.897 179.573 417.807 179.95C417.752 180.188 417.791 180.438 417.918 180.648C418.044 180.857 418.247 181.009 418.483 181.071C418.637 181.118 418.802 181.118 418.956 181.071C420.194 180.72 421.344 180.113 422.333 179.289C421.602 180.316 420.786 181.28 419.894 182.171C419.002 183.069 418.498 184.281 418.49 185.546C418.493 185.682 418.538 185.814 418.618 185.924C418.717 186.024 418.849 186.087 418.989 186.1C420.09 186.282 421.09 185.479 421.921 184.75L424.98 181.975C425.473 181.572 425.907 181.102 426.27 180.578C426.473 180.276 426.587 179.923 426.601 179.559C426.57 179.203 426.399 178.874 426.126 178.643C425.852 178.413 425.499 178.3 425.142 178.33C424.926 178.352 424.718 178.423 424.534 178.54C424.622 177.952 424.852 177.406 424.994 176.832C425.168 176.266 425.13 175.656 424.886 175.117C424.754 174.854 424.528 174.65 424.253 174.546C423.977 174.442 423.672 174.446 423.4 174.557C423.758 173.854 423.987 173.093 424.075 172.309C424.111 171.913 424.037 171.515 423.862 171.158C423.687 170.801 423.417 170.499 423.082 170.284C422.898 170.209 422.729 170.101 422.582 169.967C422.312 169.636 422.528 169.164 422.643 168.752C422.732 168.51 422.771 168.252 422.76 167.994C422.749 167.737 422.687 167.484 422.578 167.25C422.468 167.016 422.314 166.806 422.124 166.632C421.934 166.457 421.711 166.322 421.468 166.234C421.195 166.138 420.905 166.101 420.617 166.126C418.875 166.308 417.423 167.402 416.133 168.495Z" fill="url(#paint13_linear_13_362)"/>
<path d="M471.548 193.856C479.315 186.997 488.933 192.195 485.556 201.989C478.255 223.178 462.971 271.724 448.457 271.724C429.546 271.724 421.9 238.21 421.9 238.21L430.633 220.545C430.633 220.545 442.986 247.633 449.206 240.303C455.427 232.972 459.101 205.202 471.19 194.173L471.548 193.856Z" fill="#6C63FF"/>
<path d="M427.769 219.378C427.655 217.805 427.628 216.228 427.688 214.653C427.648 207.777 425.617 201.06 421.84 195.314C421.442 195.884 421.271 196.582 421.36 197.271L421.461 215.199C421.521 216.686 421.422 218.175 421.164 219.641C420.935 220.707 420.543 221.727 420.239 222.78C419.597 224.968 419.368 227.257 419.564 229.53C419.622 230.75 419.952 231.942 420.529 233.019C420.826 233.554 421.245 234.011 421.752 234.354C422.259 234.696 422.84 234.914 423.447 234.991C423.845 234.991 425.473 231.615 425.71 231.156C426.434 229.806 427.11 228.445 427.736 227.073C428.202 226.033 429.195 224.501 429.019 223.333C428.823 222.024 427.932 220.815 427.769 219.378Z" fill="url(#paint14_linear_13_362)"/>
<path d="M463.862 162.38C462.228 164.216 460.607 166.059 458.972 167.901C457.724 169.472 456.238 170.838 454.569 171.952C453.92 172.335 453.226 172.634 452.502 172.843C449.537 171.904 448.031 169.015 450.314 162.481C451.03 160.456 455.042 159.7 456.122 157.817L455.899 157.648C456.676 158.014 457.495 158.282 458.337 158.445C460.093 158.708 464.416 157.344 464.949 159.943C465.139 160.841 464.504 161.685 463.862 162.38Z" fill="url(#paint15_linear_13_362)"/>
<path d="M267.48 303.754L274.288 314.324C274.592 314.795 275.071 315.126 275.619 315.245C276.167 315.364 276.74 315.261 277.212 314.959C277.38 314.846 277.532 314.712 277.665 314.56L296.413 292.96C296.679 292.656 296.851 292.281 296.91 291.881C296.968 291.481 296.91 291.073 296.743 290.705C296.576 290.337 296.306 290.025 295.966 289.806C295.626 289.587 295.231 289.471 294.826 289.47H294.671C294.362 289.47 294.056 289.537 293.776 289.668C293.496 289.799 293.248 289.989 293.05 290.226L278.38 307.777C278.024 308.204 277.513 308.473 276.958 308.525C276.404 308.577 275.852 308.407 275.422 308.053C275.26 307.917 275.119 307.758 275.004 307.581L271.012 301.506C270.79 301.169 270.476 300.903 270.107 300.74C269.739 300.576 269.331 300.521 268.932 300.581C268.595 300.638 268.278 300.776 268.007 300.984C267.736 301.191 267.519 301.461 267.376 301.771C267.233 302.081 267.168 302.421 267.186 302.762C267.204 303.102 267.305 303.434 267.48 303.727V303.754Z" fill="#FF63A8"/>
<path d="M185.508 357.207L194.079 365.638C194.38 365.935 194.586 366.316 194.671 366.73C194.756 367.145 194.715 367.575 194.555 367.967C194.394 368.358 194.12 368.693 193.768 368.929C193.417 369.165 193.003 369.29 192.579 369.29H192.215C191.648 369.29 191.105 369.067 190.702 368.669L182.361 360.326C181.959 359.927 181.417 359.704 180.851 359.704C180.285 359.704 179.743 359.927 179.342 360.326L171.001 368.669C170.803 368.866 170.568 369.023 170.309 369.129C170.051 369.236 169.774 369.291 169.495 369.29H169.123C168.7 369.29 168.286 369.165 167.934 368.929C167.582 368.693 167.309 368.358 167.148 367.967C166.987 367.575 166.946 367.145 167.031 366.73C167.116 366.316 167.322 365.935 167.624 365.638L176.201 357.207C176.599 356.81 176.822 356.271 176.822 355.709C176.822 355.147 176.599 354.608 176.201 354.21L167.543 345.557C167.245 345.259 167.043 344.879 166.961 344.466C166.879 344.053 166.922 343.625 167.083 343.236C167.244 342.847 167.516 342.514 167.866 342.28C168.216 342.045 168.628 341.92 169.049 341.919C169.607 341.917 170.143 342.135 170.541 342.526L179.321 351.18C179.721 351.572 180.258 351.791 180.817 351.791C181.377 351.791 181.914 351.572 182.313 351.18L191.093 342.526C191.492 342.135 192.028 341.917 192.586 341.919C193.008 341.918 193.42 342.043 193.771 342.277C194.122 342.511 194.396 342.844 194.558 343.233C194.719 343.622 194.762 344.051 194.681 344.464C194.599 344.878 194.397 345.258 194.099 345.557L185.44 354.21C185.048 354.613 184.832 355.155 184.84 355.717C184.847 356.279 185.078 356.815 185.481 357.207H185.508Z" fill="#FF63A8"/>
<path d="M109.074 330.7H111.168L112.215 377.991L111.168 370.201H109.074V330.7Z" fill="#6C63FF"/>
<path d="M111.168 347.94V347.994C111.168 349.472 110.641 350.95 110.081 352.719C106.393 353.785 103.935 354.642 100.315 350.903C96.6945 347.163 92.9596 339.934 94.1415 336.282C97.8292 335.216 105.015 339.097 108.642 342.837C110.52 344.747 111.155 346.347 111.168 347.94Z" fill="#6C63FF"/>
<path d="M121.968 350.93C118.645 354.15 116.308 353.718 113.262 352.746V370.201H111.168V330.7H113.262V343.262C113.458 343.046 113.667 342.83 113.897 342.587C117.638 338.969 124.872 335.229 128.526 336.417C129.599 340.123 125.709 347.305 121.968 350.93Z" fill="#6C63FF"/>
<path d="M121.968 350.93C118.645 354.15 116.308 353.718 113.262 352.746V370.201H111.168V330.7H113.262V343.262C113.458 343.046 113.667 342.83 113.897 342.587C117.638 338.969 124.872 335.229 128.526 336.417C129.599 340.123 125.709 347.305 121.968 350.93Z" fill="url(#paint16_linear_13_362)"/>
<path d="M111.168 321.162H101.821C101.821 327.797 106.001 333.177 111.161 333.177L113.363 327.284L111.168 321.162Z" fill="#6C63FF"/>
<path d="M111.33 323.464L111.168 323.579V322.904L111.33 323.464Z" fill="#6C63FF"/>
<path d="M93.4729 307.628C92.291 311.28 96.0259 318.516 99.6527 322.249C103.28 325.982 105.731 325.138 109.412 324.065C110.594 320.413 111.6 317.922 107.973 314.182C104.347 310.443 97.1605 306.562 93.4729 307.628Z" fill="#6C63FF"/>
<path d="M121.299 322.296C120.988 322.6 120.684 322.87 120.387 323.113C119.664 328.823 115.808 333.177 111.168 333.177V323.579L111.33 323.464L111.168 322.897V323.572C110.956 323.723 110.73 323.854 110.493 323.963C107.17 322.04 104.482 315.917 104.698 310.713C104.914 305.509 107.534 297.814 110.992 296.139C114.315 298.063 116.483 305.927 116.288 311.138V311.523C120.117 308.897 125.068 306.886 127.884 307.797C128.931 311.496 125.034 318.671 121.299 322.296Z" fill="#6C63FF"/>
<path d="M121.299 322.296C120.988 322.6 120.684 322.87 120.387 323.113C119.664 328.823 115.808 333.177 111.168 333.177V323.579L111.33 323.464L111.168 322.897V323.572C110.956 323.723 110.73 323.854 110.493 323.963C107.17 322.04 104.482 315.917 104.698 310.713C104.914 305.509 107.534 297.814 110.992 296.139C114.315 298.063 116.483 305.927 116.288 311.138V311.523C120.117 308.897 125.068 306.886 127.884 307.797C128.931 311.496 125.034 318.671 121.299 322.296Z" fill="url(#paint17_linear_13_362)"/>
<path d="M111.33 323.464L111.168 323.579V322.904L111.33 323.464Z" fill="#6C63FF"/>
<path d="M92.6962 364.174L95.9921 390.796H111.236L117.463 375.649L111.236 363.431L92.6962 364.174Z" fill="#6C63FF"/>
<path d="M129.782 364.174L126.486 390.796H111.236V363.431L129.782 364.174Z" fill="#6C63FF"/>
<path d="M118.03 363.613L117.861 363.694L112.688 366.259L111.276 366.975H90.6836C90.062 366.975 89.4659 366.728 89.0264 366.289C88.5869 365.85 88.34 365.254 88.34 364.633V358.679C88.3373 358.403 88.389 358.13 88.4921 357.874C88.5952 357.618 88.7477 357.385 88.9408 357.189C89.134 356.992 89.3641 356.835 89.6179 356.727C89.8717 356.619 90.1443 356.562 90.4202 356.559H90.616L111.276 356.6L118.03 363.613Z" fill="#6C63FF"/>
<path d="M118.03 363.613L117.861 363.694L112.688 366.259L111.276 366.975H90.6836C90.062 366.975 89.4659 366.728 89.0264 366.289C88.5869 365.85 88.34 365.254 88.34 364.633V358.679C88.3373 358.403 88.389 358.13 88.4921 357.874C88.5952 357.618 88.7477 357.385 88.9408 357.189C89.134 356.992 89.3641 356.835 89.6179 356.727C89.8717 356.619 90.1443 356.562 90.4202 356.559H90.616L111.276 356.6L118.03 363.613Z" fill="url(#paint18_linear_13_362)"/>
<path d="M131.794 366.975H111.236V356.337H131.794C132.416 356.337 133.012 356.583 133.452 357.023C133.891 357.462 134.138 358.058 134.138 358.679V364.633C134.138 365.254 133.891 365.85 133.452 366.289C133.012 366.728 132.416 366.975 131.794 366.975Z" fill="#6C63FF"/>
<path d="M111.242 366.975V390.796H95.9921L93.0406 366.975H111.242Z" fill="url(#paint19_linear_13_362)"/>
<path d="M129.437 366.975L126.486 390.796H111.242V366.975H129.437Z" fill="url(#paint20_linear_13_362)"/>
<path d="M134.138 358.949V364.903C134.138 365.524 133.891 366.119 133.452 366.559C133.012 366.998 132.416 367.245 131.794 367.245H111.276V356.607H131.828C132.444 356.616 133.031 356.866 133.464 357.305C133.896 357.743 134.138 358.334 134.138 358.949Z" fill="url(#paint21_linear_13_362)"/>
<path opacity="0.18" d="M97.7684 390.83L59.0281 398.255C58.7018 398.258 58.3795 398.328 58.0814 398.461C57.7834 398.593 57.5158 398.786 57.2955 399.027C57.0752 399.267 56.9069 399.551 56.801 399.859C56.695 400.168 56.6538 400.495 56.6798 400.82C56.7058 401.145 56.7986 401.462 56.9522 401.749C57.1059 402.037 57.3172 402.29 57.573 402.493C57.8288 402.695 58.1235 402.843 58.439 402.927C58.7544 403.011 59.0837 403.029 59.4063 402.98H59.5212H497.078C497.694 403.005 498.296 402.789 498.756 402.378C499.216 401.967 499.497 401.393 499.54 400.778C499.583 400.163 499.385 399.555 498.987 399.084C498.589 398.613 498.023 398.315 497.409 398.255L440.94 391.154H440.615L98.2614 390.816C98.097 390.804 97.9318 390.808 97.7684 390.83Z" fill="#1D2741"/>
</g>
<defs>
<linearGradient id="paint0_linear_13_362" x1="451.32" y1="191.331" x2="335.944" y2="408.555" gradientUnits="userSpaceOnUse">
<stop stop-opacity="0"/>
<stop offset="0.91" stop-opacity="0.8"/>
<stop offset="1"/>
</linearGradient>
<linearGradient id="paint1_linear_13_362" x1="112396" y1="32243.3" x2="105352" y2="115808" gradientUnits="userSpaceOnUse">
<stop stop-opacity="0"/>
<stop offset="0.91" stop-opacity="0.8"/>
<stop offset="1"/>
</linearGradient>
<linearGradient id="paint2_linear_13_362" x1="262.279" y1="14.1482" x2="265.322" y2="61.2774" gradientUnits="userSpaceOnUse">
<stop offset="0.01"/>
<stop offset="0.1" stop-opacity="0.77"/>
<stop offset="0.99" stop-opacity="0"/>
</linearGradient>
<linearGradient id="paint3_linear_13_362" x1="12215.4" y1="164002" x2="-10244.2" y2="164010" gradientUnits="userSpaceOnUse">
<stop stop-opacity="0"/>
<stop offset="0.91" stop-opacity="0.8"/>
<stop offset="1"/>
</linearGradient>
<linearGradient id="paint4_linear_13_362" x1="4888.12" y1="105759" x2="1947.49" y2="105767" gradientUnits="userSpaceOnUse">
<stop stop-opacity="0"/>
<stop offset="0.91" stop-opacity="0.8"/>
<stop offset="1"/>
</linearGradient>
<linearGradient id="paint5_linear_13_362" x1="312.751" y1="84.7337" x2="314.019" y2="103.992" gradientUnits="userSpaceOnUse">
<stop stop-color="#183866"/>
<stop offset="1" stop-color="#1A7FC1"/>
</linearGradient>
<linearGradient id="paint6_linear_13_362" x1="3596.8" y1="2941.65" x2="3611.08" y2="3158.57" gradientUnits="userSpaceOnUse">
<stop stop-color="#183866"/>
<stop offset="1" stop-color="#1A7FC1"/>
</linearGradient>
<linearGradient id="paint7_linear_13_362" x1="3710.69" y1="2941.65" x2="3724.9" y2="3158.57" gradientUnits="userSpaceOnUse">
<stop stop-color="#183866"/>
<stop offset="1" stop-color="#1A7FC1"/>
</linearGradient>
<linearGradient id="paint8_linear_13_362" x1="3825.18" y1="2941.65" x2="3839.39" y2="3158.57" gradientUnits="userSpaceOnUse">
<stop stop-color="#183866"/>
<stop offset="1" stop-color="#1A7FC1"/>
</linearGradient>
<linearGradient id="paint9_linear_13_362" x1="3596.74" y1="4172.82" x2="3611.02" y2="4389.74" gradientUnits="userSpaceOnUse">
<stop stop-color="#183866"/>
<stop offset="1" stop-color="#1A7FC1"/>
</linearGradient>
<linearGradient id="paint10_linear_13_362" x1="3710.67" y1="4172.82" x2="3724.87" y2="4389.74" gradientUnits="userSpaceOnUse">
<stop stop-color="#183866"/>
<stop offset="1" stop-color="#1A7FC1"/>
</linearGradient>
<linearGradient id="paint11_linear_13_362" x1="3825.18" y1="4172.82" x2="3839.39" y2="4389.74" gradientUnits="userSpaceOnUse">
<stop stop-color="#183866"/>
<stop offset="1" stop-color="#1A7FC1"/>
</linearGradient>
<linearGradient id="paint12_linear_13_362" x1="495.68" y1="157.149" x2="432.993" y2="132.689" gradientUnits="userSpaceOnUse">
<stop stop-color="#ECC4D7"/>
<stop offset="0.16" stop-color="#EDCBD5"/>
<stop offset="0.42" stop-color="#EFD4D1"/>
<stop offset="0.7" stop-color="#F2EAC9"/>
</linearGradient>
<linearGradient id="paint13_linear_13_362" x1="415.201" y1="176.123" x2="426.635" y2="176.123" gradientUnits="userSpaceOnUse">
<stop stop-color="#ECC4D7"/>
<stop offset="0.42" stop-color="#EFD4D1"/>
<stop offset="1" stop-color="#F2EAC9"/>
</linearGradient>
<linearGradient id="paint14_linear_13_362" x1="6053.77" y1="19587" x2="6188.62" y2="19587" gradientUnits="userSpaceOnUse">
<stop stop-color="#ECC4D7"/>
<stop offset="0.42" stop-color="#EFD4D1"/>
<stop offset="1" stop-color="#F2EAC9"/>
</linearGradient>
<linearGradient id="paint15_linear_13_362" x1="10529.1" y1="6520.76" x2="9947.56" y2="7229.87" gradientUnits="userSpaceOnUse">
<stop stop-color="#ECC4D7"/>
<stop offset="0.42" stop-color="#EFD4D1"/>
<stop offset="1" stop-color="#F2EAC9"/>
</linearGradient>
<linearGradient id="paint16_linear_13_362" x1="115.599" y1="371.916" x2="119.781" y2="335.802" gradientUnits="userSpaceOnUse">
<stop offset="0.1" stop-opacity="0.77"/>
<stop offset="0.99" stop-opacity="0"/>
</linearGradient>
<linearGradient id="paint17_linear_13_362" x1="3933.81" y1="5144.74" x2="3185.91" y2="5190.72" gradientUnits="userSpaceOnUse">
<stop offset="0.1" stop-opacity="0.77"/>
<stop offset="0.99" stop-opacity="0"/>
</linearGradient>
<linearGradient id="paint18_linear_13_362" x1="103.86" y1="317.348" x2="103.118" y2="365.544" gradientUnits="userSpaceOnUse">
<stop offset="0.36" stop-opacity="0.77"/>
<stop offset="0.99" stop-opacity="0"/>
</linearGradient>
<linearGradient id="paint19_linear_13_362" x1="2278.7" y1="2028.73" x2="2313.91" y2="1126.01" gradientUnits="userSpaceOnUse">
<stop offset="0.01"/>
<stop offset="0.1" stop-opacity="0.77"/>
<stop offset="0.99" stop-opacity="0"/>
</linearGradient>
<linearGradient id="paint20_linear_13_362" x1="3002.24" y1="1897.95" x2="2342.63" y2="954.267" gradientUnits="userSpaceOnUse">
<stop offset="0.01"/>
<stop offset="0.1" stop-opacity="0.77"/>
<stop offset="0.99" stop-opacity="0"/>
</linearGradient>
<linearGradient id="paint21_linear_13_362" x1="3775.12" y1="1394.25" x2="3699.5" y2="833.009" gradientUnits="userSpaceOnUse">
<stop offset="0.1" stop-opacity="0.77"/>
<stop offset="0.99" stop-opacity="0"/>
</linearGradient>
<clipPath id="clip0_13_362">
<rect width="535" height="403" fill="white"/>
</clipPath>
</defs>
</svg>
