<svg width="986" height="363" viewBox="0 0 986 363" fill="none" xmlns="http://www.w3.org/2000/svg">
<path d="M1065.57 15.0589C963.573 -9.10777 732.473 0.0588379 608.073 70.0588C452.573 157.559 319.073 75.0588 271.573 45.0588C224.073 15.0589 -14.927 -35.9412 4.07301 91.0588C23.073 218.059 -33.927 269.559 144.573 212.559C323.073 155.559 467.573 261.559 577.573 237.059C687.573 212.559 735.573 106.059 881.573 115.559C998.373 123.159 1106.24 71.7255 1145.57 45.0588" stroke="#FF63A8" stroke-width="5"/>
<path d="M1046.57 356.559C891.573 364.059 513.073 361.459 399.073 313.059C256.573 252.559 108.573 265.559 144.573 172.559C180.573 79.5587 319.073 92.5588 399.073 70.0588C479.073 47.5588 600.573 0.0588281 729.573 15.0588C832.773 27.0588 1030.91 114.725 1117.07 157.059" stroke="#6C63FF" stroke-width="5"/>
</svg>
