<svg width="522" height="393" viewBox="0 0 522 393" fill="none" xmlns="http://www.w3.org/2000/svg">
<path opacity="0.18" d="M243.615 6.22628C211.409 9.26916 179.927 23.6525 158.389 47.781C144.835 62.9686 135.576 81.3733 125.216 98.9067C108.315 127.577 88.3461 154.329 65.6609 178.692C47.8668 197.807 28.2209 215.702 15.2041 238.33C4.17337 257.471 -1.66405 279.884 0.44279 301.828C2.54963 323.771 12.8825 345.232 29.9654 359.2C55.7306 380.219 91.6945 381.988 124.948 382.725L289.04 386.573C327.661 387.484 366.402 388.382 404.782 384.066C420.818 382.27 436.988 379.468 451.535 372.444C478.749 359.281 496.959 332.887 511.184 306.251C515.934 297.351 520.443 288.075 521.651 278.101C524.134 257.458 512.096 237.726 497.671 222.74C483.245 207.753 465.974 195.434 453.575 178.692C430.95 148.236 427.434 107.204 406.714 75.4752C376.051 28.3977 297.48 1.13248 243.615 6.22628Z" fill="#6C63FF"/>
<path d="M276.01 332.417L347.91 387.31C347.91 387.31 432.533 388.02 465.598 363.986L306.606 316.935L303.345 322.9L346.824 352.122L289.603 328.825L276.01 332.417Z" fill="url(#paint0_linear_59_51)"/>
<path d="M148.807 291.372L290.368 210.394V19.3361L148.807 100.314V291.372Z" fill="white"/>
<path opacity="0.38" d="M238.757 93.8665V150.475L278.707 125.475V70.4618L238.757 93.8665Z" fill="#6C63FF"/>
<path opacity="0.18" d="M250.003 144.939C251.251 150.166 254.391 154.724 257.585 159.054C260.779 163.384 264.133 167.713 265.972 172.767C268.119 178.705 267.998 185.193 267.851 191.534L267.394 210.863C267.427 211.723 267.285 212.58 266.978 213.383C266.382 214.372 265.516 215.172 264.482 215.689C258.189 219.643 251.627 223.732 244.246 224.616C241.924 224.911 239.455 224.911 237.402 226.037C236.244 226.67 235.304 227.636 234.703 228.81C234.102 229.984 233.869 231.311 234.034 232.619C234.256 233.92 234.918 235.106 235.91 235.979C236.901 236.853 238.162 237.36 239.482 237.418C242.34 237.418 244.622 235.206 246.916 233.49C250.754 230.897 254.931 228.845 259.329 227.391L282.679 218.437C285.296 217.432 288.114 216.252 289.389 213.772C289.861 212.767 290.156 211.687 290.261 210.582C291.791 198.718 285.779 187.311 279.955 176.842L266.884 153.223C262.738 145.783 259.115 136.976 253.921 130.26C249.372 132.941 248.902 140.354 250.003 144.939Z" fill="#6C63FF"/>
<path d="M301.104 181.373L291.026 192.284L290.435 192.043C287.953 190.997 278.425 186.963 276.318 185.475C274.211 183.987 259.665 153.303 256.806 147.284L256.31 146.239L264.214 141.386L283.659 173.558L301.104 181.373Z" fill="#6C63FF"/>
<path d="M296.34 185.582L290.435 191.976C287.953 190.93 278.425 186.895 276.318 185.408C274.211 183.92 259.665 153.236 256.806 147.217L259.49 145.595L278.935 177.767L296.34 185.582Z" fill="url(#paint1_linear_59_51)"/>
<path d="M276.01 162.097C276.016 162.572 276.155 163.037 276.412 163.437C277.074 164.781 277.427 166.256 277.445 167.754C277.302 168.963 277.445 170.188 277.861 171.333C278.472 172.19 279.236 172.926 280.116 173.504C281.1 174.343 281.877 175.398 282.384 176.587C282.813 177.593 283.377 178.933 284.477 178.826C284.852 178.772 285.198 178.593 285.457 178.316C286.179 177.526 286.691 176.568 286.946 175.528C288.557 170.569 290.073 163.893 288.825 158.705C287.819 154.577 283.35 154.603 280.854 157.365C280.114 158.463 279.209 159.439 278.17 160.26C277.459 160.729 276.157 160.998 276.01 162.097Z" fill="#FFBBAB"/>
<path d="M258.148 234.523C256.007 235.367 253.739 235.847 251.439 235.943C250.842 235.984 250.263 236.163 249.748 236.466C249.49 236.619 249.287 236.849 249.167 237.123C249.047 237.397 249.015 237.702 249.077 237.994C249.251 238.517 249.815 238.879 249.909 239.415C249.953 239.673 249.905 239.939 249.775 240.166C249.278 241.158 248.03 241.439 247.091 242.029C246.395 242.443 245.868 243.089 245.601 243.852C245.471 244.231 245.421 244.634 245.456 245.033C245.49 245.433 245.609 245.82 245.803 246.171C246.214 246.793 246.817 247.263 247.52 247.512C248.636 247.885 249.806 248.066 250.982 248.048C252.1 248.252 253.249 248.212 254.349 247.93C255.45 247.647 256.476 247.13 257.357 246.413C257.91 246.018 258.423 245.569 258.886 245.072C260.134 243.651 260.443 241.614 261.57 240.059C262.043 239.571 262.385 238.971 262.563 238.316C262.595 237.894 262.506 237.471 262.308 237.096C261.865 236.36 261.258 235.735 260.534 235.27C259.811 234.805 258.99 234.513 258.135 234.415" fill="#FFBBAB"/>
<path d="M285.645 323.074C285.645 323.074 274.265 324.013 273.997 328.825C273.728 333.637 285.712 337.753 292.354 336.238C298.997 334.723 295.374 324.723 295.374 324.723L285.645 323.074Z" fill="#6C63FF"/>
<path d="M302.647 309.603C302.647 309.603 297.507 307.284 297.507 312.284C297.507 317.283 299.238 320.487 303.345 322.86C307.451 325.232 311.839 323.463 312.081 322.27C312.322 321.077 312.376 314.227 312.376 314.227L302.647 309.603Z" fill="#6C63FF"/>
<path d="M295.374 294.08V321.962C295.37 323.049 294.936 324.09 294.167 324.858C293.398 325.627 292.355 326.06 291.267 326.064H289.603C288.71 326.054 287.844 325.759 287.131 325.221C286.418 324.683 285.897 323.93 285.645 323.074C285.552 322.752 285.503 322.418 285.497 322.082L285.121 309.83L284.786 298.664V296.841L284.719 294.08H295.374Z" fill="#FFBBAB"/>
<path d="M295.374 321.962V324.723C295.37 325.81 294.936 326.851 294.167 327.62C293.398 328.388 292.355 328.821 291.267 328.825H289.603C288.547 328.787 287.549 328.335 286.823 327.567C286.098 326.8 285.703 325.778 285.725 324.723L285.645 323.074C285.897 323.93 286.418 324.683 287.131 325.221C287.844 325.759 288.71 326.054 289.603 326.064H291.267C292.355 326.06 293.398 325.627 294.167 324.858C294.936 324.09 295.37 323.049 295.374 321.962Z" fill="white"/>
<path d="M312.376 310.058V312.82C312.372 313.906 311.939 314.948 311.169 315.716C310.4 316.485 309.358 316.918 308.27 316.922H306.606C305.55 316.883 304.551 316.431 303.826 315.664C303.1 314.897 302.706 313.875 302.727 312.82L302.647 311.171C302.901 312.039 303.432 312.8 304.158 313.34C304.885 313.879 305.768 314.167 306.673 314.16H308.216C308.759 314.165 309.298 314.063 309.802 313.86C310.305 313.656 310.764 313.355 311.15 312.974C311.537 312.593 311.844 312.139 312.055 311.638C312.265 311.138 312.374 310.601 312.376 310.058Z" fill="white"/>
<path d="M301.681 282.686L302.499 310.166C302.534 311.365 303.036 312.504 303.898 313.34C304.76 314.176 305.914 314.643 307.116 314.643H307.76C308.979 314.643 310.15 314.161 311.015 313.302C311.879 312.443 312.369 311.277 312.376 310.058V282.686H301.681Z" fill="#FFBBAB"/>
<path d="M319.918 279.442C319.139 284.013 315.463 285.796 312.457 288.718C310.175 290.943 308.713 293.075 305.747 294.562C302.891 296.043 299.773 296.954 296.568 297.243C291.156 297.616 285.818 295.827 281.726 292.27C280.508 291.376 279.526 290.198 278.868 288.839C278.459 287.707 278.241 286.516 278.224 285.313C277.177 268.128 279.74 250.943 279.646 233.732C279.69 229.524 279.362 225.321 278.667 221.171C277.808 216.493 276.197 211.976 275.231 207.311C274.023 201.507 273.03 195.247 273.889 189.308C274.896 182.606 280.465 179.603 286.074 176.976L287.752 176.199C288.717 175.696 289.753 175.344 290.825 175.153C291.799 175.055 292.783 175.146 293.723 175.421C297.102 176.414 300.1 178.404 302.325 181.131C304.527 183.859 306.359 186.865 307.773 190.072C309.383 193.222 310.385 196.646 310.725 200.166C310.725 200.515 310.725 200.863 310.725 201.225C310.725 204.174 309.8 206.869 309.384 209.791C308.941 213.129 308.511 216.493 308.042 219.818C307.468 223.177 307.315 226.595 307.585 229.992C308.1 233.146 308.96 236.234 310.148 239.201C314.074 250.423 317.164 261.92 319.394 273.597C319.913 275.499 320.09 277.478 319.918 279.442Z" fill="#6C63FF"/>
<path d="M319.918 279.442C319.139 284.013 315.463 285.796 312.457 288.718C310.175 290.943 308.713 293.075 305.747 294.562C302.891 296.043 299.773 296.954 296.568 297.243C296.242 297.048 295.948 296.804 295.696 296.52C294.802 295.293 294.391 293.78 294.542 292.27C294.636 286.359 296.823 280.702 297.762 274.844C298.796 268.356 298.272 261.734 297.762 255.179C296.93 244.804 296.094 234.433 295.253 224.067C295.167 221.689 294.752 219.334 294.018 217.07C293.062 214.965 291.94 212.939 290.664 211.011C287.134 204.791 287.899 198.799 286.342 192.244C285.001 186.735 283.659 182.579 286.141 176.976L287.819 176.199C288.784 175.696 289.82 175.344 290.892 175.153C291.866 175.055 292.85 175.146 293.79 175.421C297.169 176.414 300.168 178.404 302.392 181.131C304.594 183.859 306.426 186.865 307.84 190.072C309.45 193.222 310.452 196.646 310.793 200.166C310.793 200.515 310.793 200.863 310.793 201.225C310.793 204.174 309.867 206.869 309.451 209.791C309.008 213.129 308.578 216.493 308.109 219.818C307.535 223.177 307.382 226.595 307.652 229.992C308.168 233.146 309.027 236.234 310.216 239.201C314.141 250.423 317.231 261.92 319.461 273.597C319.957 275.503 320.112 277.482 319.918 279.442Z" fill="url(#paint2_linear_59_51)"/>
<path d="M289.308 186.735C289.308 186.735 284.786 218.571 282.397 224.268C280.008 229.965 263.852 241.372 263.852 241.372L258.484 236.506L255.988 234.241C255.988 234.241 268.36 223.785 271.447 222.177C274.533 220.568 276.439 197.231 276.412 189.563C276.385 181.896 284.195 182.311 284.195 182.311C290.019 180.193 289.308 186.735 289.308 186.735Z" fill="#6C63FF"/>
<path d="M334.531 212.914C334.251 214.365 333.657 215.737 332.79 216.934C331.923 218.131 330.804 219.125 329.513 219.844C326.604 221.729 323.181 222.666 319.716 222.525C316.23 222.366 312.942 220.857 310.551 218.316C309.777 217.324 308.943 216.38 308.055 215.488C305.519 213.249 301.761 213.142 298.661 211.681C294.206 209.55 291.63 204.697 290.717 199.858C289.805 195.019 290.261 190.032 290.247 185.113C290.373 183.331 290.016 181.548 289.214 179.952C287.617 177.271 284.853 176.292 283.846 173.075C283.82 172.965 283.82 172.85 283.846 172.74C283.894 172.652 283.961 172.576 284.042 172.518C284.124 172.46 284.217 172.421 284.316 172.405C285.017 172.232 285.675 171.918 286.248 171.48C286.529 171.251 286.735 170.944 286.84 170.598C286.945 170.252 286.945 169.882 286.839 169.536C286.771 169.374 286.666 169.229 286.532 169.115C286.398 169.001 286.238 168.92 286.066 168.879C285.895 168.839 285.716 168.84 285.545 168.882C285.373 168.923 285.214 169.005 285.081 169.121C285.604 167.673 284.45 166.239 283.739 164.912L283.444 164.362C282.415 162.231 282.219 159.793 282.894 157.526C283.03 157.179 283.107 156.812 283.122 156.44C283.065 156.049 282.961 155.667 282.813 155.301C282.263 153.451 283.471 151.52 284.947 150.274C287.146 148.572 289.818 147.59 292.597 147.463C295.377 147.335 298.127 148.069 300.473 149.563C304.714 152.351 306.136 157.821 306.928 162.821C306.971 163.372 307.156 163.903 307.465 164.362C307.757 164.667 308.108 164.909 308.498 165.073C311.021 166.239 313.866 166.748 316.12 168.424C320.146 171.413 320.709 177.043 320.696 182.003C320.683 186.963 320.535 192.418 323.675 196.252C325.23 197.855 326.908 199.334 328.694 200.676C331.066 202.791 332.866 205.47 333.928 208.464C333.995 208.638 334.048 208.826 334.115 209C334.526 210.261 334.667 211.595 334.531 212.914Z" fill="#FC682D"/>
<path d="M260.577 131.775C260.425 130.427 260.077 129.109 259.544 127.861C259.269 127.242 258.847 126.699 258.313 126.281C257.78 125.862 257.152 125.581 256.484 125.462C254.431 125.26 252.7 127.271 252.459 129.322C252.336 131.389 252.632 133.459 253.331 135.408C253.639 136.614 253.774 138.089 252.754 138.839C252.457 138.988 252.174 139.163 251.908 139.362C251.197 140.059 251.908 141.333 252.767 141.762C253.626 142.191 254.753 142.191 255.612 142.687C256.202 143.1 256.766 143.547 257.303 144.027C258.953 145.247 262.939 144.764 263.221 142.284C263.382 140.944 262.188 138.705 261.879 137.338C261.248 135.555 260.886 133.692 260.577 131.775Z" fill="#FFBBAB"/>
<path d="M289.308 186.735C289.308 186.735 284.786 218.571 282.397 224.268C280.009 229.965 263.852 241.372 263.852 241.372L258.484 236.506C262.134 233.584 273.527 224.523 276.56 222.646C280.183 220.421 284.195 182.257 284.195 182.257C290.019 180.193 289.308 186.735 289.308 186.735Z" fill="url(#paint3_linear_59_51)"/>
<path d="M334.531 212.914C334.251 214.365 333.657 215.737 332.79 216.934C331.923 218.131 330.804 219.125 329.513 219.844C326.604 221.729 323.181 222.666 319.716 222.525C316.23 222.366 312.942 220.857 310.551 218.316C309.777 217.324 308.943 216.38 308.055 215.488C305.519 213.249 301.761 213.142 298.661 211.681C294.206 209.55 291.63 204.697 290.717 199.858C289.805 195.019 290.261 190.032 290.248 185.113C290.373 183.331 290.016 181.548 289.214 179.952C287.617 177.271 284.853 176.292 283.846 173.075C283.82 172.965 283.82 172.85 283.846 172.74C285.618 174.59 288.53 175.515 290.462 177.365C293.146 179.979 293.669 184.067 294.099 187.82C294.528 191.574 295.293 195.702 298.299 197.981L299.829 195.716C300.471 198.515 301.851 201.091 303.826 203.177C305.801 205.263 308.299 206.783 311.061 207.579L313.745 202.579C313.852 206.48 314.778 210.756 317.891 213.088C322.239 216.332 331.177 215.836 333.458 210.649C333.632 210.247 333.834 209.657 334.089 209C334.508 210.26 334.659 211.593 334.531 212.914Z" fill="url(#paint4_linear_59_51)"/>
<path d="M125.511 275.018L59.9712 303.758V249.442L125.511 220.716V275.018Z" stroke="white" stroke-width="1.04373" stroke-miterlimit="10"/>
<path d="M117.929 260.126C117.874 261.693 117.356 263.209 116.44 264.482C115.553 265.814 114.299 266.862 112.83 267.498L77.8055 281.439C74.9875 282.552 72.6927 281.05 72.6927 278.088C72.745 276.506 73.2683 274.975 74.1957 273.691C75.0828 272.359 76.3364 271.312 77.8055 270.675L78.9864 270.206C78.7352 269.335 78.6087 268.432 78.6107 267.525C78.7161 264.406 79.7433 261.389 81.5629 258.852C83.3134 256.226 85.7885 254.163 88.6886 252.914L91.6543 251.734C95.5459 250.179 98.9142 251.158 100.592 253.892C101.366 253.134 102.276 252.529 103.275 252.11L104.04 251.801C107.382 250.461 110.093 252.244 110.093 255.823V256.131C110.089 256.759 110.012 257.384 109.864 257.994L112.763 256.841C115.648 255.662 117.929 257.163 117.929 260.126Z" fill="white"/>
<g opacity="0.43">
<path opacity="0.43" d="M229.149 160.676C226.573 145.676 219.756 138.049 209.141 136.024C197.063 133.705 183.912 142.244 177.015 156.788C173.181 164.569 171.778 173.322 172.989 181.909C173.955 188.611 178.853 192.432 184.288 190.836C189.723 189.241 193.829 183.263 194.098 176.654C194.105 175.565 194.038 174.477 193.896 173.397C193.635 171.262 194.022 169.097 195.008 167.185C195.994 165.273 197.533 163.7 199.425 162.673C203.035 160.984 206.712 162.673 207.812 166.829C208.616 170.223 208.766 173.74 208.255 177.19C207.345 186.378 202.969 194.875 196.017 200.957C195.614 201.306 195.198 201.614 194.809 201.989C194.387 202.386 194.101 202.904 193.99 203.472C193.88 204.039 193.95 204.627 194.192 205.153C194.271 205.37 194.405 205.562 194.58 205.713C194.756 205.863 194.967 205.965 195.194 206.009C195.421 206.054 195.655 206.039 195.874 205.967C196.094 205.894 196.291 205.766 196.446 205.595C206.47 197.82 212.455 184.241 211.905 171.024C211.923 168.4 211.469 165.794 210.563 163.33C208.322 158.062 202.767 156.105 197.976 158.88C195.32 160.563 193.205 162.976 191.887 165.829C190.568 168.682 190.101 171.854 190.542 174.965C191.226 179.898 188.649 184.751 184.503 186.346C180.584 187.874 176.934 185.314 176.371 180.434C175.621 174.878 176.104 169.226 177.786 163.877C179.467 158.528 182.305 153.614 186.1 149.483C195.426 138.933 208.711 137.137 217.702 144.965C222.023 148.719 224.546 154.094 225.553 160.863C226.271 165.825 226.339 170.858 225.754 175.837C225.754 176.145 225.66 176.467 225.647 176.775C225.647 178.115 226.183 178.933 227.123 178.933C227.653 178.87 228.141 178.614 228.493 178.213C228.845 177.812 229.035 177.295 229.028 176.762C229.317 174.417 229.487 172.059 229.538 169.697C229.511 166.199 229.243 162.74 229.149 160.676Z" fill="#6C63FF"/>
</g>
<g opacity="0.43">
<path opacity="0.43" d="M220.494 165.367C218.924 152.445 210.684 145.046 201.143 146.909C192.461 148.612 185.134 156.292 182.356 166.762C181.337 170.584 181.091 174.572 181.631 178.491C181.859 180.099 182.852 180.729 183.98 180.046C184.394 179.744 184.716 179.334 184.91 178.861C185.104 178.388 185.163 177.87 185.08 177.365C184.986 176.145 184.812 174.938 184.825 173.705C184.946 165.381 189.455 157.016 195.708 153.477C201.76 150.046 207.289 150.314 212.147 154.818C214.531 157.192 216.084 160.271 216.575 163.598C218.23 173.226 216.876 183.13 212.697 191.962C212.321 192.794 211.919 193.598 211.556 194.416C211.247 194.903 211.119 195.484 211.192 196.056C211.266 196.629 211.537 197.158 211.959 197.552C212.831 198.155 213.824 197.7 214.482 196.373C219.648 186.024 221.889 175.341 220.494 165.367Z" fill="#6C63FF"/>
</g>
<g opacity="0.43">
<path opacity="0.43" d="M191.884 128.625C183.429 132.365 174.948 140.582 169.071 153.357C168.292 155.086 167.635 156.909 166.964 158.719C166.414 160.247 166.695 161.4 167.635 161.869C168.574 162.338 169.554 161.654 170.104 160.046C173.539 150.113 178.894 142.217 186.288 136.829C198.15 128.183 209.772 126.668 220.843 134.054C222.211 135.051 223.503 136.149 224.707 137.338C224.87 137.559 225.088 137.732 225.339 137.842C225.591 137.951 225.866 137.992 226.139 137.961C226.411 137.93 226.67 137.827 226.89 137.664C227.11 137.5 227.283 137.281 227.391 137.03C227.744 136.531 227.905 135.922 227.846 135.315C227.787 134.707 227.511 134.141 227.069 133.719C222.576 128.875 216.489 125.806 209.919 125.073C204.619 124.577 199.305 125.488 191.884 128.625Z" fill="#6C63FF"/>
</g>
<g opacity="0.43">
<path opacity="0.43" d="M191.575 117.781C185.147 120.354 178.853 125.462 173.177 132.124C172.717 132.547 172.42 133.118 172.337 133.737C172.253 134.356 172.389 134.985 172.721 135.515C173.392 136.467 174.344 136.386 175.297 135.274C178.675 131.131 182.688 127.548 187.187 124.657C195.399 119.671 203.693 117.794 212.08 119.483C212.361 119.483 212.643 119.617 212.938 119.657C213.472 119.666 213.99 119.474 214.388 119.119C214.786 118.763 215.035 118.271 215.086 117.74C215.327 116.547 214.857 115.435 213.878 115.287C211.691 114.881 209.482 114.607 207.262 114.47C201.849 114.369 196.484 115.502 191.575 117.781Z" fill="#6C63FF"/>
</g>
<g opacity="0.43">
<path opacity="0.43" d="M187.979 200.046C197.869 195.877 202.74 184.59 203.102 175.636C203.139 173.845 203.058 172.054 202.861 170.274C202.726 168.812 201.868 168.142 200.875 168.504C200.349 168.785 199.932 169.232 199.689 169.776C199.446 170.32 199.391 170.929 199.533 171.507C200.429 178.018 198.701 184.619 194.728 189.858C192.572 192.814 189.525 195.003 186.033 196.105C185.214 196.386 184.369 196.547 183.537 196.802C183.007 196.984 182.555 197.34 182.255 197.813C181.955 198.286 181.825 198.846 181.886 199.402C181.886 200.609 182.691 201.386 183.765 201.145C185.134 200.877 186.556 200.434 187.979 200.046Z" fill="#6C63FF"/>
</g>
<g opacity="0.43">
<path opacity="0.43" d="M186.1 225.997C186.478 225.813 186.808 225.542 187.062 225.206C187.316 224.871 187.487 224.481 187.563 224.067C187.765 223.519 187.745 222.914 187.507 222.38C187.269 221.847 186.831 221.427 186.288 221.212C175.27 218.772 168.936 209.067 167.501 192.391C166.87 183.948 167.262 175.46 168.668 167.11C168.849 166.568 168.809 165.976 168.558 165.463C168.308 164.949 167.865 164.554 167.326 164.362C166.293 164.215 165.246 165.18 164.991 166.534C163.462 175.42 163.034 184.46 163.716 193.45C165.354 212.029 172.801 223.33 185.281 226.091C185.557 226.146 185.844 226.113 186.1 225.997Z" fill="#6C63FF"/>
</g>
<g opacity="0.43">
<path opacity="0.43" d="M191.387 224.71C194.071 223.611 204.806 218.49 210.174 206.895C210.465 206.36 210.565 205.742 210.458 205.143C210.351 204.544 210.042 203.999 209.584 203.598C208.685 203.021 207.504 203.598 206.9 204.804C201.868 215.756 190.314 220.153 190.193 220.193C189.633 220.47 189.176 220.919 188.889 221.473C188.602 222.028 188.499 222.659 188.596 223.276C188.77 224.616 189.75 225.327 190.797 224.938L191.387 224.71Z" fill="#6C63FF"/>
</g>
<g opacity="0.43">
<path opacity="0.43" d="M207.933 222.364C208.122 222.29 208.295 222.181 208.443 222.043C222.627 210.247 228.277 186.52 228.505 185.528C228.705 184.98 228.686 184.375 228.451 183.841C228.216 183.306 227.783 182.883 227.244 182.66C226.224 182.432 225.15 183.343 224.842 184.684C224.761 185.005 219.38 207.472 206.658 217.995C206.188 218.418 205.859 218.975 205.715 219.591C205.571 220.207 205.619 220.852 205.853 221.44C205.921 221.642 206.03 221.829 206.174 221.987C206.318 222.146 206.494 222.272 206.689 222.359C206.885 222.446 207.097 222.492 207.311 222.493C207.525 222.494 207.737 222.45 207.933 222.364Z" fill="#6C63FF"/>
</g>
<g opacity="0.43">
<path opacity="0.43" d="M188.099 211.936C189.119 211.51 190.095 210.984 191.011 210.367C191.516 209.985 191.891 209.458 192.085 208.856C192.28 208.254 192.284 207.607 192.098 207.003C192.047 206.741 191.929 206.496 191.758 206.292C191.586 206.088 191.365 205.93 191.116 205.834C190.867 205.737 190.598 205.705 190.333 205.741C190.068 205.777 189.817 205.879 189.602 206.037C187.703 207.408 185.41 208.126 183.067 208.082C180.724 208.039 178.459 207.236 176.612 205.796C175.78 205.099 174.572 205.474 173.928 206.641C173.6 207.161 173.451 207.774 173.505 208.386C173.558 208.998 173.81 209.577 174.224 210.032C176.152 211.564 178.459 212.549 180.9 212.884C183.342 213.219 185.828 212.892 188.099 211.936Z" fill="#6C63FF"/>
</g>
<defs>
<linearGradient id="paint0_linear_59_51" x1="191.494" y1="226.493" x2="538.85" y2="467.637" gradientUnits="userSpaceOnUse">
<stop offset="0.01"/>
<stop offset="0.13" stop-opacity="0.69"/>
<stop offset="0.25" stop-opacity="0.32"/>
<stop offset="1" stop-opacity="0"/>
</linearGradient>
<linearGradient id="paint1_linear_59_51" x1="8299.48" y1="7297.46" x2="9239.6" y2="5822.94" gradientUnits="userSpaceOnUse">
<stop offset="0.01"/>
<stop offset="0.13" stop-opacity="0.69"/>
<stop offset="0.25" stop-opacity="0.32"/>
<stop offset="1" stop-opacity="0"/>
</linearGradient>
<linearGradient id="paint2_linear_59_51" x1="10141.7" y1="21386.4" x2="5653.39" y2="21733.6" gradientUnits="userSpaceOnUse">
<stop offset="0.01"/>
<stop offset="0.13" stop-opacity="0.69"/>
<stop offset="0.25" stop-opacity="0.32"/>
<stop offset="1" stop-opacity="0"/>
</linearGradient>
<linearGradient id="paint3_linear_59_51" x1="9725.32" y1="11345.6" x2="2818.39" y2="10661.6" gradientUnits="userSpaceOnUse">
<stop offset="0.01"/>
<stop offset="0.13" stop-opacity="0.69"/>
<stop offset="0.25" stop-opacity="0.32"/>
<stop offset="1" stop-opacity="0"/>
</linearGradient>
<linearGradient id="paint4_linear_59_51" x1="11503.8" y1="8891.07" x2="13119.4" y2="7038.62" gradientUnits="userSpaceOnUse">
<stop offset="0.01"/>
<stop offset="0.13" stop-opacity="0.69"/>
<stop offset="0.25" stop-opacity="0.32"/>
<stop offset="1" stop-opacity="0"/>
</linearGradient>
</defs>
</svg>
