<svg width="542" height="408" viewBox="0 0 542 408" fill="none" xmlns="http://www.w3.org/2000/svg">
<g clip-path="url(#clip0_13_1056)">
<path opacity="0.18" d="M330.204 17.9256C352.897 29.6822 371.731 47.4673 389.36 66.2231C413.244 91.65 443.685 109.449 471.483 130.036C503.033 153.385 533.268 183.351 540.371 221.956C543.396 238.361 541.945 255.38 538.291 271.675C534.118 290.846 526.598 309.134 516.076 325.701C494.451 359.166 459.726 383.226 421.635 395.16C383.543 407.094 342.44 407.463 303.322 399.698C282.887 395.666 262.699 389.446 241.867 388.912C226.085 388.502 210.386 391.373 194.796 393.451C146.782 399.849 95.6326 398.29 53.1475 375.051C26.6216 360.396 3.44918 335.379 0.369552 305.195C-3.16175 270.609 19.1621 240.807 41.7734 217.24C60.2314 198.087 76.3154 176.786 89.6786 153.796C95.5915 143.72 101.669 135.737 105.296 124.295C108.772 113.359 110.921 102.026 115.014 91.2672C119.696 79.0284 126.885 67.9004 136.119 58.595C151.093 43.5576 170.639 33.9883 189.773 24.7335C200.997 19.2653 212.248 13.8792 224.073 9.99682C251.389 1.10963 280.769 0.756721 308.291 8.98521C315.857 11.2809 323.193 14.2739 330.204 17.9256Z" fill="#4A43B7"/>
<path d="M270.541 355.857C272.652 356.381 274.614 357.382 276.276 358.783C280.602 362.884 278.494 370.731 273.703 374.299C268.913 377.867 262.589 378.4 256.635 378.933C236.858 380.626 217.188 383.392 197.712 387.217C178.755 390.949 159.524 395.679 140.061 394.968C133.218 394.722 116.382 394.394 111.441 388.844C105.09 381.708 118.654 373.438 124.307 369.528C147.576 353.383 174.868 357.047 201.763 352.987C224.552 349.542 248.355 348.708 270.541 355.857Z" fill="url(#paint0_linear_13_1056)"/>
<path d="M366.763 316.979C363.601 317.963 360.384 319.549 358.673 322.379C357.84 324.052 357.179 325.807 356.703 327.614C355.575 330.77 353.763 333.638 351.397 336.013C349.031 338.388 346.169 340.211 343.015 341.353C341.209 341.996 339.183 342.502 338.061 344.087C337.524 344.94 337.252 345.931 337.276 346.938C337.3 347.944 337.621 348.921 338.197 349.747C339.382 351.372 340.992 352.64 342.851 353.41C349.517 356.527 357.277 356.527 364.504 355.106C371.731 353.684 378.616 351.004 385.637 348.722C394.717 345.861 404.048 343.87 413.504 342.775C420.991 341.914 428.56 341.599 435.787 339.303C443.014 337.006 449.83 332.344 452.595 325.345C443.644 316.172 429.327 315.065 416.584 316.049C400.283 317.28 382.736 312.03 366.763 316.979Z" fill="url(#paint1_linear_13_1056)"/>
<path d="M49.493 303.828C46.3312 304.826 43.1147 306.398 41.4038 309.228C40.5657 310.901 39.9007 312.655 39.4192 314.464C38.2983 317.623 36.4891 320.494 34.1221 322.87C31.7551 325.246 28.8894 327.067 25.732 328.202C23.9389 328.845 21.9132 329.351 20.7772 330.936C20.2478 331.791 19.9789 332.781 20.0033 333.786C20.0276 334.791 20.344 335.767 20.9141 336.596C22.0929 338.232 23.7109 339.502 25.5814 340.26C32.2471 343.376 40.0077 343.376 47.2346 341.955C54.4614 340.533 61.3461 337.854 68.3676 335.571C77.4469 332.71 86.778 330.719 96.2348 329.624C103.708 328.763 111.291 328.448 118.518 326.165C125.744 323.882 132.561 319.193 135.325 312.194C126.374 303.021 112.057 301.914 99.3144 302.898C82.9993 304.088 65.4522 298.784 49.493 303.828Z" fill="url(#paint2_linear_13_1056)"/>
<path d="M181.725 285.455C173.376 286.959 164.808 288.599 157.608 293.083C155.131 294.614 152.722 296.76 152.366 299.618C151.969 302.803 154.378 305.783 157.293 307.123C160.312 308.249 163.537 308.715 166.751 308.49L204.336 308.722L232.163 308.886C235.53 308.886 239.403 308.394 242.715 308.886C248.779 309.898 254.035 312.85 260.509 313.151C268.844 313.548 277.152 312.003 285.296 310.417C290.388 309.433 295.603 308.394 300.051 305.701C301.844 304.621 303.637 302.967 303.5 300.861C303.311 299.6 302.687 298.444 301.735 297.594C295.397 291.06 285.009 291.593 276.126 289.583C266.682 287.437 258.155 281.996 248.587 280.411C244.196 279.837 239.76 279.672 235.338 279.918C227.44 280.11 219.461 279.057 211.673 280.274C201.654 281.955 191.703 283.787 181.725 285.455Z" fill="url(#paint3_linear_13_1056)"/>
<path d="M232.71 272.468C225.702 270.882 227.071 280.821 225.223 284.498C224.07 286.382 222.608 288.06 220.898 289.46C219.177 290.876 218.053 292.887 217.75 295.093C217.706 295.505 217.792 295.921 217.996 296.282C218.335 296.72 218.821 297.021 219.365 297.129C223.366 298.293 227.662 297.866 231.355 295.94C233.081 295.116 234.513 293.785 235.461 292.126C236.226 290.345 236.586 288.417 236.515 286.48C236.72 282.338 238.554 273.753 232.71 272.468Z" fill="#FDB9A9"/>
<path d="M226.455 292.892C226.455 292.892 206.513 293.739 214.958 300C223.403 306.261 236.036 298.483 237.295 296.993C238.554 295.503 237.528 293.124 237.528 293.124L226.455 292.892Z" fill="#4A43B7"/>
<path d="M236.433 295.626C234.654 297.786 225.278 300.697 221.144 300.397C217.011 300.096 213.274 298.168 213.671 295.489C214.068 292.81 221.404 286.59 222.787 286.603C224.169 286.617 225.25 289.802 228.029 290.458C229.264 290.666 230.531 290.553 231.71 290.132C232.889 289.711 233.94 288.995 234.763 288.052C235.015 287.707 235.379 287.459 235.794 287.352C236.208 287.245 236.647 287.284 237.035 287.464C237.603 288.772 237.844 290.198 237.739 291.619C237.635 293.04 237.186 294.415 236.433 295.626Z" fill="white"/>
<path d="M256.745 276.391C249.737 274.765 251.106 284.689 249.258 288.367C248.108 290.258 246.646 291.94 244.933 293.343C243.221 294.766 242.1 296.773 241.785 298.975C241.741 299.387 241.827 299.803 242.031 300.164C242.37 300.602 242.856 300.903 243.4 301.012C247.401 302.168 251.694 301.742 255.39 299.823C257.109 298.989 258.539 297.66 259.496 296.008C260.261 294.228 260.621 292.299 260.55 290.363C260.755 286.179 262.589 277.635 256.745 276.391Z" fill="#FDB9A9"/>
<path d="M250.544 296.733C250.544 296.733 230.602 297.567 239.047 303.842C247.492 310.116 260.112 302.311 261.33 300.889C262.548 299.467 261.563 297.006 261.563 297.006L250.544 296.733Z" fill="#4A43B7"/>
<path d="M260.468 299.44C258.688 301.613 249.326 304.512 245.179 304.224C241.032 303.937 237.309 301.996 237.706 299.317C238.103 296.637 245.439 290.404 246.822 290.431C248.204 290.458 249.299 293.63 252.064 294.272C253.301 294.48 254.57 294.367 255.751 293.946C256.932 293.525 257.986 292.809 258.812 291.866C259.061 291.522 259.423 291.275 259.835 291.167C260.247 291.06 260.684 291.099 261.07 291.279C261.637 292.586 261.879 294.012 261.774 295.433C261.669 296.855 261.221 298.229 260.468 299.44Z" fill="white"/>
<path d="M238.678 186.058L248.053 284.484L261.549 282.817C266.887 258.798 265.573 186.905 265.573 186.905L238.678 186.058Z" fill="#473F47"/>
<path d="M248.053 183.392L238.678 281.819L225.086 280.192C217.367 217.882 223.718 179.031 223.718 179.031L248.053 183.392Z" fill="#473F47"/>
<path d="M224.977 147.781C224.812 145.976 224.333 144.185 224.142 142.312C223.704 138.593 223.773 134.831 224.347 131.13C224.984 127.196 226.172 123.372 227.878 119.77C229.439 116.639 232.245 115.313 235.42 113.755C238.065 112.322 240.935 111.346 243.906 110.871C246.011 110.681 248.132 110.8 250.202 111.226C256.567 112.429 264.957 115.71 269.364 120.795C272.636 124.555 273.019 129.954 273.115 134.944C273.252 141.816 273.11 148.687 272.69 155.559C272.69 156.557 272.581 157.555 272.499 158.553C271.91 166.085 271.294 173.905 269.145 181.191C268.475 183.474 267.777 185.771 265.641 187.001C260.659 189.885 253.036 188.368 247.656 187.548C240.525 186.536 233.189 185.483 226.866 182.08C225.545 181.507 224.476 180.478 223.854 179.181C223.307 177.637 223.978 175.955 224.457 174.383C226.592 167.343 224.936 159.947 224.936 152.77C224.936 151.472 225.1 150.146 225.1 148.847C225.086 148.437 224.977 148.109 224.977 147.781Z" fill="white"/>
<path opacity="0.1" d="M242.305 119.975C243.014 118.631 243.858 117.362 244.823 116.188C244.945 116.029 245.105 115.902 245.289 115.819C245.455 115.778 245.629 115.778 245.795 115.819L251.899 116.79C252.185 116.803 252.46 116.898 252.693 117.063C252.886 117.23 253.029 117.448 253.104 117.692C253.479 119.161 253.274 120.718 252.529 122.039C250.75 125.455 248.646 128.691 246.247 131.704C244.875 133.547 243.705 135.532 242.756 137.623C242.305 138.676 242.154 139.865 241.716 140.918C241.278 141.971 240.347 141.424 239.567 141.246L230.15 139.264L225.442 138.28C224.758 138.143 224.224 138.143 224.58 137.336C224.705 137.099 224.876 136.889 225.082 136.717C225.289 136.546 225.528 136.417 225.784 136.338C226.525 136.151 227.281 136.032 228.043 135.983C229.605 135.598 231.069 134.89 232.34 133.905C233.346 133.257 234.302 132.535 235.201 131.745C238.596 128.642 240.142 124.049 242.305 119.975Z" fill="#020202"/>
<path d="M232.053 113.974C232.692 113.112 233.546 112.433 234.53 112.005C236.761 111.24 238.979 113.112 241.278 113.646C243.003 114.028 245.152 113.81 246.178 115.259C246.483 115.875 246.641 116.554 246.641 117.241C246.641 117.928 246.483 118.607 246.178 119.223C244.246 125.402 241.868 131.433 239.061 137.268C237.939 139.606 236.474 141.697 235.283 143.939C233.914 146.414 233.627 149.025 231.697 151.239C229.767 153.454 226.222 155.012 223.362 153.878C221.93 153.249 220.716 152.212 219.871 150.897C216.299 145.744 218.79 140.248 220.761 135.081C222.185 131.444 231.341 114.767 232.053 113.974Z" fill="white"/>
<path opacity="0.1" d="M262.836 187.821C260.44 188.259 257.593 189.981 255.116 189.516C252.366 188.202 249.396 187.41 246.356 187.179C242.25 186.7 237.966 184.841 234.038 183.583C232.379 183.204 230.841 182.42 229.562 181.3C227.167 178.812 227.878 174.821 228.371 171.403C229.081 166.406 228.975 161.328 228.056 156.366C227.698 154.028 227.088 151.737 226.236 149.53C225.483 147.808 224.306 146.687 224.593 144.636C224.84 142.832 226.085 140.713 228.111 140.535C229.184 140.573 230.228 140.894 231.136 141.465C233.708 142.845 236.478 143.818 239.348 144.349C242.84 144.78 246.382 144.212 249.563 142.712C252.745 141.212 255.434 138.84 257.32 135.874C259.195 132.921 261.056 119.291 266.298 121.178C267.992 121.899 269.508 122.981 270.74 124.348C271.971 125.716 272.889 127.335 273.429 129.093C274.455 132.643 274.881 136.339 274.689 140.029C274.579 149.599 272.677 159.373 271.458 168.874C270.979 172.469 270.418 185.825 265.655 187.001C264.683 187.192 263.766 187.63 262.836 187.821Z" fill="#020202"/>
<path d="M228.85 134.561C227.974 134.017 226.977 133.698 225.947 133.633C224.918 133.569 223.888 133.761 222.951 134.192C222.029 134.655 221.251 135.361 220.701 136.233C220.151 137.105 219.85 138.11 219.83 139.141C219.92 140.545 220.394 141.897 221.199 143.051C221.635 143.809 222.228 144.466 222.937 144.978C224.06 145.648 225.376 145.923 226.674 145.757C227.848 145.715 228.995 145.402 230.027 144.841C231.56 143.98 233.545 141.52 233.039 139.592C232.17 137.539 230.713 135.789 228.85 134.561Z" fill="#FDB9A9"/>
<path d="M271.075 122.736C276.851 132.306 278.863 143.556 280.766 154.547C281.098 155.889 281.159 157.283 280.944 158.649C280.585 159.859 279.915 160.954 278.999 161.825C278.084 162.696 276.957 163.311 275.729 163.611C273.272 164.186 270.732 164.321 268.228 164.007C262.849 163.666 256.471 163.201 251.913 160.084C250.339 159.018 248.957 157.692 247.355 156.666C245.792 155.751 244.169 154.943 242.496 154.247C239.307 152.768 236.264 150.992 233.408 148.943C232.426 148.34 231.607 147.504 231.027 146.509C230.096 144.65 230.821 142.408 231.547 140.494C231.681 139.996 231.98 139.557 232.395 139.25C232.966 139.018 233.604 139.018 234.175 139.25C241.873 141.538 249.721 143.292 257.662 144.5C259.838 144.841 258.88 142.449 258.593 141.205C258.114 139.464 257.73 137.698 257.443 135.915C257.161 133.348 257.513 130.752 258.467 128.352C259.421 125.952 260.949 123.823 262.918 122.149C263.931 121.207 265.213 120.604 266.586 120.426C267.456 120.471 268.306 120.7 269.08 121.098C269.854 121.497 270.534 122.055 271.075 122.736Z" fill="white"/>
<path d="M241.867 100.344C241.66 99.3931 241.513 98.4297 241.429 97.4599C240.963 93.3588 240.566 89.0936 242.578 85.5667C243.411 84.0842 244.624 82.85 246.093 81.991C247.561 81.132 249.233 80.6792 250.935 80.6792C252.636 80.6792 254.308 81.132 255.776 81.991C257.245 82.85 258.458 84.0842 259.291 85.5667C260.465 87.7763 260.974 90.2787 260.755 92.771C260.532 95.2512 260.074 97.7046 259.386 100.098C258.729 102.641 257.06 104.199 256.101 106.537C255.775 107.543 255.622 108.597 255.65 109.654C255.787 111.232 255.787 112.819 255.65 114.398C254.09 115.421 252.306 116.055 250.449 116.243C249.578 116.229 248.715 116.081 247.889 115.806C247.423 115.713 247.011 115.444 246.739 115.054C246.617 114.712 246.588 114.344 246.657 113.987C246.657 113.646 246.739 113.318 246.739 112.976C246.931 111.27 246.904 109.548 246.657 107.849C246.102 106.523 245.187 105.377 244.016 104.541C242.88 103.399 242.129 101.932 241.867 100.344Z" fill="#FDB9A9"/>
<path opacity="0.1" d="M242.88 102.203C244.73 101.972 246.56 101.601 248.354 101.096C248.97 100.918 249.723 100.768 250.189 101.206C250.398 101.447 250.539 101.739 250.599 102.053C250.822 102.666 250.924 103.316 250.9 103.967C250.792 104.511 250.641 105.046 250.449 105.566C250.361 105.826 250.329 106.102 250.355 106.375C250.381 106.649 250.464 106.913 250.599 107.152C251.037 107.754 251.968 107.945 252.173 108.67C252.379 109.394 251.845 109.681 251.68 110.187C251.502 110.795 251.379 111.417 251.311 112.046C251.297 112.773 251.187 113.495 250.982 114.192C250.834 114.551 250.605 114.871 250.313 115.127C250.021 115.383 249.674 115.568 249.299 115.669C248.92 115.761 248.526 115.768 248.144 115.687C247.763 115.607 247.404 115.442 247.095 115.204C246.302 114.353 245.819 113.26 245.727 112.101L244.987 108.424C244.77 107.144 244.441 105.886 244.002 104.664C243.559 103.816 243.046 103.007 242.469 102.244L242.88 102.203Z" fill="#020202"/>
<path d="M126.36 172.743C126.36 172.743 127.209 176.174 119.065 178.744C110.921 181.314 107.91 172.743 107.91 172.743C107.91 172.743 123.349 166.741 126.36 172.743Z" fill="#2F3554"/>
<path d="M84.4775 259.454L85.4219 255.831L87.8856 246.494C87.9573 246.051 88.1571 245.637 88.4605 245.305C88.83 244.991 89.9797 248.531 90.4725 248.49C93.1603 248.337 95.8566 248.535 98.4932 249.078C99.2049 249.215 96.3169 289.351 96.0705 293.288C95.482 302.311 95.961 320.15 97.2887 320.041C94.6471 320.26 89.2406 320.56 88.1046 319.371C86.0515 317.321 89.5691 304.101 85.7367 288.585C84.7941 284.771 84.2709 280.866 84.1764 276.938C84.0258 271.238 83.0677 265.004 84.4775 259.454Z" fill="#EFAC88"/>
<path d="M103.366 304.101C103.665 303.561 103.913 302.993 104.105 302.406C104.735 300.397 104.255 298.305 104.392 296.282C104.474 295.213 104.474 294.139 104.392 293.069C104.173 290.335 103.818 287.601 103.475 284.867C102.887 280.26 101.805 275.462 101.805 270.8C101.805 267.205 104.707 255.913 104.707 255.913L101.805 241.19H116.533C116.533 241.19 118.422 253.494 117.902 254.861C116.829 257.654 116.196 260.596 116.026 263.582C116.026 268.873 115.315 274.232 114.904 279.508C114.439 285.277 113.983 291.046 113.535 296.815C113.371 298.893 113.193 300.916 113.029 303.035C112.903 306.088 113.47 309.13 114.685 311.934C115.151 313.206 115.671 314.778 114.781 315.817C113.891 316.856 111.948 316.5 110.675 315.817C108.866 314.604 106.951 313.556 104.954 312.686C104.16 312.505 103.402 312.196 102.709 311.77C101.34 310.731 101.34 308.654 101.97 307.054C102.379 306.045 102.845 305.059 103.366 304.101Z" fill="#EFAC88"/>
<path d="M112.851 131.868C112.851 131.868 111.181 127.466 114.973 131.868C118.764 136.27 124.855 162.299 124.855 162.299C124.855 162.299 116.328 170.118 113.905 168.573C111.482 167.028 112.851 131.868 112.851 131.868Z" fill="#2F3554"/>
<path d="M109.197 90.3513C113.973 92.3199 115.137 99.3874 114.795 103.858C114.37 109.449 109.676 115.04 111.291 120.659C112.344 123.537 112.837 126.59 112.742 129.654C112.44 132.702 110.552 135.819 107.581 136.489C106.872 136.58 106.177 136.764 105.515 137.036C104.667 137.646 104.011 138.485 103.626 139.455C100.86 145.046 95.987 149.313 90.0755 151.321C84.1764 153.112 77.1959 151.731 73.0213 147.22C68.8467 142.709 68.1897 135.04 72.159 130.337C73.295 128.97 74.828 127.726 74.8964 125.976C74.8559 125.168 74.732 124.367 74.5269 123.584C74.3073 122.068 74.5697 120.522 75.2769 119.163C75.9841 117.805 77.1006 116.702 78.4688 116.011C80.6861 114.944 83.5057 114.999 85.2166 113.277C87.1328 111.294 86.6674 108.136 86.5853 105.389C85.723 91.0212 96.577 85.1702 109.197 90.3513Z" fill="#8B2F0C"/>
<path d="M78.0719 210.405C76.9221 221.614 78.9205 233.084 80.9325 244.266C81.3979 246.891 81.9727 249.734 83.93 251.539C85.4683 252.771 87.2964 253.59 89.2406 253.917C102.007 256.871 115.396 255.476 127.277 249.953L124.253 222.065C123.459 214.642 122.596 207.028 119.927 200.029C119.435 198.73 111.715 185.825 113.549 184.718C109.908 186.96 105.679 186.632 101.504 187.602C96.5644 188.76 91.8102 190.601 87.3792 193.07C85.1087 194.07 83.1397 195.646 81.6678 197.642C80.1959 199.637 79.2724 201.982 78.9889 204.444C78.5744 206.413 78.2683 208.403 78.0719 210.405Z" fill="#4A43B7"/>
<path d="M78.0719 210.405C76.9221 221.614 78.9205 233.084 80.9325 244.266C81.3979 246.891 81.9727 249.734 83.93 251.539C85.4683 252.771 87.2964 253.59 89.2406 253.917C102.007 256.871 115.396 255.476 127.277 249.953L124.253 222.065C123.459 214.642 122.596 207.028 119.927 200.029C119.435 198.73 111.715 185.825 113.549 184.718C109.908 186.96 105.679 186.632 101.504 187.602C96.5644 188.76 91.8102 190.601 87.3792 193.07C85.1087 194.07 83.1397 195.646 81.6678 197.642C80.1959 199.637 79.2724 201.982 78.9889 204.444C78.5744 206.413 78.2683 208.403 78.0719 210.405Z" fill="url(#paint4_linear_13_1056)"/>
<path d="M108.95 119.975C108.95 119.975 105.241 124.678 105.227 127.562C105.188 129.472 104.926 131.372 104.447 133.222C104.447 133.222 103.859 136.667 101.942 135.327C100.026 133.987 93.2921 124.965 93.2921 124.965L100.642 115.177L108.95 119.975Z" fill="#EFAC88"/>
<path d="M120.365 203.05C120.365 203.05 118.86 186.304 116.068 179.592C115.292 177.159 115.105 174.578 115.52 172.059C116.081 166.126 117.888 160.439 118.86 154.575C119.156 151.951 118.961 149.295 118.285 146.742C117.263 141.656 116.068 136.607 114.699 131.595C114.578 130.95 114.301 130.344 113.891 129.831C113.424 129.407 112.868 129.094 112.263 128.915L104.94 126.181C105.706 128.533 106.432 131.157 105.378 133.399C105.12 134.054 104.634 134.593 104.009 134.917C102.64 135.477 101.272 134.575 100.177 133.55C98.5192 131.94 97.2386 129.984 96.4264 127.822C96.0157 126.694 95.7267 125.525 95.5641 124.336C95.4546 123.488 95.701 122.258 95.0577 121.67C94.0175 123.502 91.8686 124.404 90.2398 125.676C88.611 126.947 86.5169 128.41 84.5459 129.777C82.9027 130.668 81.5634 132.03 80.6998 133.686C80.2758 135.086 80.2758 136.579 80.6998 137.979C81.042 139.537 81.5758 141.055 81.8632 142.627C82.1372 144.626 82.3017 146.638 82.356 148.656C82.6843 151.655 83.2193 154.629 83.9574 157.555C84.2352 159.343 84.4043 161.146 84.4638 162.955C84.4638 162.955 87.2013 173.125 86.6538 175.613C86.1063 178.102 80.9873 187.712 80.6998 191.922C80.4124 196.133 82.3423 204.977 82.3423 204.977C82.3423 204.977 87.0781 205.292 92.334 205.497C98.5206 205.729 109.744 203.118 110.579 202.284C111.674 201.191 112.276 193.385 112.18 188.177C114.671 196.269 116.629 203.05 116.629 203.05H120.365Z" fill="#2F3554"/>
<path d="M83.93 213.289C84.9565 213.59 85.2987 214.506 86.0652 215.654C87.0915 217.251 88.0371 218.898 88.8984 220.589C89.0163 220.707 89.0825 220.867 89.0825 221.033C89.0825 221.2 89.0163 221.36 88.8984 221.478C88.7973 221.572 88.6671 221.63 88.5289 221.642C87.6525 221.957 86.7086 222.037 85.7915 221.874C85.4395 224.063 85.7741 226.307 86.7496 228.299C86.9822 228.778 87.2286 229.42 86.8454 229.803C86.6675 229.939 86.4532 230.02 86.2294 230.035C84.2718 230.161 82.3225 229.684 80.6451 228.668C79.6713 228.241 78.7814 227.644 78.0171 226.905C76.9786 225.673 76.2177 224.232 75.7861 222.681C75.7861 221.694 75.8824 220.71 76.0735 219.741C76.0735 219.29 76.5389 213.398 76.6758 213.398L83.0266 213.152C83.3328 213.154 83.6371 213.2 83.93 213.289Z" fill="#FDC099"/>
<path d="M83.971 210.951L84.4775 213.508L75.6492 215.039V212.1L83.971 210.951Z" fill="white"/>
<path d="M83.9711 177.336C83.9711 177.336 90.9926 160.467 90.0345 154.52C89.0764 148.573 85.0387 134.698 82.0549 134.821C79.071 134.944 78.1266 138.922 78.1266 142.613C78.1266 146.304 72.1316 179.592 71.7484 182.667C71.3651 185.743 75.1291 214.109 75.1291 214.109L85.1208 211.908L83.9711 177.336Z" fill="#2F3554"/>
<path d="M110.839 95.0402C111 95.1341 111.139 95.2597 111.25 95.4094C111.961 96.6386 112.426 97.9944 112.618 99.4011C114.548 106.236 117.176 112.743 113.412 119.524C113.141 120.082 112.754 120.576 112.276 120.973C111.785 121.311 111.223 121.536 110.634 121.629C107.862 122.2 104.977 121.743 102.517 120.344C101.108 119.673 99.7376 118.924 98.4111 118.102C97.8375 117.699 97.3683 117.164 97.0423 116.544C96.7412 115.901 96.2485 115.272 96.4538 114.521C96.6044 114.001 96.9055 113.55 97.015 113.017C97.1266 112.184 96.9734 111.338 96.577 110.597C96.4832 110.438 96.4227 110.261 96.3992 110.078C96.3757 109.895 96.3896 109.709 96.4401 109.531C96.6865 108.943 97.5077 108.984 98.1373 108.834C98.651 108.64 99.1172 108.338 99.5044 107.949C99.8916 107.56 100.191 107.092 100.382 106.578C100.988 105.356 101.447 104.066 101.751 102.737C101.941 101.589 102.272 100.468 102.736 99.4011C103.651 97.9351 104.973 96.7666 106.541 96.0382C107.623 95.4094 109.648 94.302 110.839 95.0402Z" fill="#FDC099"/>
<path d="M113.891 104.979L114.507 104.445C114.507 104.445 114.685 104.828 114.904 104.787C115.099 104.735 115.287 104.661 115.465 104.568C115.465 104.568 115.123 105.061 114.89 105.102C114.568 105.143 114.241 105.143 113.919 105.102L113.891 104.979Z" fill="#8A3C1F"/>
<path d="M114.425 104.487L114.685 104.022C114.685 104.022 114.89 104.213 115.027 104.131C115.132 104.055 115.229 103.968 115.315 103.871C115.315 103.871 115.233 104.254 115.096 104.336C114.888 104.42 114.673 104.485 114.452 104.528L114.425 104.487Z" fill="#8A3C1F"/>
<path d="M144.496 148.751H118.887L96.9329 176.475L121.091 175.504L144.496 148.751Z" fill="#4A43B7"/>
<path d="M129.276 171.43C129.307 171.163 129.358 170.898 129.426 170.637C129.75 168.92 129.703 167.154 129.289 165.456C128.875 163.743 127.823 162.253 126.347 161.287C126.235 161.219 126.115 161.164 125.991 161.123C125.794 161.123 125.605 161.198 125.463 161.332C125.32 161.467 125.235 161.652 125.224 161.847C125.221 162.241 125.31 162.629 125.484 162.982C125.936 164.107 126.253 165.282 126.429 166.482L125.142 165.019C124.788 164.539 124.317 164.158 123.773 163.912C123.492 163.802 123.178 163.807 122.9 163.924C122.622 164.042 122.4 164.263 122.282 164.54C122.216 164.879 122.264 165.23 122.418 165.538L123.623 169.024C123.064 167.908 122.169 166.995 121.063 166.413C120.843 166.715 120.724 167.079 120.724 167.452C120.724 167.826 120.843 168.189 121.063 168.491C121.499 169.118 121.87 169.786 122.172 170.487C121.885 170.148 121.624 169.787 121.392 169.407C121.104 169.065 120.557 168.847 120.228 169.147C119.9 169.448 120.01 169.872 120.105 170.241C120.929 172.855 121.254 175.6 121.063 178.334L122.596 177.992C123.809 177.589 124.957 177.014 126.005 176.283C126.875 175.767 127.621 175.063 128.186 174.224C128.752 173.385 129.124 172.431 129.276 171.43Z" fill="#EFAC88"/>
<path d="M289.033 169.147C289.498 168.751 290.224 168.45 290.689 168.847C290.832 169.007 290.939 169.196 291.003 169.401C291.067 169.606 291.086 169.823 291.059 170.036V172.483C295.233 171.212 298.381 167.862 301.447 164.773C302.09 164.117 303.035 163.406 303.829 163.871C304.115 164.082 304.331 164.376 304.446 164.713C304.561 165.051 304.57 165.415 304.472 165.757C304.237 166.416 304.076 167.099 303.993 167.794C303.993 168.915 304.801 169.886 304.91 170.993C305.033 172.36 304.103 173.59 303.979 174.957V176.324C303.772 177.158 303.364 177.928 302.789 178.566C301.411 180.642 299.582 182.381 297.437 183.652C295.969 184.29 294.414 184.709 292.824 184.896L287.856 185.743C287.371 185.866 286.863 185.866 286.378 185.743C284.886 185.237 284.42 182.804 284.475 181.464C284.693 180.214 285.159 179.02 285.844 177.951C286.87 175.108 286.555 171.225 289.033 169.147Z" fill="#A67C52"/>
<path d="M142.005 154.083C141.676 153.563 141.074 153.071 140.513 153.303C140.329 153.415 140.17 153.564 140.048 153.74C139.925 153.917 139.841 154.117 139.801 154.329L139.048 156.653C135.435 154.206 133.423 150.077 131.425 146.208C131 145.388 130.316 144.445 129.413 144.65C129.086 144.774 128.806 144.995 128.61 145.284C128.414 145.572 128.312 145.914 128.318 146.263C128.336 146.959 128.286 147.655 128.167 148.341C127.839 149.407 126.798 150.105 126.333 151.075C125.813 152.333 126.333 153.809 126.046 155.176C125.95 155.614 125.758 156.037 125.69 156.543C125.635 157.4 125.8 158.256 126.169 159.031C126.858 161.426 128.084 163.633 129.755 165.484C130.967 166.523 132.322 167.384 133.779 168.04L138.282 170.323C138.699 170.57 139.167 170.72 139.651 170.76C141.225 170.76 142.388 168.546 142.744 167.247C142.908 165.997 142.839 164.727 142.539 163.501C142.292 160.426 143.729 156.858 142.005 154.083Z" fill="#A67C52"/>
<path d="M184.764 376.5C184.784 376.61 184.821 376.716 184.873 376.814C185.489 378.4 187.446 378.933 189.144 379.124C190.724 379.311 192.316 379.389 193.907 379.357C194.663 379.376 195.417 379.27 196.138 379.042C196.812 378.752 197.443 378.37 198.013 377.908L202.584 374.518C203.875 373.641 205.048 372.602 206.075 371.428C207.106 370.241 207.645 368.706 207.58 367.136C207.537 366.355 207.249 365.608 206.758 365C206.267 364.392 205.597 363.953 204.843 363.745C203.885 363.649 202.919 363.677 201.969 363.827C200.011 363.923 197.274 363.116 196.494 361.093C196.288 360.231 195.807 359.459 195.125 358.892C194.46 358.594 193.719 358.508 193.003 358.646C191.41 358.71 189.836 359.019 188.336 359.562C187.586 359.832 186.905 360.267 186.346 360.835C185.787 361.403 185.363 362.089 185.106 362.843C184.928 363.544 184.859 364.268 184.901 364.989C184.983 366.469 184.983 367.952 184.901 369.432C184.679 371.292 184.574 373.164 184.586 375.037C184.597 375.529 184.656 376.019 184.764 376.5Z" fill="#262836"/>
<path d="M229.192 377.074C226.113 378.482 222.944 379.688 219.707 380.683C218.409 381.243 216.954 381.325 215.601 380.915C215.062 380.646 214.588 380.262 214.215 379.789C213.841 379.316 213.576 378.768 213.438 378.181C213.15 377.024 213.03 375.832 213.083 374.641C213.083 372.658 213.904 371.127 214.219 369.241C214.506 367.6 214.739 365.946 214.971 364.306C215.3 361.954 215.601 359.603 215.902 357.238L224.114 359.002C224.977 359.179 225.798 362.501 226.304 363.198C226.696 363.712 227.195 364.134 227.768 364.434C228.34 364.734 228.971 364.905 229.617 364.935C230.985 365.003 232.45 364.36 233.86 364.593C234.767 364.816 235.577 365.33 236.165 366.055C236.753 366.781 237.088 367.679 237.117 368.612C237.105 369.544 236.902 370.464 236.521 371.315C236.14 372.166 235.588 372.93 234.9 373.561C233.511 374.807 231.924 375.814 230.205 376.541L229.192 377.074Z" fill="#262836"/>
<path d="M229.261 367.901C227.103 369.128 224.862 370.201 222.554 371.114L222.321 371.209C218.516 372.686 214.26 366.725 214.26 366.725C214.26 366.725 208.881 333.534 209.127 319.781C209.291 310.335 207.06 296.87 203.652 272.441C202.803 297.389 198.574 308.353 199.655 317.293C201.298 330.895 199.341 364.675 199.341 364.675C199.341 364.675 195.741 371.25 191.785 370.362H191.553C189.176 369.819 186.843 369.101 184.572 368.215C184.572 368.215 179.973 321.736 179.973 309.433C179.973 297.129 180.48 286.193 180.48 286.193L178.084 247.328L188.336 232.469L189.171 232.113L189.965 231.334L201.325 223.009C201.325 223.009 201.325 224.95 201.12 228.272L209.934 233.002L210.797 233.644L211.659 233.863L226.455 236.447C226.455 236.447 230.342 296.022 231.588 308.216C232.833 320.41 229.261 367.901 229.261 367.901Z" fill="#4A43B7"/>
<path d="M229.261 367.901C227.103 369.128 224.862 370.201 222.554 371.114L222.321 371.209C218.516 372.686 214.26 366.725 214.26 366.725C214.26 366.725 208.881 333.534 209.127 319.781C209.291 310.335 207.06 296.87 203.652 272.441C202.803 297.389 198.574 308.353 199.655 317.293C201.298 330.895 199.341 364.675 199.341 364.675C199.341 364.675 195.741 371.25 191.785 370.362H191.553C189.176 369.819 186.843 369.101 184.572 368.215C184.572 368.215 179.973 321.736 179.973 309.433C179.973 297.129 180.48 286.193 180.48 286.193L178.084 247.328L188.336 232.469L189.171 232.113L189.965 231.334L201.325 223.009C201.325 223.009 201.325 224.95 201.12 228.272L209.934 233.002L210.797 233.644L211.659 233.863L226.455 236.447C226.455 236.447 230.342 296.022 231.588 308.216C232.833 320.41 229.261 367.901 229.261 367.901Z" fill="url(#paint5_linear_13_1056)"/>
<path d="M216.997 132.771C217.928 133.7 219.324 134.657 218.941 135.887C218.735 136.544 218.037 136.926 217.572 137.391C216.903 138.065 216.376 138.866 216.022 139.746C215.667 140.627 215.491 141.569 215.505 142.517C215.562 144.371 215.298 146.221 214.725 147.986C214.404 148.871 213.789 149.619 212.981 150.104C212.174 150.59 211.224 150.783 210.29 150.651C209.209 150.351 208.128 149.421 207.088 149.858C206.294 150.2 206.047 151.226 205.637 151.909C205.046 152.79 204.22 153.488 203.252 153.923C202.284 154.358 201.214 154.513 200.162 154.37C198.068 154.067 196.048 153.376 194.208 152.333C193.42 152.031 192.739 151.503 192.251 150.815C191.933 150.156 191.856 149.407 192.032 148.697C192.415 146.523 193.92 144.732 195.139 142.859C197.397 139.398 198.752 135.426 199.081 131.308C199.3 128.437 199.081 125.279 200.928 123.106C203.433 120.084 209.483 120.112 212.59 122.326C216.162 124.609 214.136 129.804 216.997 132.771Z" fill="#A67C52"/>
<path d="M213.288 119.77C212.921 120.482 212.367 121.082 211.686 121.506C210.318 122.313 209.141 123.256 207.813 124.144C206.558 124.987 205.676 126.279 205.349 127.753C204.788 130.488 206.266 133.345 205.349 135.956C205.034 136.475 204.158 136.161 203.803 135.641C203.447 135.122 203.269 134.466 202.735 134.151C201.832 133.632 200.723 134.507 200.34 135.518C199.938 136.647 199.989 137.888 200.481 138.98C200.973 140.073 201.869 140.934 202.981 141.383C202.858 142.217 201.763 142.558 200.915 142.435C200.072 142.204 199.201 142.093 198.328 142.107C196.37 142.476 195.59 145.265 193.674 145.552C192.999 145.504 192.344 145.303 191.758 144.964C191.172 144.625 190.672 144.158 190.293 143.597L187.912 140.863C187.533 140.376 187.117 139.919 186.666 139.496C186.132 139.073 185.298 139.045 184.805 138.539C184.312 138.034 184.805 136.872 184.326 136.243C184.088 136.025 183.809 135.858 183.504 135.751C182.819 135.406 182.273 134.836 181.959 134.136C181.645 133.436 181.581 132.65 181.78 131.909C181.835 131.722 181.835 131.523 181.78 131.335C181.698 131.089 181.397 130.966 181.15 130.843C180.422 130.387 179.882 129.684 179.631 128.863C179.379 128.042 179.433 127.158 179.782 126.373C180.165 125.459 180.728 124.632 181.438 123.939C181.7 123.563 182.061 123.265 182.481 123.08C182.901 122.894 183.364 122.827 183.819 122.887L184.189 119.469C184.221 118.774 184.388 118.091 184.682 117.46C185.462 116.093 187.255 115.737 188.788 115.559L188.131 112.716C188.053 112.542 188.013 112.353 188.013 112.162C188.013 111.972 188.053 111.783 188.131 111.609C188.338 111.356 188.63 111.187 188.952 111.13C189.875 110.886 190.819 110.73 191.772 110.665C191.415 109.877 191.144 109.052 190.964 108.205C190.923 108.043 190.923 107.874 190.964 107.713C191.046 107.559 191.171 107.434 191.325 107.354C191.479 107.273 191.654 107.241 191.826 107.262C192.174 107.33 192.532 107.33 192.88 107.262C192.88 107.262 192.36 104.883 192.333 104.664C192.25 104.292 192.242 103.906 192.311 103.531C192.379 103.155 192.521 102.797 192.73 102.477C193.008 102.146 193.367 101.893 193.773 101.742C194.178 101.591 194.616 101.547 195.043 101.616C195.894 101.769 196.713 102.065 197.465 102.491C197.383 101.575 198.56 101.124 199.505 101.042C201.264 100.94 203.02 101.286 204.61 102.046C206.199 102.806 207.569 103.956 208.593 105.389C208.754 105.645 208.947 105.879 209.168 106.086C209.588 106.361 210.05 106.564 210.537 106.687C211.276 107.016 211.933 107.504 212.461 108.116C212.988 108.728 213.374 109.449 213.589 110.228C213.987 111.781 214.149 113.385 214.068 114.985C214.112 116.212 213.997 117.438 213.726 118.635C213.622 119.028 213.475 119.409 213.288 119.77Z" fill="#2F3554"/>
<path d="M200.299 149.353C202.473 150.267 204.585 151.322 206.622 152.511C207.25 152.843 207.797 153.31 208.224 153.878C208.445 154.193 208.582 154.559 208.62 154.943C208.658 155.326 208.597 155.712 208.443 156.065C207.868 157.049 206.581 156.68 205.582 156.338C200.969 154.506 196.001 154.342 191.265 154.356C190.939 154.404 190.606 154.362 190.302 154.234C189.998 154.106 189.734 153.898 189.541 153.631C189.425 153.314 189.382 152.975 189.415 152.639C189.449 152.303 189.557 151.979 189.732 151.69C192.237 146.728 196.261 147.521 200.299 149.353Z" fill="white"/>
<path d="M289.758 187.835C288.816 190.184 287.421 192.325 285.652 194.137C283.969 196.037 282.217 197.869 280.396 199.605C276.11 203.761 271.581 207.659 266.832 211.279C263.451 213.891 259.838 216.461 255.622 217.281C253.945 217.678 252.187 217.568 250.572 216.966C249.235 216.282 248.037 215.355 247.041 214.232C245.822 213.029 231.861 196.98 231.629 196.98C230.84 197.403 230.232 198.098 229.918 198.935C227.894 203.1 226.647 207.598 226.236 212.209C226.072 214.275 226.072 216.35 226.236 218.415C226.783 225.428 229.247 232.66 226.811 239.276C226.336 240.683 225.534 241.958 224.47 242.995C223.441 243.884 222.258 244.579 220.98 245.045C218.732 245.975 216.386 246.644 213.986 247.041C212.629 247.287 211.257 247.438 209.88 247.492C204.774 247.684 199.683 246.686 194.577 246.946C190.225 247.164 185.927 248.313 181.575 248.135C180.773 248.197 179.967 248.083 179.215 247.799C178.463 247.516 177.782 247.07 177.222 246.494C176.73 245.738 176.425 244.876 176.332 243.979C174.635 234.687 173.76 225.263 173.718 215.818C173.718 211.457 173.006 195.518 171.542 192.578C171.364 192.223 171.172 192.045 170.981 192.1C166.108 193.467 155.651 196.201 150.696 197.076C149.98 197.249 149.237 197.286 148.506 197.185C147.754 196.993 147.053 196.638 146.453 196.146C140.321 191.649 136.872 184.95 134.696 177.896C134.272 176.529 133.888 175.162 133.532 173.795C133.346 173.431 133.234 173.034 133.202 172.626C133.17 172.218 133.219 171.808 133.346 171.419C133.473 171.031 133.676 170.671 133.943 170.361C134.21 170.051 134.536 169.796 134.901 169.612C134.984 169.563 135.071 169.522 135.161 169.489L144.345 163.584L151.189 172.305C152.558 174 154.118 175.832 156.294 176.078C159.278 176.379 161.523 173.672 163.357 171.362C169.303 163.901 176.928 157.948 185.612 153.987C186.886 153.375 188.227 152.917 189.609 152.62L189.951 152.538C190.149 152.482 190.35 152.441 190.553 152.415C192.338 152.253 194.138 152.359 195.891 152.729C207.547 154.695 219.077 157.338 230.424 160.644C231.782 160.847 233.073 161.365 234.193 162.159C235.313 162.952 236.231 163.997 236.871 165.21C240.06 170.009 243.167 174.862 246.37 179.66C249.107 183.761 251.845 188.956 255.951 191.963C264.831 188.369 273.212 183.651 280.889 177.924C281.97 177.117 283.339 176.242 284.585 176.775C284.983 176.971 285.341 177.24 285.638 177.568C288.581 180.507 291.237 183.378 289.758 187.835Z" fill="white"/>
<path d="M356.182 155.696C354.965 156.732 353.498 157.434 351.926 157.733C350.488 157.79 349.055 157.539 347.724 156.994L327.357 150.159C325.821 151.354 324.795 153.086 324.486 155.006C324.176 156.925 324.605 158.891 325.687 160.508C327.412 162.9 330.382 164.035 333.16 165.033L347.121 170.05C349.865 171.181 352.754 171.922 355.703 172.251C359.809 172.524 363.82 171.212 367.721 169.913C371.895 168.546 376.467 166.81 378.465 162.886C380.464 158.963 379.013 153.796 379.601 149.216C379.998 146.236 381.312 143.379 381.257 140.371C381.189 137.801 379.136 133.932 376.07 134.466C373.428 134.93 371.663 139.524 370.267 141.451C366.337 146.898 361.586 151.703 356.182 155.696Z" fill="white"/>
<path d="M324.811 149.052C324.585 148.509 324.26 148.014 323.853 147.589C323.643 147.382 323.378 147.239 323.089 147.178C322.8 147.118 322.5 147.142 322.224 147.247C321.956 147.413 321.741 147.652 321.603 147.935C321.465 148.218 321.41 148.534 321.444 148.847C321.473 149.062 321.424 149.28 321.307 149.462C321.218 149.528 321.113 149.57 321.003 149.584C320.893 149.598 320.781 149.585 320.678 149.544C318.365 149.093 316.024 148.751 313.67 148.519C313.475 148.491 313.277 148.491 313.081 148.519C312.698 148.653 312.38 148.929 312.194 149.29C312.008 149.652 311.968 150.07 312.082 150.46C312.339 151.233 312.723 151.959 313.218 152.606C314.409 154.561 314.861 157.145 316.777 158.416C317.945 159.089 319.297 159.372 320.637 159.223C322.005 159.154 323.306 158.908 324.647 158.963C325.54 159.156 326.472 159.056 327.302 158.676C327.61 158.443 327.855 158.138 328.015 157.787C328.175 157.436 328.245 157.051 328.219 156.666C328.081 155.457 327.644 154.301 326.946 153.303C326.207 151.909 325.496 150.487 324.811 149.052Z" fill="#FDB9A9"/>
<path d="M381.613 302.201C373.811 300.438 375.344 311.497 373.291 315.598C371.994 317.671 370.367 319.518 368.474 321.066C366.708 322.789 365.052 324.894 364.956 327.341C364.901 327.814 364.997 328.292 365.23 328.708C365.625 329.184 366.17 329.511 366.776 329.638C371.239 330.922 376.026 330.432 380.135 328.271C382.06 327.35 383.659 325.868 384.72 324.019C385.574 322.036 385.976 319.888 385.897 317.731C386.075 313.192 388.115 303.65 381.613 302.201Z" fill="#FDB9A9"/>
<path d="M374.715 324.949C374.715 324.949 352.514 325.892 361.917 332.864C371.32 339.836 385.35 331.155 386.719 329.569C388.087 327.984 386.979 325.263 386.979 325.263L374.715 324.949Z" fill="#4A43B7"/>
<path d="M385.76 328.011C383.776 330.417 373.346 333.657 368.734 333.329C364.121 333.001 359.974 330.841 360.425 327.86C360.877 324.88 369.035 317.949 370.568 317.963C372.101 317.977 373.305 321.531 376.398 322.269C377.78 322.491 379.196 322.356 380.511 321.878C381.826 321.399 382.997 320.593 383.913 319.535C384.192 319.152 384.595 318.877 385.054 318.758C385.514 318.638 386 318.681 386.431 318.879C387.499 320.451 387.745 325.605 385.76 328.011Z" fill="white"/>
<path d="M408.372 306.562C400.57 304.758 402.103 315.803 400.05 319.904C398.766 322.007 397.138 323.878 395.232 325.441C393.466 327.163 391.824 329.268 391.728 331.715C391.667 332.187 391.759 332.666 391.988 333.083C392.382 333.567 392.935 333.896 393.549 334.012C398.007 335.29 402.787 334.8 406.894 332.645C408.818 331.725 410.417 330.242 411.479 328.394C412.332 326.41 412.734 324.263 412.656 322.105C412.834 317.498 414.873 307.929 408.372 306.562Z" fill="#FDB9A9"/>
<path d="M401.473 329.214C401.473 329.214 379.273 330.143 388.676 337.115C398.079 344.087 412.122 335.434 413.477 333.834C414.832 332.235 413.737 329.515 413.737 329.515L401.473 329.214Z" fill="#4A43B7"/>
<path d="M412.519 332.221C410.534 334.655 400.105 337.881 395.492 337.553C390.879 337.225 386.732 335.078 387.184 332.085C387.636 329.091 395.793 322.16 397.326 322.174C398.859 322.187 400.064 325.742 403.157 326.466C404.539 326.688 405.955 326.553 407.27 326.074C408.585 325.596 409.756 324.79 410.671 323.732C410.95 323.349 411.354 323.074 411.813 322.954C412.272 322.835 412.759 322.878 413.19 323.076C414.257 324.703 414.504 329.802 412.519 332.221Z" fill="white"/>
<path d="M388.265 206.003L398.695 315.625L413.751 313.766C419.691 287.027 418.24 206.987 418.24 206.987L388.265 206.003Z" fill="#473F47"/>
<path d="M398.695 203.036L388.265 312.659L373.209 310.8C364.614 241.436 371.69 198.252 371.69 198.252L398.695 203.036Z" fill="#473F47"/>
<path d="M373.004 163.392C372.826 161.383 372.292 159.387 372.073 157.336C371.582 153.198 371.661 149.013 372.306 144.896C373.013 140.513 374.336 136.252 376.234 132.237C377.972 128.765 381.107 127.289 384.624 125.553C387.573 123.955 390.771 122.869 394.082 122.34C396.424 122.125 398.785 122.254 401.09 122.723C408.166 124.09 417.515 127.726 422.346 133.304C425.987 137.5 426.453 143.502 426.535 149.052C426.69 156.716 426.53 164.372 426.056 172.018C426.056 173.125 425.919 174.233 425.837 175.34C425.18 183.734 424.468 192.442 422.1 200.548C421.347 203.091 420.553 205.647 418.199 207.014C412.724 210.241 404.17 208.463 398.188 207.629C390.236 206.495 382.079 205.319 375.03 201.478C373.565 200.833 372.376 199.69 371.676 198.252C371.06 196.529 371.813 194.656 372.347 192.906C374.729 185.073 372.881 176.844 372.881 168.847C372.881 167.398 373.072 165.921 373.072 164.472C373.059 164.117 373.004 163.748 373.004 163.392Z" fill="white"/>
<path opacity="0.1" d="M395.232 200.193C395.178 199.354 395.384 198.519 395.821 197.8C396.724 196.693 398.449 196.926 399.831 197.267L408.769 199.482C412.149 200.316 417.337 203.583 418.213 206.987C421.648 204.581 422.538 200.535 423.181 196.392C423.825 192.25 423.852 184.171 424.55 179.988C420.18 183.129 414.972 184.899 409.59 185.073C404.512 185.21 398.134 185.073 396.286 179.605C394.164 173.207 393.425 166.495 392.016 159.934C392.019 159.782 391.988 159.631 391.925 159.493C391.862 159.356 391.768 159.234 391.65 159.138C391.533 159.041 391.395 158.973 391.247 158.938C391.099 158.903 390.946 158.902 390.797 158.936L371.498 159.141C371.198 159.126 370.898 159.182 370.622 159.305C370.061 159.646 370.061 160.453 370.157 161.096C370.875 165.451 373.063 169.431 376.357 172.374C377.931 173.741 378.958 174.643 379.259 176.68C379.629 179.086 379.533 181.642 379.779 184.089C380.201 189.231 381.33 194.291 383.133 199.127C385.897 206.003 394.712 211.375 395.232 200.193Z" fill="#020202"/>
<path d="M389.962 205.757H361.233L357.661 161.137H386.404L389.962 205.757Z" fill="#4A43B7"/>
<path d="M388.293 111.335C388.308 109.229 388.44 107.125 388.69 105.033C388.881 103.215 389.169 101.383 389.524 99.5651C389.543 99.038 389.675 98.5211 389.911 98.0493C390.147 97.5776 390.482 97.1621 390.893 96.8311C393.712 95.0937 396.971 94.2016 400.283 94.261C402.261 93.9502 404.282 94.4365 405.901 95.613C407.521 96.7896 408.606 98.5602 408.919 100.536C408.985 100.924 409.017 101.317 409.015 101.711C409.508 106.318 408.317 110.912 407.646 115.491C407.124 119.038 406.936 122.627 407.085 126.209C405.35 127.361 403.356 128.065 401.282 128.259C400.313 128.258 399.351 128.096 398.435 127.781C398.178 127.733 397.933 127.635 397.715 127.492C397.496 127.348 397.308 127.163 397.162 126.947C397.021 126.567 396.988 126.155 397.066 125.758C397.118 125.386 397.15 125.012 397.162 124.637C397.312 122.541 397.271 120.436 397.039 118.348C397.045 118.26 397.032 118.172 397.002 118.09C396.971 118.007 396.923 117.932 396.861 117.87C396.718 117.829 396.566 117.829 396.423 117.87H395.834C394.791 117.952 393.743 117.952 392.7 117.87C391.45 117.733 390.291 117.157 389.429 116.243C388.438 114.811 388.032 113.056 388.293 111.335Z" fill="#FDB9A9"/>
<path d="M392.549 97.829C391.822 98.1297 391.005 98.1297 390.277 97.829C389.514 97.4213 388.882 96.8049 388.457 96.0518C387.602 94.7679 387.29 93.199 387.587 91.6861C387.884 90.1733 388.768 88.8388 390.045 87.9726C391.028 87.2808 392.14 86.7915 393.315 86.5333C394.49 86.2751 395.705 86.2532 396.888 86.4689C397.511 86.0725 398.211 85.8116 398.941 85.7034C401.765 84.8447 404.752 84.662 407.66 85.1702C409.31 85.6489 410.858 86.4224 412.232 87.4532C413.562 88.331 414.695 89.4764 415.558 90.8161C416.39 92.5341 416.914 94.385 417.104 96.2842C417.55 98.3149 417.793 100.385 417.83 102.463C417.826 103.371 417.654 104.27 417.323 105.115C416.911 106.05 416.321 106.895 415.585 107.603C414.505 108.686 413.274 109.607 411.93 110.337C411 110.857 409.918 111.39 409.604 112.415C409.51 112.893 409.464 113.378 409.467 113.864C409.412 114.579 409.124 115.257 408.645 115.792C408.317 116.147 407.756 117.009 407.277 117.159C406.798 117.309 406.387 116.708 406.25 116.216C405.664 114.143 405.809 111.933 406.661 109.955C407.264 108.99 407.617 107.891 407.687 106.756C407.578 105.648 406.059 104.76 405.333 105.389C404.608 106.018 404.471 107.658 403.568 107.344C404.594 104.145 403.266 100.126 400.187 98.8679C398.541 98.3719 396.828 98.1322 395.109 98.1571C394.288 97.9911 393.455 97.8996 392.618 97.8837L392.549 97.829Z" fill="#DD8049"/>
<path d="M395.862 117.788C398.295 117.328 400.675 116.623 402.965 115.682C403.171 123.078 397.148 124.609 397.148 124.609C397.299 122.514 397.258 120.409 397.025 118.321C397.031 118.144 396.967 117.972 396.847 117.842C396.704 117.801 396.552 117.801 396.409 117.842H395.862V117.788Z" fill="#DE9F93"/>
<path d="M431.448 159.592L434.87 174.547C435.225 175.791 435.377 177.083 435.322 178.375C435.076 180.795 433.419 182.79 431.832 184.622C429.879 187.207 427.426 189.373 424.618 190.993C422.671 191.852 420.603 192.405 418.487 192.633C412.894 193.48 407.235 193.796 401.583 193.576C401.136 193.587 400.691 193.498 400.283 193.317C399.875 193.055 399.537 192.698 399.297 192.278C397.319 189.295 395.62 186.138 394.219 182.845C398.747 179.799 403.72 177.47 408.96 175.942C410.018 175.745 411.004 175.273 411.821 174.575C412.353 173.909 412.707 173.118 412.847 172.278C415.078 162.709 409.932 152.046 414.052 143.119C416.392 138.034 421.388 132.579 425.002 139.373C428.41 145.566 429.888 152.784 431.448 159.592Z" fill="white"/>
<path d="M390.291 182.954C389.674 182.491 389.019 182.079 388.334 181.724C387.986 181.551 387.601 181.468 387.213 181.485C386.825 181.502 386.447 181.617 386.116 181.82C385.815 182.039 385.583 182.394 385.213 182.517C384.97 182.572 384.717 182.572 384.474 182.517L379.902 182.052C379.541 181.963 379.164 181.958 378.801 182.039C378.437 182.12 378.098 182.283 377.808 182.517C377.22 183.187 377.576 184.239 377.972 185.046C379.146 187.424 380.452 189.733 381.887 191.963C382.148 192.419 382.475 192.834 382.859 193.194C383.385 193.59 383.993 193.865 384.638 194C386.994 194.544 389.454 194.441 391.755 193.699C394.041 192.951 396.174 191.798 398.052 190.295C398.321 190.097 398.556 189.857 398.75 189.585C398.939 189.249 399.051 188.875 399.078 188.491C399.297 186.727 398.736 183.884 396.437 184.007C394.328 184.378 392.155 184.006 390.291 182.954Z" fill="#FDB9A9"/>
<path d="M101.901 307.451C101.996 307.299 102.134 307.18 102.298 307.109C102.681 306.986 103.037 307.327 103.297 307.628C105.665 310.362 109.21 311.729 112.605 312.96C112.81 313.028 113.07 313.096 113.234 312.96C113.399 312.823 113.399 312.673 113.467 312.536C113.592 312.366 113.773 312.245 113.977 312.193C114.182 312.141 114.398 312.16 114.589 312.249C114.962 312.448 115.299 312.707 115.589 313.014C116.957 314.272 118.915 314.778 120.42 315.899C120.821 316.146 121.125 316.522 121.282 316.965C121.334 317.209 121.323 317.462 121.252 317.701C121.18 317.94 121.049 318.157 120.872 318.332C120.498 318.702 120.021 318.95 119.503 319.043C118.562 319.236 117.596 319.273 116.642 319.152C111.907 318.797 107.189 318.296 102.49 317.649C102.123 317.623 101.765 317.525 101.436 317.362C101.074 317.07 100.792 316.691 100.617 316.261C100.442 315.83 100.38 315.362 100.437 314.901C100.489 313.68 100.631 312.465 100.861 311.265C100.832 309.92 101.193 308.595 101.901 307.451Z" fill="#262836"/>
<path d="M88.5152 315.94C89.0582 316.255 89.6583 316.459 90.2809 316.541C91.3558 316.807 92.474 316.849 93.5658 316.664C94.1091 316.563 94.612 316.309 95.0147 315.931C95.4175 315.553 95.7032 315.067 95.8379 314.532C95.8379 314.204 96.0842 313.739 96.3717 313.889C96.4357 313.935 96.4875 313.996 96.5222 314.067C97.2783 315.531 97.6813 317.15 97.6993 318.797C97.8527 319.676 97.7773 320.58 97.4803 321.422C97.2402 321.885 96.897 322.287 96.4771 322.598C96.0571 322.908 95.5716 323.119 95.0577 323.213C94.0401 323.404 92.9957 323.404 91.9781 323.213C91.1021 323.076 90.2398 322.912 89.3912 322.693C89.0123 322.64 88.6538 322.489 88.351 322.256C88.0952 322.011 87.8986 321.712 87.7761 321.381C87.0773 319.754 86.8178 317.972 87.0233 316.213C87.0605 315.84 87.1245 315.47 87.2149 315.106C87.2149 314.942 87.3244 314.217 87.5571 314.299C87.7898 314.382 87.735 314.477 87.735 314.641C87.7392 314.814 87.7715 314.985 87.8308 315.147C87.9769 315.472 88.2147 315.748 88.5152 315.94Z" fill="#262836"/>
<path d="M239.403 81.9987C239.174 80.9763 239.345 79.9051 239.882 79.0049C240.329 78.486 240.912 78.1024 241.566 77.8976C242.247 77.6404 242.953 77.4571 243.673 77.3508C244.032 77.3189 244.381 77.2167 244.7 77.05C244.958 76.8311 245.18 76.5727 245.357 76.2845C245.889 75.6982 246.551 75.2454 247.291 74.9627C248.03 74.6801 248.826 74.5756 249.614 74.6577C251.188 74.6577 252.734 75.1225 254.308 75.1908C255.882 75.2592 257.785 74.9721 259.208 75.847C260.297 76.6606 261.043 77.8496 261.303 79.1826C261.855 79.1047 262.417 79.2364 262.877 79.5517C263.739 80.3446 262.877 81.9577 263.629 82.9009C263.985 83.3521 264.615 83.5434 264.998 84.0219C265.243 84.478 265.316 85.0068 265.203 85.512C265.167 86.0684 265.089 86.6213 264.971 87.1661C264.588 88.6698 263.602 89.9002 263.137 91.4176C262.904 92.2105 262.849 93.0444 262.658 93.8372C262.122 95.5936 261.263 97.2347 260.126 98.6766C260.916 95.0818 261.005 91.3684 260.386 87.7402C260.398 87.573 260.358 87.4061 260.273 87.2619C260.187 87.1176 260.059 87.0031 259.907 86.9337C259.688 86.882 259.457 86.9162 259.263 87.0294C255.619 88.4674 251.594 88.6265 247.848 87.4805C246.783 87.0073 245.613 86.8189 244.454 86.9337C243.987 87.0729 243.53 87.2419 243.085 87.4395C242.618 87.6171 242.101 87.6171 241.634 87.4395C241.538 87.6402 241.486 87.8595 241.484 88.082C240.594 87.877 240.649 86.5919 240.402 85.8811C239.946 84.6217 239.612 83.3217 239.403 81.9987Z" fill="#2F3554"/>
<path d="M263.041 95.0266C263.134 95.1665 263.195 95.3252 263.219 95.4914C263.407 96.4305 263.236 97.4061 262.74 98.2255C262.257 99.0549 261.538 99.7214 260.673 100.139C260.449 100.269 260.2 100.349 259.942 100.372C259.684 100.396 259.425 100.363 259.181 100.276C258.943 100.113 258.747 99.8979 258.607 99.6464C258.466 99.3949 258.387 99.1144 258.374 98.827C258.243 98.2443 258.242 97.6403 258.37 97.0571C258.497 96.4739 258.751 95.9255 259.113 95.4504C259.424 95.1374 259.795 94.8911 260.205 94.7266C260.614 94.5621 261.053 94.4827 261.494 94.4935C261.775 94.4647 262.059 94.4975 262.326 94.5896C262.594 94.6816 262.837 94.8308 263.041 95.0266Z" fill="#FDB9A9"/>
<path d="M249.436 108.013C249.504 108.574 249.066 109.066 249.011 109.627C248.957 110.187 249.011 110.857 249.011 111.472C248.983 112.249 248.726 113 248.272 113.632C247.728 114.18 247.04 114.564 246.288 114.739C244.747 115.315 243.115 115.611 241.47 115.614C240.789 115.576 240.112 115.489 239.444 115.354C238.363 115.177 235.557 115.272 235.338 113.796C235.405 112.986 235.628 112.197 235.995 111.472C236.118 111.076 236.228 110.679 236.337 110.283C236.447 109.886 236.597 109.298 236.707 108.806C237.227 106.455 237.583 103.83 239.444 102.231C239.91 101.807 240.69 101.506 241.114 101.971C241.538 102.436 241.388 103.106 241.88 103.229C242.053 103.243 242.227 103.215 242.387 103.147C244.218 102.316 246.224 101.945 248.231 102.067C248.608 102.087 248.973 102.201 249.294 102.4C249.614 102.598 249.88 102.874 250.065 103.201C250.599 104.569 248.847 105.936 249.272 107.303C249.354 107.532 249.409 107.771 249.436 108.013Z" fill="#FDB9A9"/>
<path d="M245.384 160.562C245.018 160.194 244.614 159.864 244.18 159.578C244.454 164.65 245.289 169.954 248.396 173.973C249.205 174.894 249.959 175.861 250.654 176.871C252.023 179.168 252.132 182.148 253.884 184.171C255.423 185.645 257.385 186.601 259.496 186.905C261.336 187.546 263.35 187.468 265.135 186.686C266.555 185.623 267.603 184.14 268.133 182.449C269.323 179.619 271.513 175.531 269.707 172.469C268.42 170.296 264.369 168.573 261.905 168.573C258.522 167.714 255.217 166.576 252.023 165.169C250.425 164.621 248.928 163.818 247.588 162.791C246.794 162.121 246.137 161.287 245.384 160.562Z" fill="white"/>
<path opacity="0.1" d="M172.815 181.505C171.858 184.601 171.446 187.839 171.597 191.075C171.601 191.566 171.551 192.057 171.446 192.537C171.268 192.182 171.076 192.004 170.885 192.059C166.012 193.426 155.555 196.16 150.6 197.035C149.884 197.208 149.141 197.245 148.41 197.144C147.658 196.952 146.957 196.597 146.357 196.105C140.226 191.608 136.776 184.909 134.6 177.855C134.754 176.634 135.024 175.43 135.408 174.26C138.323 175.832 139.842 179.058 141.663 181.834C143.417 184.532 145.577 186.943 148.068 188.983C148.563 189.441 149.152 189.786 149.793 189.995C150.552 190.141 151.335 190.108 152.079 189.899C159.524 188.491 167.408 186.796 172.815 181.505Z" fill="#020202"/>
<path opacity="0.1" d="M280.396 199.632C276.11 203.788 271.581 207.687 266.832 211.307C263.452 213.918 259.838 216.488 255.622 217.308C253.945 217.705 252.187 217.596 250.572 216.994C249.235 216.31 248.037 215.382 247.041 214.26C245.822 213.057 231.861 197.008 231.629 197.008C230.84 197.431 230.232 198.125 229.918 198.962C227.894 203.127 226.647 207.625 226.236 212.236C226.072 214.302 226.072 216.377 226.236 218.443C226.783 225.456 229.247 232.687 226.811 239.304C226.336 240.711 225.534 241.985 224.47 243.022C223.436 243.898 222.254 244.583 220.98 245.045C218.229 246.137 215.419 247.072 212.562 247.848C211.178 248.261 209.717 248.35 208.292 248.107C207.471 247.943 205.404 246.481 204.829 246.549C206.919 246.248 208.883 245.371 210.5 244.016C212.118 242.661 213.325 240.883 213.986 238.88C214.958 235.722 214.479 232.332 214.492 229.024C214.612 225.186 215.07 221.366 215.861 217.609L218.79 201.601C219.776 196.133 221.774 188.368 227.468 185.907C228.604 185.415 229.849 186.222 230.835 186.987C237.432 192.155 244.153 197.445 248.888 204.376C250.257 206.303 251.503 208.477 253.665 209.352C255.828 210.227 258.661 209.448 261.002 208.504C264.493 207.097 267.889 205.467 271.171 203.624C273.635 202.257 276.892 199.154 279.958 199.523C280.108 199.545 280.254 199.582 280.396 199.632Z" fill="#020202"/>
</g>
<defs>
<linearGradient id="paint0_linear_13_1056" x1="194.208" y1="288.066" x2="194.208" y2="409.691" gradientUnits="userSpaceOnUse">
<stop offset="0.01"/>
<stop offset="0.08" stop-opacity="0.69"/>
<stop offset="0.21" stop-opacity="0.32"/>
<stop offset="1" stop-opacity="0"/>
</linearGradient>
<linearGradient id="paint1_linear_13_1056" x1="34245" y1="4369.35" x2="34387.8" y2="1124.73" gradientUnits="userSpaceOnUse">
<stop offset="0.01"/>
<stop offset="0.08" stop-opacity="0.69"/>
<stop offset="0.21" stop-opacity="0.32"/>
<stop offset="1" stop-opacity="0"/>
</linearGradient>
<linearGradient id="paint2_linear_13_1056" x1="7196.6" y1="4759.41" x2="7339.74" y2="1510.72" gradientUnits="userSpaceOnUse">
<stop offset="0.01"/>
<stop offset="0.08" stop-opacity="0.69"/>
<stop offset="0.21" stop-opacity="0.32"/>
<stop offset="1" stop-opacity="0"/>
</linearGradient>
<linearGradient id="paint3_linear_13_1056" x1="-237446" y1="-5409.35" x2="-237540" y2="307.826" gradientUnits="userSpaceOnUse">
<stop offset="0.01"/>
<stop offset="0.08" stop-opacity="0.69"/>
<stop offset="0.21" stop-opacity="0.32"/>
<stop offset="1" stop-opacity="0"/>
</linearGradient>
<linearGradient id="paint4_linear_13_1056" x1="2645.04" y1="10050.6" x2="5190.19" y2="10177.9" gradientUnits="userSpaceOnUse">
<stop offset="0.01"/>
<stop offset="0.08" stop-opacity="0.69"/>
<stop offset="0.21" stop-opacity="0.32"/>
<stop offset="1" stop-opacity="0"/>
</linearGradient>
<linearGradient id="paint5_linear_13_1056" x1="6632.8" y1="20857.1" x2="18752.4" y2="14710.7" gradientUnits="userSpaceOnUse">
<stop offset="0.01"/>
<stop offset="0.08" stop-opacity="0.69"/>
<stop offset="0.21" stop-opacity="0.32"/>
<stop offset="1" stop-opacity="0"/>
</linearGradient>
<clipPath id="clip0_13_1056">
<rect width="542" height="408" fill="white"/>
</clipPath>
</defs>
</svg>
