<svg width="605" height="456" viewBox="0 0 605 456" fill="none" xmlns="http://www.w3.org/2000/svg">
<g clip-path="url(#clip0_48_33)">
<path opacity="0.18" d="M151.181 49.554C132.559 72.4906 120.963 101.008 104.914 126.062C93.0401 144.783 78.5544 161.545 66.4829 180.187C42.4191 217.313 27.8937 262.573 30.5455 307.793C33.1973 353.013 54.2927 397.659 89.4583 422.416C111.048 437.635 136.596 444.858 162.006 449.548C247.555 465.38 339.635 453.19 412.736 402.706C425.283 394.038 437.295 384.261 450.91 377.691C485.878 360.791 531.235 364.709 556.585 333.678C571.842 314.997 575.206 288.28 574.692 263.365C574.078 233.442 568.221 202.016 549.995 179.574C526.248 150.146 487.461 142.27 455.362 124.162C424.076 106.608 398.844 79.0015 371.97 54.3432C307.319 -5.00686 214.309 -28.2007 151.181 49.554Z" fill="#6C63FF"/>
<path d="M461.359 295.167C461.363 296.998 460.99 298.811 460.265 300.493C459.54 302.174 458.478 303.689 457.144 304.943C454.859 307.114 451.91 308.452 448.773 308.743C448.187 308.793 447.597 308.793 447.011 308.743L348.718 306.764C344.95 306.723 341.346 305.214 338.674 302.556C336.002 299.899 334.472 296.303 334.41 292.535C334.403 290.704 334.77 288.891 335.488 287.206C336.206 285.522 337.26 284.002 338.586 282.739C341.315 280.144 344.953 278.723 348.718 278.781H352.062C351.371 276.354 351.018 273.844 351.013 271.32C351.008 267.713 351.739 264.144 353.161 260.829C354.583 257.515 356.667 254.526 359.285 252.045C361.596 249.835 364.275 248.047 367.201 246.761C370.993 245.108 375.098 244.298 379.233 244.386L387.584 244.564C392.779 244.67 397.851 246.17 402.268 248.906C406.686 251.642 410.288 255.515 412.697 260.119C415.105 258.974 417.749 258.411 420.415 258.477H422.572C427.045 258.522 431.325 260.312 434.499 263.464C437.674 266.617 439.494 270.884 439.571 275.357V276.169C439.569 277.711 439.342 279.244 438.898 280.72L447.031 280.879C450.808 280.93 454.417 282.45 457.092 285.118C459.767 287.785 461.297 291.39 461.359 295.167Z" fill="white"/>
<path d="M448.773 308.743C448.187 308.793 447.597 308.793 447.011 308.743L348.718 306.764C344.95 306.723 341.346 305.214 338.674 302.556C336.002 299.899 334.472 296.303 334.41 292.535C334.403 290.704 334.77 288.891 335.488 287.206C336.206 285.522 337.26 284.002 338.586 282.739C334.628 307.021 360.057 303.538 360.057 303.538H423.917L448.773 308.743Z" fill="url(#paint0_linear_48_33)"/>
<path d="M359.266 281.71L352.122 278.999C351.43 276.572 351.077 274.061 351.073 271.538C351.067 267.931 351.798 264.361 353.22 261.047C354.643 257.732 356.727 254.743 359.345 252.262C361.655 250.053 364.334 248.265 367.26 246.979C347.491 263.919 359.266 281.71 359.266 281.71Z" fill="url(#paint1_linear_48_33)"/>
<path opacity="0.23" d="M240.015 433.341C309.46 433.341 365.756 382.491 365.756 319.766C365.756 257.041 309.46 206.191 240.015 206.191C170.57 206.191 114.274 257.041 114.274 319.766C114.274 382.491 170.57 433.341 240.015 433.341Z" fill="#6C63FF"/>
<path d="M396.133 300.946C396.167 327.313 387.585 352.97 371.693 374.01L371.436 374.366C354.023 397.317 329.019 413.33 300.889 419.546C272.76 425.762 243.337 421.775 217.875 408.299C192.413 394.822 172.571 372.733 161.892 345.977C151.213 319.22 150.392 289.539 159.577 262.233C168.762 234.927 187.354 211.776 212.033 196.914C236.712 182.052 265.87 176.446 294.3 181.099C322.73 185.751 348.58 200.359 367.234 222.313C385.888 244.267 396.131 272.137 396.133 300.946Z" fill="#6C63FF"/>
<path d="M235.602 241.2C228.933 243.951 221.572 244.604 214.725 246.86C207.877 249.116 201.011 253.668 199.249 260.713C198.339 264.255 198.814 268.193 197.072 271.399C194.757 275.714 189.335 277.336 186.05 280.899C179.796 287.785 183.913 299.6 191.551 304.924C199.19 310.247 208.946 311.058 218.089 312.622C220.591 312.821 222.975 313.766 224.936 315.333C230.259 320.419 224.362 329.621 226.618 336.627C227.884 340.585 231.625 343.296 233.326 347.096C236.592 354.339 231.644 362.334 228.379 369.577C222.49 382.791 221.958 397.775 226.895 411.374C226.667 411.702 226.416 412.013 226.143 412.304C213.12 406.589 201.193 398.646 190.898 388.833C180.865 374.762 172.929 359.425 173.761 342.564C174.216 333.421 177.263 324.595 177.837 315.491C178.787 300.708 173.444 284.659 180.687 271.756C184.645 264.611 192.363 256.775 188.049 249.848C180.43 250.956 172.217 251.134 165.231 248.483C173.803 230.625 186.611 215.133 202.539 203.358C218.467 191.582 237.033 183.879 256.618 180.92C264.138 202.412 258.162 231.701 235.602 241.2Z" fill="url(#paint2_linear_48_33)"/>
<path d="M396.133 300.946C396.141 308.629 395.419 316.296 393.976 323.843C390.749 326.467 387.726 329.331 384.932 332.412C375.334 343.652 373.257 359.247 371.693 373.971C371.693 374.287 371.693 374.604 371.594 374.901C371.594 374.703 371.594 374.525 371.436 374.327C370.672 370.546 369.024 366.999 366.627 363.977C363.896 361.028 359.048 359.564 355.723 361.879C354.14 357.921 352.55 353.996 350.954 350.104C341.059 350.104 330.848 350.104 321.547 346.601C312.246 343.098 304.548 336.39 297.107 329.839C298.084 318.489 297.872 307.067 296.474 295.761C325.378 292.624 352.114 278.949 371.575 257.349C354.17 256.481 336.914 260.933 322.101 270.113C318.935 272.092 315.729 274.308 312.028 274.625C309.684 274.684 307.345 274.363 305.102 273.675L281.177 267.6C278.189 252.203 288.855 236.747 302.569 229.128C312.86 223.429 325.347 224.537 335.222 219.55C341.99 216.146 343.968 210.189 349.885 205.815H350.004C364.378 217.159 375.995 231.611 383.985 248.087C391.974 264.563 396.127 282.635 396.133 300.946Z" fill="url(#paint3_linear_48_33)"/>
<path d="M312.266 276.347C311.553 278.682 310.881 281.413 312.266 283.372C312.947 284.21 313.843 284.846 314.858 285.213C316.04 285.777 317.355 286.004 318.658 285.867C319.96 285.731 321.2 285.237 322.24 284.441C323.326 283.253 324.095 281.81 324.476 280.245C326.326 274.567 327.651 268.731 328.434 262.811C328.583 262.266 328.583 261.692 328.434 261.148C328.125 260.577 327.629 260.13 327.029 259.882C323.882 258.199 318.955 256.854 317.134 260.574C314.898 265.363 313.849 271.281 312.266 276.347Z" fill="#FBC4D6"/>
<path d="M321.785 279.058C322.449 278.967 323.126 279.028 323.763 279.236C324.198 279.477 324.576 279.807 324.872 280.206L331.699 287.865C333.025 289.349 334.41 291.387 333.48 293.149C333.152 293.639 332.719 294.049 332.213 294.351C331.706 294.652 331.138 294.836 330.551 294.89C327.244 295.193 323.92 294.54 320.973 293.01C318.876 292.1 316.798 291.031 314.759 290.041C313.245 289.354 311.92 288.308 310.9 286.994C309.337 284.619 308.921 278.92 311.652 277.099C313.057 276.208 314.284 276.842 315.61 277.455C317.506 278.488 319.626 279.038 321.785 279.058Z" fill="#6C63FF"/>
<path d="M350.103 302.43C350.156 302.87 350.109 303.317 349.965 303.736C349.729 304.143 349.387 304.478 348.975 304.706C347.677 305.6 346.156 306.114 344.582 306.19C343.796 306.22 343.014 306.067 342.296 305.744C341.579 305.422 340.945 304.938 340.446 304.33C339.718 303.178 339.276 301.868 339.16 300.51C338.58 297.591 338.295 294.621 338.309 291.644C338.274 291.47 338.278 291.289 338.32 291.116C338.362 290.943 338.442 290.781 338.553 290.642C338.664 290.502 338.804 290.389 338.964 290.309C339.123 290.229 339.298 290.185 339.476 290.18C341.93 289.666 346.818 288.379 348.065 291.387C349.335 294.934 350.023 298.663 350.103 302.43Z" fill="#FBC4D6"/>
<path d="M360.493 302.133C362.601 302.247 364.685 302.646 366.687 303.321C367.682 303.665 368.595 304.209 369.371 304.921C370.147 305.632 370.769 306.495 371.199 307.457C371.598 308.398 371.647 309.451 371.337 310.425C370.654 311.871 369.453 313.007 367.973 313.611C360.94 317.349 353.005 319.055 345.057 318.539C343.017 318.621 341.025 317.912 339.496 316.56C338.392 314.926 337.876 312.965 338.032 310.999L337.755 301.698C339.545 301.778 341.293 302.272 342.86 303.142C345.789 304.132 346.937 301.757 349.351 301.163C352.498 300.431 357.287 301.817 360.493 302.133Z" fill="#6C63FF"/>
<path d="M321.785 279.058C322.449 278.967 323.126 279.028 323.763 279.236C324.198 279.477 324.576 279.807 324.872 280.206L331.699 287.865C333.025 289.349 334.41 291.387 333.48 293.149C333.152 293.639 332.719 294.049 332.213 294.351C331.706 294.652 331.138 294.836 330.551 294.89C327.244 295.193 323.92 294.54 320.973 293.01C318.876 292.1 316.798 291.031 314.759 290.041C313.245 289.354 311.92 288.308 310.9 286.994C309.337 284.619 308.921 278.92 311.652 277.099C313.057 276.208 314.284 276.842 315.61 277.455C317.506 278.488 319.626 279.038 321.785 279.058Z" fill="url(#paint4_linear_48_33)"/>
<path d="M360.493 302.133C362.601 302.247 364.685 302.646 366.687 303.321C367.682 303.665 368.595 304.209 369.371 304.921C370.147 305.632 370.769 306.495 371.199 307.457C371.598 308.398 371.647 309.451 371.337 310.425C370.654 311.871 369.453 313.007 367.973 313.611C360.94 317.349 353.005 319.055 345.057 318.539C343.017 318.621 341.025 317.912 339.496 316.56C338.392 314.926 337.876 312.965 338.032 310.999L337.755 301.698C339.545 301.778 341.293 302.272 342.86 303.142C345.789 304.132 346.937 301.757 349.351 301.163C352.498 300.431 357.287 301.817 360.493 302.133Z" fill="url(#paint5_linear_48_33)"/>
<path d="M247.753 201.363C243.496 200.993 239.213 201.059 234.969 201.561C234.414 201.589 233.876 201.759 233.406 202.055C233.135 202.31 232.919 202.616 232.769 202.956C232.62 203.296 232.54 203.663 232.535 204.034C231.941 209.773 236.493 214.761 241.401 217.788C254.679 226.021 271.421 225.704 286.085 231.087C287.484 231.458 288.726 232.27 289.627 233.403C290.239 234.63 290.538 235.99 290.498 237.361C291.151 245.099 295.445 252.065 296.87 259.684C298.295 267.303 296.771 275.278 297.939 282.957C302.747 277.831 310.94 277.02 315.749 271.953C320.261 267.283 321.152 260.317 321.824 253.865L323.645 236.173C323.982 234.897 323.843 233.542 323.253 232.362C322.663 231.181 321.662 230.257 320.439 229.761C298.79 215.77 273.42 203.579 247.753 201.363Z" fill="url(#paint6_linear_48_33)"/>
<path d="M335.301 199.582C337.301 199.983 339.155 200.92 340.664 202.293C342.211 204.448 342.915 207.095 342.643 209.734C342.596 228.512 339.045 247.116 332.174 264.592C332.11 265.206 331.895 265.795 331.551 266.307C331.206 266.82 330.74 267.24 330.196 267.531C329.651 267.822 329.043 267.975 328.425 267.976C327.808 267.978 327.199 267.828 326.653 267.54C322.538 266.43 318.482 265.109 314.502 263.582L319.885 227.96C320.142 226.972 320.087 225.928 319.727 224.972C319.329 224.294 318.772 223.724 318.104 223.31C311.964 218.844 305.48 214.873 298.71 211.436C293.308 208.705 287.114 205.499 285.649 199.72C285.346 198.733 285.284 197.687 285.47 196.671C285.656 195.654 286.084 194.698 286.718 193.882C287.574 193.041 288.581 192.37 289.686 191.903C293.268 190.142 297.78 187.945 301.896 188.301C305.201 188.638 306.468 190.538 309.219 191.943C316.857 195.742 327.009 197.167 335.301 199.582Z" fill="#282328"/>
<path d="M298.532 142.923C301.184 150.226 302.49 157.963 304.825 165.345C305.336 167.302 306.253 169.129 307.517 170.708C309.195 172.318 311.229 173.511 313.453 174.191C316.554 175.392 319.707 176.441 322.913 177.338C325.05 177.912 327.603 178.901 327.84 181.078C327.891 181.804 327.74 182.53 327.405 183.176C326.578 184.65 325.387 185.888 323.946 186.771C322.505 187.655 320.861 188.154 319.172 188.222C315.801 188.313 312.444 187.762 309.278 186.599C306.395 186.016 303.751 184.59 301.679 182.503C300.501 180.767 299.674 178.817 299.245 176.764C295.997 165.235 291.491 154.099 285.808 143.556C284.108 140.772 282.777 137.778 281.85 134.651C280.544 129.189 280.524 116.246 286.164 120.996C290.715 124.835 296.533 137.501 298.532 142.923Z" fill="#FBC4D6"/>
<path d="M276.942 198.889C280.278 197.596 283.524 196.082 286.659 194.357C298.532 187.787 288.816 184.561 284.858 176.665C282.028 171.064 283.176 164.356 284.64 158.28C287.232 147.593 290.696 136.511 288.202 125.844C287.891 124.113 287.216 122.467 286.223 121.016C285.497 120.115 284.659 119.31 283.73 118.621C281.223 116.456 278.338 114.772 275.22 113.654C269.284 111.675 262.555 113.119 256.915 115.949C234.751 127.071 230.022 155.153 230.912 177.615C231.15 183.849 232.119 190.439 236.136 195.208C240.154 199.977 245.833 201.798 251.651 202.511C260.251 203.39 268.935 202.146 276.942 198.889Z" fill="white"/>
<path d="M243.894 186.184C244.073 188.292 244.751 190.327 245.873 192.121C247.852 194.911 251.493 195.94 254.837 196.752L269.897 200.472C271.732 201.029 273.639 201.315 275.557 201.323C279.673 201.125 283.215 198.493 286.48 195.96C287.315 195.389 288.039 194.672 288.618 193.843C280.306 193.051 272.014 192.22 263.743 191.013C258.874 190.3 253.729 189.311 250.147 185.966C248.297 184.138 246.889 181.911 246.031 179.455C245.437 177.931 245.16 174.053 243.439 173.716C243.005 177.873 243.158 182.07 243.894 186.184Z" fill="url(#paint7_linear_48_33)"/>
<path d="M273.617 131.049C273.616 131.673 273.367 132.271 272.925 132.711C272.513 132.954 272.033 133.051 271.559 132.988C270.008 132.916 268.491 132.512 267.11 131.803C265.729 131.095 264.515 130.098 263.551 128.881C262.587 127.664 261.895 126.255 261.522 124.748C261.149 123.241 261.103 121.671 261.388 120.145C261.744 118.166 262.595 116.464 263.129 114.604C264.178 110.883 264 106.688 266.355 103.62C268.394 108.285 270.72 112.819 273.321 117.196C273.985 118.066 274.447 119.074 274.673 120.146C274.899 121.217 274.883 122.326 274.627 123.39L273.617 131.049Z" fill="#FBC4D6"/>
<path d="M274.785 121.471L273.895 127.408C273.895 127.408 263.703 122.361 265.029 113.001C266.355 103.64 274.785 121.471 274.785 121.471Z" fill="url(#paint8_linear_48_33)"/>
<path d="M286.698 115.692C286.176 117.594 285.068 119.283 283.532 120.521C282.799 121.017 281.981 121.373 281.118 121.57C278.087 122.158 274.949 121.772 272.151 120.467C269.354 119.162 267.041 117.006 265.543 114.307C264.132 111.572 263.327 108.566 263.184 105.492C263.04 102.418 263.562 99.3497 264.712 96.4958C265.654 93.3657 267.786 90.7297 270.649 89.1537C272.215 88.5363 273.909 88.3162 275.58 88.513C277.251 88.7099 278.848 89.3175 280.227 90.2817C283.976 92.8991 286.873 96.5601 288.558 100.81C290.003 105.144 288.182 111.556 286.698 115.692Z" fill="#FBC4D6"/>
<path d="M331.442 224.458C333.978 227.688 335.982 231.302 337.379 235.164C345.161 253.933 350.219 273.719 352.399 293.92C346.045 294.712 339.617 294.712 333.262 293.92C332.765 279.659 330.566 265.508 326.712 251.768C326.031 248.81 324.861 245.988 323.249 243.416C320.419 239.32 315.769 236.945 311.376 234.729C301.096 229.733 290.352 225.756 279.297 222.855C274.627 221.568 269.917 220.381 265.326 218.897C261.467 217.59 250.642 212.801 247.515 210.209C245.877 208.966 244.506 207.406 243.486 205.62C242.466 203.835 241.817 201.862 241.579 199.819C241.579 200.848 271.738 202.906 273.895 202.669C281.157 201.897 289.726 197.741 296.89 200.69C302.49 202.986 307.616 207.775 312.721 211.08C318.915 214.958 326.475 218.719 331.442 224.458Z" fill="#473F47"/>
<path d="M298.394 222.934L261.586 204.945L304.746 186.639L341.574 202.728L298.394 222.934Z" fill="#6C63FF"/>
<path d="M242.331 138.47C242.331 139.163 242.153 139.836 242.073 140.449C240.985 150.582 241.974 160.516 242.35 170.589C242.588 176.823 243.399 188.697 250.029 191.883C262.417 197.82 286.322 195.564 286.322 195.564C289.094 195.12 291.927 195.234 294.654 195.901C296.138 196.356 297.503 197.128 298.948 197.682C304.172 199.661 310.01 198.671 315.511 197.682C316.459 197.569 317.375 197.266 318.203 196.791C319.163 195.938 319.749 194.742 319.834 193.461C319.919 192.18 319.497 190.916 318.658 189.944C316.872 188.067 314.55 186.789 312.009 186.283C305.061 184.015 297.619 183.727 290.518 185.452C289.61 185.757 288.685 186.009 287.747 186.204C286.648 186.382 285.536 186.461 284.422 186.441H275.992C266.295 186.441 257.153 186.56 255.688 175.22C255.148 171.02 255.042 166.776 255.372 162.555C255.946 154.936 257.944 147.376 257.529 139.757C257.504 137.34 256.9 134.965 255.768 132.83C255.194 131.77 254.357 130.875 253.339 130.231C252.32 129.586 251.153 129.214 249.949 129.149C248.703 129.242 247.502 129.655 246.462 130.349C245.422 131.042 244.578 131.992 244.013 133.107C243.137 134.78 242.567 136.597 242.331 138.47Z" fill="#FBC4D6"/>
<path d="M356.733 166.433L305.28 192.616L298.394 222.934L341.574 202.728L356.733 166.433Z" fill="#6C63FF"/>
<path d="M289.231 104.768C289.175 102.884 288.477 101.076 287.252 99.6424C286.631 98.9211 285.895 98.3061 285.075 97.8217C283.928 97.1489 283.651 97.0895 282.899 98.1779C281.929 99.583 281.612 101.226 280.722 102.69C279.747 104.314 278.388 105.674 276.764 106.648C274.939 107.781 272.815 108.339 270.669 108.251C269.816 108.122 268.949 108.122 268.096 108.251C267.81 108.305 267.539 108.422 267.303 108.593C267.067 108.764 266.871 108.985 266.731 109.241C266.527 109.981 266.453 110.751 266.513 111.516C266.335 113.495 264.376 114.9 263.287 116.622C262.199 118.344 261.882 120.897 260.576 122.737C260.334 123.107 260 123.407 259.607 123.608C258.677 124.004 257.628 123.489 256.658 123.311C253.789 122.816 251.473 125.488 249.019 127.111C244.092 130.356 237.64 129.525 231.822 128.556C230.041 128.34 228.305 127.846 226.677 127.091C224.919 126.054 223.358 124.714 222.066 123.133C219.909 120.758 217.772 118.344 215.655 115.93C214.868 115.157 214.242 114.235 213.814 113.218C213.588 112.509 213.527 111.758 213.636 111.022C213.829 109.647 214.236 108.312 214.843 107.064C216.387 103.6 218.188 99.8403 221.671 98.2769C225.153 96.7135 229.27 97.8811 233.109 97.4853C233.576 97.4843 234.033 97.3392 234.415 97.0697C234.72 96.7245 234.938 96.3102 235.048 95.8625C236.651 90.539 238.65 84.7603 243.439 82.0095C247.129 80.2368 251.289 79.6891 255.312 80.4461C259.296 81.1989 263.36 81.4317 267.404 81.1388C269.383 80.8221 271.361 80.1691 273.34 79.7733C277.968 78.745 282.812 79.4491 286.955 81.7523C289 82.9691 290.711 84.6749 291.934 86.7163C293.156 88.7578 293.853 91.0709 293.961 93.4481C293.882 94.3766 293.882 95.3101 293.961 96.2385C294.099 97.1093 294.475 97.9602 294.614 98.831C294.695 99.5836 294.616 100.345 294.382 101.065C294.147 101.785 293.763 102.447 293.255 103.007C292.746 103.568 292.125 104.015 291.432 104.319C290.738 104.622 289.988 104.775 289.231 104.768Z" fill="#FF681C"/>
<path d="M240.53 144.091C239.92 149.691 239.853 155.338 240.332 160.952C240.308 161.439 240.432 161.922 240.688 162.337C241.109 162.797 241.689 163.081 242.311 163.129C245.516 163.725 248.767 164.036 252.027 164.059C252.485 164.205 252.969 164.248 253.445 164.186C253.921 164.124 254.378 163.957 254.782 163.698C255.186 163.44 255.529 163.095 255.785 162.688C256.041 162.282 256.204 161.824 256.262 161.347C258.043 153.906 259.805 146.465 261.15 138.925C261.685 135.898 262.061 132.494 260.24 130.04C257.608 126.478 250.504 126.082 247.08 128.674C242.944 131.86 241.183 139.301 240.53 144.091Z" fill="white"/>
<path d="M296.534 134.591L302.134 148.009C302.411 148.531 302.521 149.125 302.451 149.711C302.308 150.192 302.034 150.624 301.659 150.958C298.923 153.851 295.676 156.212 292.081 157.924C288.766 154.962 286.075 151.37 284.165 147.356C282.305 142.587 282.721 137.283 283.275 132.197C283.611 128.971 283.492 118.601 288.974 122.619C292.793 125.369 294.812 130.455 296.534 134.591Z" fill="white"/>
<path d="M195.232 260.456C195.234 262.285 194.863 264.095 194.141 265.776C193.42 267.457 192.364 268.973 191.037 270.232C188.75 272.399 185.802 273.736 182.666 274.031C182.079 274.061 181.491 274.061 180.905 274.031L82.6112 272.052C78.8376 272.012 75.2288 270.5 72.553 267.839C69.8771 265.178 68.3453 261.577 68.2837 257.804C68.2819 255.975 68.653 254.164 69.3743 252.483C70.0957 250.802 71.1521 249.286 72.479 248.027C73.8245 246.734 75.4121 245.718 77.1508 245.039C78.8894 244.36 80.745 244.03 82.6112 244.069H85.9555C85.2545 241.638 84.9014 239.119 84.9067 236.589C84.9 232.982 85.6303 229.412 87.0527 226.097C88.4752 222.783 90.5598 219.794 93.1786 217.313C95.4861 215.106 98.166 213.323 101.094 212.049C104.885 210.395 108.991 209.585 113.126 209.675L121.477 209.853C126.64 209.949 131.685 211.418 136.091 214.11C140.498 216.803 144.108 220.62 146.55 225.17C148.965 224.043 151.604 223.481 154.268 223.527H156.425C160.897 223.583 165.172 225.38 168.342 228.535C171.512 231.69 173.328 235.956 173.404 240.428V241.239C173.412 242.774 173.192 244.301 172.751 245.771L180.885 245.949C184.706 245.986 188.358 247.531 191.045 250.248C193.733 252.965 195.237 256.634 195.232 260.456Z" fill="white"/>
<path d="M182.666 274.031C182.079 274.061 181.491 274.061 180.905 274.031L82.6112 272.052C78.8376 272.012 75.2288 270.5 72.553 267.839C69.8771 265.178 68.3453 261.577 68.2837 257.804C68.2819 255.975 68.653 254.164 69.3743 252.483C70.0957 250.803 71.1521 249.286 72.479 248.027C68.6201 272.29 93.9504 268.827 93.9504 268.827H157.811L182.666 274.031Z" fill="url(#paint9_linear_48_33)"/>
<path d="M93.0795 246.998L85.9554 244.287C85.2543 241.856 84.9012 239.337 84.9066 236.807C84.8999 233.2 85.6301 229.629 87.0526 226.315C88.475 223 90.5596 220.011 93.1785 217.531C95.4859 215.323 98.1658 213.541 101.094 212.267C81.3643 229.207 93.0795 246.998 93.0795 246.998Z" fill="url(#paint10_linear_48_33)"/>
<path d="M454.511 145.436C454.513 147.267 454.14 149.079 453.415 150.76C452.69 152.442 451.629 153.957 450.296 155.213C448.001 157.38 445.048 158.717 441.906 159.012C441.32 159.062 440.73 159.062 440.144 159.012L341.871 157.033C338.129 156.983 334.553 155.485 331.893 152.854C329.232 150.223 327.694 146.664 327.603 142.923C327.582 141.075 327.942 139.243 328.661 137.541C329.379 135.839 330.44 134.302 331.778 133.028C334.516 130.434 338.159 129.014 341.93 129.07H345.255C344.563 126.643 344.21 124.133 344.206 121.609C344.2 118.003 344.931 114.433 346.354 111.118C347.776 107.804 349.86 104.815 352.478 102.334C354.786 100.121 357.465 98.3329 360.394 97.0499C364.184 95.3938 368.29 94.5834 372.425 94.6751L380.776 94.8532C385.94 94.9486 390.984 96.4203 395.388 99.1165C399.792 101.813 403.397 105.636 405.83 110.19C408.239 109.047 410.882 108.485 413.548 108.548H415.705C420.178 108.594 424.458 110.383 427.632 113.536C430.807 116.688 432.627 120.955 432.704 125.429V126.24C432.702 127.782 432.476 129.315 432.031 130.792L440.164 130.95C443.979 130.997 447.622 132.542 450.306 135.253C452.991 137.964 454.501 141.621 454.511 145.436Z" fill="white"/>
<path d="M441.925 159.012C441.339 159.062 440.75 159.062 440.164 159.012L341.891 157.033C338.146 156.988 334.564 155.493 331.9 152.861C329.235 150.23 327.695 146.667 327.603 142.923C327.582 141.075 327.942 139.243 328.661 137.541C329.379 135.839 330.44 134.302 331.778 133.028C327.82 157.31 353.25 153.827 353.25 153.827H417.11L441.925 159.012Z" fill="url(#paint11_linear_48_33)"/>
<path d="M352.359 131.979L345.215 129.268C344.524 126.841 344.171 124.331 344.166 121.807C344.161 118.2 344.892 114.631 346.314 111.316C347.736 108.002 349.82 105.013 352.438 102.532C354.746 100.319 357.426 98.5308 360.354 97.2478C340.644 114.188 352.359 131.979 352.359 131.979Z" fill="url(#paint12_linear_48_33)"/>
<path d="M268.235 108.291C267.948 108.345 267.677 108.462 267.441 108.633C267.205 108.804 267.01 109.025 266.869 109.28C266.665 110.02 266.591 110.79 266.652 111.556C266.474 113.535 264.514 114.94 263.426 116.662C262.338 118.383 262.021 120.936 260.715 122.777C260.472 123.146 260.138 123.446 259.745 123.648C258.815 124.043 257.766 123.529 256.797 123.351C253.927 122.856 251.612 125.528 249.158 127.15C244.23 130.396 237.779 129.565 231.961 128.595C230.13 128.381 228.346 127.874 226.677 127.091C224.919 126.053 223.358 124.714 222.066 123.133C219.909 120.758 217.772 118.344 215.655 115.93C214.868 115.157 214.242 114.235 213.814 113.218C213.588 112.509 213.527 111.758 213.636 111.022C214.559 110.464 215.517 109.969 216.506 109.537C219.539 107.909 223.085 107.519 226.4 108.449C229.052 109.478 230.932 111.833 233.208 113.515C236.381 115.737 240.242 116.758 244.099 116.396C247.957 116.033 251.559 114.311 254.264 111.536C255.261 110.222 256.433 109.05 257.746 108.053C260.101 106.767 264.89 106.965 268.235 108.291Z" fill="url(#paint13_linear_48_33)"/>
</g>
<defs>
<linearGradient id="paint0_linear_48_33" x1="395.619" y1="352.875" x2="386.653" y2="237.38" gradientUnits="userSpaceOnUse">
<stop offset="0.01"/>
<stop offset="0.13" stop-opacity="0.69"/>
<stop offset="0.25" stop-opacity="0.32"/>
<stop offset="1" stop-opacity="0"/>
</linearGradient>
<linearGradient id="paint1_linear_48_33" x1="2963.44" y1="5479.95" x2="3925.08" y2="5271.41" gradientUnits="userSpaceOnUse">
<stop offset="0.01"/>
<stop offset="0.13" stop-opacity="0.69"/>
<stop offset="0.25" stop-opacity="0.32"/>
<stop offset="1" stop-opacity="0"/>
</linearGradient>
<linearGradient id="paint2_linear_48_33" x1="11683.4" y1="60370.9" x2="-48.6684" y2="-24399.2" gradientUnits="userSpaceOnUse">
<stop offset="0.01"/>
<stop offset="0.13" stop-opacity="0.69"/>
<stop offset="0.25" stop-opacity="0.32"/>
<stop offset="1" stop-opacity="0"/>
</linearGradient>
<linearGradient id="paint3_linear_48_33" x1="21496.7" y1="43599.9" x2="16305.9" y2="-19105.1" gradientUnits="userSpaceOnUse">
<stop offset="0.01"/>
<stop offset="0.13" stop-opacity="0.69"/>
<stop offset="0.25" stop-opacity="0.32"/>
<stop offset="1" stop-opacity="0"/>
</linearGradient>
<linearGradient id="paint4_linear_48_33" x1="-21139.3" y1="2941.1" x2="-21544.6" y2="3206.08" gradientUnits="userSpaceOnUse">
<stop offset="0.01"/>
<stop offset="0.13" stop-opacity="0.69"/>
<stop offset="0.25" stop-opacity="0.32"/>
<stop offset="1" stop-opacity="0"/>
</linearGradient>
<linearGradient id="paint5_linear_48_33" x1="-29869.8" y1="3316.42" x2="-29987.2" y2="2811.73" gradientUnits="userSpaceOnUse">
<stop offset="0.01"/>
<stop offset="0.13" stop-opacity="0.69"/>
<stop offset="0.25" stop-opacity="0.32"/>
<stop offset="1" stop-opacity="0"/>
</linearGradient>
<linearGradient id="paint6_linear_48_33" x1="-85494.1" y1="7276.89" x2="-91062.8" y2="15892.5" gradientUnits="userSpaceOnUse">
<stop offset="0.01"/>
<stop offset="0.13" stop-opacity="0.69"/>
<stop offset="0.25" stop-opacity="0.32"/>
<stop offset="1" stop-opacity="0"/>
</linearGradient>
<linearGradient id="paint7_linear_48_33" x1="7271.87" y1="2283.44" x2="6358.22" y2="4472.94" gradientUnits="userSpaceOnUse">
<stop offset="0.01"/>
<stop offset="0.13" stop-opacity="0.69"/>
<stop offset="0.25" stop-opacity="0.32"/>
<stop offset="1" stop-opacity="0"/>
</linearGradient>
<linearGradient id="paint8_linear_48_33" x1="-7765.98" y1="1077.28" x2="-7968.27" y2="1332.2" gradientUnits="userSpaceOnUse">
<stop offset="0.01"/>
<stop offset="0.13" stop-opacity="0.69"/>
<stop offset="0.25" stop-opacity="0.32"/>
<stop offset="1" stop-opacity="0"/>
</linearGradient>
<linearGradient id="paint9_linear_48_33" x1="8292.36" y1="4530.69" x2="8265.32" y2="3002.81" gradientUnits="userSpaceOnUse">
<stop offset="0.01"/>
<stop offset="0.13" stop-opacity="0.69"/>
<stop offset="0.25" stop-opacity="0.32"/>
<stop offset="1" stop-opacity="0"/>
</linearGradient>
<linearGradient id="paint10_linear_48_33" x1="520.356" y1="4835.7" x2="1482.02" y2="4627.28" gradientUnits="userSpaceOnUse">
<stop offset="0.01"/>
<stop offset="0.13" stop-opacity="0.69"/>
<stop offset="0.25" stop-opacity="0.32"/>
<stop offset="1" stop-opacity="0"/>
</linearGradient>
<linearGradient id="paint11_linear_48_33" x1="23526.2" y1="2902.54" x2="23499.1" y2="1375.19" gradientUnits="userSpaceOnUse">
<stop offset="0.01"/>
<stop offset="0.13" stop-opacity="0.69"/>
<stop offset="0.25" stop-opacity="0.32"/>
<stop offset="1" stop-opacity="0"/>
</linearGradient>
<linearGradient id="paint12_linear_48_33" x1="2900.53" y1="2702.45" x2="3862.17" y2="2493.9" gradientUnits="userSpaceOnUse">
<stop offset="0.01"/>
<stop offset="0.13" stop-opacity="0.69"/>
<stop offset="0.25" stop-opacity="0.32"/>
<stop offset="1" stop-opacity="0"/>
</linearGradient>
<linearGradient id="paint13_linear_48_33" x1="8623.36" y1="1898" x2="7488.05" y2="-225.591" gradientUnits="userSpaceOnUse">
<stop offset="0.01"/>
<stop offset="0.13" stop-opacity="0.69"/>
<stop offset="0.25" stop-opacity="0.32"/>
<stop offset="1" stop-opacity="0"/>
</linearGradient>
<clipPath id="clip0_48_33">
<rect width="605" height="456" fill="white"/>
</clipPath>
</defs>
</svg>
