<svg width="498" height="375" viewBox="0 0 498 375" fill="none" xmlns="http://www.w3.org/2000/svg">
<g clip-path="url(#clip0_13_1321)">
<path opacity="0.18" d="M427.187 342.888C421.279 346.45 414.642 349.696 407.72 353.199C381.3 366.647 350.498 368.104 321.42 369.205L182.173 374.518C158.717 375.403 134.385 376.141 112.791 366.982C100.338 361.55 89.3131 353.31 80.581 342.908C66.6081 326.636 57.3125 305.651 52.6253 284.568C44.9643 250.075 47.3965 214.284 46.8155 178.965C46.4807 158.394 45.112 137.645 48.6471 117.369C52.1822 97.0925 61.3104 76.885 77.942 64.7448C100.305 48.4331 129.59 50.0368 155.734 46.6033C183.305 42.9828 206.938 29.5341 231.507 17.384C257.247 4.67314 286.562 -2.13484 315.315 0.590318C344.383 3.36467 365.456 16.5871 381.743 40.8578C392.978 57.6063 399.808 76.9124 401.605 96.9942C403.702 120.606 398.759 144.591 402.264 168.055C409.157 214.029 447.206 251.374 451.431 297.672C453.646 321.845 442.913 333.434 427.187 342.888Z" fill="#4A43B7"/>
<path opacity="0.41" d="M427.187 342.888C421.279 346.45 414.642 349.696 407.72 353.199C381.3 366.647 350.498 368.103 321.42 369.205L182.173 374.518C158.717 375.403 134.385 376.141 112.791 366.982C100.338 361.55 89.3131 353.31 80.581 342.908L427.187 342.888Z" fill="#4A43B7"/>
<path d="M243.737 76.6588C243.559 81.1056 244.17 85.5131 244.367 89.9894C244.519 91.6449 244.355 93.3141 243.884 94.9085C242.782 97.978 239.788 99.8964 236.992 101.589C235.219 102.661 233.2 104.196 233.447 106.262C233.617 107.04 234.035 107.743 234.639 108.265C235.242 108.786 235.999 109.098 236.795 109.154C238.391 109.225 239.981 108.915 241.433 108.249C244.404 107.283 247.126 105.678 249.409 103.546C253.869 98.9126 254.017 91.7406 253.682 85.3163C253.397 79.925 252.934 74.0025 250.196 69.2015C245.785 61.5277 243.894 72.8121 243.737 76.6588Z" fill="#4A43B7"/>
<path d="M243.737 76.6588C243.559 81.1056 244.17 85.5131 244.367 89.9894C244.519 91.6449 244.355 93.3141 243.884 94.9085C242.782 97.978 239.788 99.8964 236.992 101.589C235.219 102.661 233.2 104.196 233.447 106.262C233.617 107.04 234.035 107.743 234.639 108.265C235.242 108.786 235.999 109.098 236.795 109.154C238.391 109.225 239.981 108.915 241.433 108.249C244.404 107.283 247.126 105.678 249.409 103.546C253.869 98.9126 254.017 91.7406 253.682 85.3163C253.397 79.925 252.934 74.0025 250.196 69.2015C245.785 61.5277 243.894 72.8121 243.737 76.6588Z" fill="url(#paint0_linear_13_1321)"/>
<path d="M230.581 103.32C228.543 102.612 226.376 101.648 224.338 102.336C224.143 102.38 223.962 102.47 223.809 102.598C223.657 102.726 223.538 102.89 223.462 103.074C223.419 103.345 223.456 103.622 223.57 103.871L225.933 110.866C226.04 111.214 226.196 111.545 226.396 111.85C226.866 112.384 227.499 112.747 228.198 112.883C230.764 113.591 233.489 113.464 235.977 112.519C238.557 111.535 238.784 108.367 237.415 106.144C236.046 103.92 232.944 104.137 230.581 103.32Z" fill="url(#paint1_linear_13_1321)"/>
<path d="M225.776 90.678C226.445 90.8452 226.189 91.2388 226.258 91.9176C226.721 96.2267 226.327 101.077 227.243 105.297C228.159 109.518 230.975 113.256 231.497 117.566C229.419 113.316 227.558 109.282 226.504 104.619C226.317 103.468 224.761 90.678 225.776 90.678Z" fill="#3E3E54"/>
<path d="M243.569 131.064C243.569 131.064 224.013 154.4 237.051 174.401C250.088 194.401 273.219 209.277 282.022 224.408C290.825 239.539 274.853 255.949 269.31 259.018C263.766 262.088 213.26 299.286 244.544 337.487H350.134C350.134 337.487 384.353 302.877 327.318 261.075C327.318 261.075 286.581 240.306 324.709 210.812C362.837 181.317 369.68 153.239 351.601 131.319L243.569 131.064Z" fill="#4A43B7"/>
<path d="M243.569 131.064C243.569 131.064 224.013 154.4 237.051 174.401C250.088 194.401 273.219 209.277 282.022 224.408C290.825 239.539 274.853 255.949 269.31 259.018C263.766 262.088 213.26 299.286 244.544 337.487H350.134C350.134 337.487 384.353 302.877 327.318 261.075C327.318 261.075 286.581 240.306 324.709 210.812C362.837 181.317 369.68 153.239 351.601 131.319L243.569 131.064Z" fill="url(#paint2_linear_13_1321)"/>
<path d="M357.588 121.511H235.367C232.604 121.511 230.364 123.748 230.364 126.509V126.518C230.364 129.279 232.604 131.516 235.367 131.516H357.588C360.351 131.516 362.591 129.279 362.591 126.518V126.509C362.591 123.748 360.351 121.511 357.588 121.511Z" fill="#4A43B7"/>
<path d="M357.588 337.881H235.367C232.604 337.881 230.364 340.118 230.364 342.878V342.888C230.364 345.649 232.604 347.886 235.367 347.886H357.588C360.351 347.886 362.591 345.649 362.591 342.888V342.878C362.591 340.118 360.351 337.881 357.588 337.881Z" fill="#4A43B7"/>
<path d="M357.588 121.511H235.367C232.604 121.511 230.364 123.748 230.364 126.509V126.518C230.364 129.279 232.604 131.516 235.367 131.516H357.588C360.351 131.516 362.591 129.279 362.591 126.518V126.509C362.591 123.748 360.351 121.511 357.588 121.511Z" fill="url(#paint3_linear_13_1321)"/>
<path d="M357.588 337.881H235.367C232.604 337.881 230.364 340.118 230.364 342.878V342.888C230.364 345.649 232.604 347.886 235.367 347.886H357.588C360.351 347.886 362.591 345.649 362.591 342.888V342.878C362.591 340.118 360.351 337.881 357.588 337.881Z" fill="url(#paint4_linear_13_1321)"/>
<path d="M341.223 284.351C323.33 274.808 264.13 273.225 252.895 281.4C263.382 267.528 277.788 259.363 277.788 259.363C291.968 250.508 308.097 258.202 308.097 258.202C308.097 258.202 328.608 268.689 341.223 284.351Z" fill="url(#paint5_linear_13_1321)"/>
<path d="M340.848 336.72H252.363L248.946 333.65C238.843 316.375 241.324 301.116 247.961 288.975C249.416 286.35 251.062 283.834 252.885 281.449C264.12 273.225 323.321 274.809 341.213 284.401C343.044 286.659 344.69 289.061 346.136 291.583C347.092 293.249 347.928 294.982 348.637 296.767C357.46 319.031 340.848 336.72 340.848 336.72Z" fill="#4A43B7"/>
<path d="M346.166 291.533C341.941 306.9 299.816 283.456 280.191 281.695C267.232 280.544 253.544 288.424 253.544 288.424C253.544 288.424 249.123 290.028 247.941 288.956C249.396 286.33 251.042 283.815 252.865 281.43C264.1 273.205 323.301 274.789 341.193 284.381C343.04 286.628 344.703 289.02 346.166 291.533Z" fill="url(#paint6_linear_13_1321)"/>
<path d="M252.688 186.964C252.688 186.964 282.997 210.811 284.956 215.426C286.916 220.04 302.681 222.735 307.605 218.633C312.528 214.53 325.034 206.709 337.422 189.01C349.809 171.311 309.072 182.861 295.385 185.429C281.697 187.997 258.232 171.321 252.688 186.964Z" fill="#4A43B7"/>
<path d="M252.688 186.964C252.688 186.964 264.425 194.657 274.853 192.345C285.281 190.033 292.125 183.373 306.462 184.652C320.8 185.931 335.137 192.09 339.706 185.429C344.275 178.769 339.381 173.368 325.034 175.168C310.687 176.968 286.906 177.214 275.503 176.447C264.1 175.68 243.244 177.48 252.688 186.964Z" fill="#4A43B7"/>
<path d="M252.688 186.964C252.688 186.964 264.425 194.657 274.853 192.345C285.281 190.033 292.125 183.373 306.462 184.652C320.8 185.931 335.137 192.09 339.706 185.429C344.275 178.769 339.381 173.368 325.034 175.168C310.687 176.968 286.906 177.214 275.503 176.447C264.1 175.68 243.244 177.48 252.688 186.964Z" fill="url(#paint7_linear_13_1321)"/>
<path d="M295.069 226.631C294.236 227.178 293.558 227.93 293.1 228.815C292.935 229.087 292.829 229.39 292.789 229.705C292.748 230.02 292.773 230.34 292.864 230.645C293.003 230.979 293.24 231.263 293.544 231.46C293.848 231.657 294.205 231.757 294.567 231.747C295.185 231.688 295.773 231.452 296.261 231.068C297.246 230.429 298.329 229.612 298.181 228.618C298.033 227.625 296.497 226.916 295.178 226.523" fill="#4A43B7"/>
<path d="M300.564 235.731C300.232 235.816 299.921 235.967 299.648 236.174C299.51 236.292 299.432 236.42 299.54 236.548C299.763 236.715 300.04 236.795 300.318 236.774C300.582 236.758 300.843 236.712 301.096 236.637C301.549 236.499 302.081 236.332 301.972 236.135C301.864 235.938 301.204 235.79 300.603 235.712" fill="#4A43B7"/>
<path d="M295.266 238.614C294.934 238.699 294.623 238.849 294.351 239.057C294.213 239.175 294.144 239.313 294.242 239.431C294.466 239.598 294.742 239.678 295.02 239.657C295.284 239.646 295.546 239.6 295.798 239.519C296.251 239.391 296.783 239.224 296.684 239.017C296.586 238.811 295.906 238.673 295.306 238.594" fill="#4A43B7"/>
<path d="M303.686 252.043C303.259 251.861 302.8 251.764 302.337 251.758C302.081 251.758 301.854 251.817 301.795 252.004C301.801 252.158 301.843 252.309 301.919 252.444C301.994 252.579 302.1 252.694 302.228 252.781C302.485 252.975 302.771 253.128 303.075 253.233C303.636 253.45 304.267 253.666 304.454 253.44C304.641 253.214 304.178 252.564 303.735 252.043" fill="#4A43B7"/>
<path d="M288.048 269.535C287.625 269.355 287.17 269.258 286.709 269.25C286.443 269.25 286.217 269.319 286.168 269.496C286.118 269.673 286.266 270.008 286.591 270.273C286.85 270.47 287.139 270.623 287.448 270.726C287.999 270.942 288.639 271.159 288.816 270.932C288.994 270.706 288.541 270.057 288.108 269.535" fill="#4A43B7"/>
<path d="M245.903 70.5197C245.754 67.9038 246.444 65.3086 247.873 63.1116C249.301 60.9332 251.211 59.1121 253.456 57.7892C254.682 56.9058 256.17 56.462 257.68 56.5299C258.931 56.6873 263.263 51.9847 264.278 52.7324C267.133 54.8476 266.562 62.6689 268.985 65.276C269.62 68.7735 270.015 72.3104 270.166 75.8618L271.614 102.681C271.85 107.118 271.968 111.948 269.31 115.47C262.614 113.04 256.099 110.14 249.812 106.793C249.088 106.534 248.476 106.031 248.082 105.37C247.688 104.71 247.538 103.932 247.656 103.172C247.39 96.5022 247.39 89.8123 247.656 83.142C247.774 79.561 246.199 74.1008 245.903 70.5197Z" fill="#4A43B7"/>
<path d="M245.903 70.5197C245.754 67.9038 246.444 65.3086 247.873 63.1116C249.301 60.9332 251.211 59.1121 253.456 57.7892C254.682 56.9058 256.17 56.462 257.68 56.5299C258.931 56.6873 263.263 51.9847 264.278 52.7324C267.133 54.8476 266.562 62.6689 268.985 65.276C269.62 68.7735 270.015 72.3104 270.166 75.8618L271.614 102.681C271.85 107.118 271.968 111.948 269.31 115.47C262.614 113.04 256.099 110.14 249.812 106.793C249.088 106.534 248.476 106.031 248.082 105.37C247.688 104.71 247.538 103.932 247.656 103.172C247.39 96.5022 247.39 89.8123 247.656 83.142C247.774 79.561 246.199 74.1008 245.903 70.5197Z" fill="url(#paint8_linear_13_1321)"/>
<path d="M240.527 50.3811V51.1485C240.5 52.1123 240.764 53.0617 241.285 53.8737C242.27 55.0936 244.062 55.1428 245.588 54.9165C246.778 54.6147 248.012 54.5314 249.231 54.6705C250.443 54.9362 251.782 59.8946 252.944 60.0914C255.061 60.4554 259.551 57.8581 261.008 56.5496C261.156 56.4217 259.462 52.6144 259.522 52.4078C259.571 52.2074 259.571 51.9982 259.522 51.7978L257.158 40.8185C256.939 39.256 256.37 37.7629 255.494 36.4503C254.796 35.6014 253.91 34.9276 252.904 34.4827C249.566 32.9578 244.672 33.4989 242.23 36.529C240.94 38.1326 240.96 40.9168 240.753 42.8845C240.489 45.3741 240.414 47.8801 240.527 50.3811Z" fill="url(#paint9_linear_13_1321)"/>
<path d="M257.936 127.168C251.417 131.369 243.973 133.848 236.617 136.278C234.805 136.878 232.679 137.449 231.073 136.484C230.166 135.848 229.448 134.977 228.996 133.966C226.101 128.476 218.863 126.843 222.418 121.757C223.924 119.592 232.462 112.499 234.569 110.935C238.744 107.836 243.116 104.648 248.247 103.792C250.656 103.443 253.104 103.443 255.514 103.792C260.171 104.353 271.919 106.144 270.934 112.115C269.95 118.087 262.653 124.098 257.936 127.168Z" fill="#3E3E54"/>
<path d="M259.906 74.9666C259.906 78.9018 260.319 82.8371 259.019 86.5362C257.276 91.4553 252.727 94.8297 248.188 97.486C245.381 99.1389 242.338 100.801 240.832 103.674C239.325 106.547 240.389 110.994 243.589 111.545C244.832 111.672 246.087 111.489 247.242 111.013C253.438 108.967 259.423 106.332 265.115 103.143C267.448 101.825 269.812 100.339 271.249 98.0862C272.496 95.8051 273.171 93.2567 273.219 90.6584C273.685 85.0827 273.52 79.4722 272.726 73.9336C271.809 69.5711 270.1 65.4132 267.685 61.6654C259.906 51.1386 259.906 69.1621 259.906 74.9666Z" fill="#4A43B7"/>
<path d="M259.906 74.9666C259.906 78.9018 260.319 82.8371 259.019 86.5362C257.276 91.4553 252.727 94.8297 248.188 97.486C245.381 99.1389 242.338 100.801 240.832 103.674C239.325 106.547 240.389 110.994 243.589 111.545C244.832 111.672 246.087 111.489 247.242 111.013C253.438 108.967 259.423 106.332 265.115 103.143C267.448 101.825 269.812 100.339 271.249 98.0862C272.496 95.8051 273.171 93.2567 273.219 90.6584C273.685 85.0827 273.52 79.4722 272.726 73.9336C271.809 69.5711 270.1 65.4132 267.685 61.6654C259.906 51.1386 259.906 69.1621 259.906 74.9666Z" fill="url(#paint10_linear_13_1321)"/>
<path d="M217.1 144.493L215.417 176.693C219.355 176.447 221.148 171.882 222.093 168.114C224.771 157.423 227.453 146.732 230.138 136.042C230.926 132.874 231.733 129.578 231.123 126.371C230.689 124.098 228.641 120.153 225.914 119.907C223.009 119.651 221.482 123.38 220.478 125.623C217.849 131.516 217.425 138.157 217.1 144.493Z" fill="url(#paint11_linear_13_1321)"/>
<path d="M222.959 146.667L224.102 178.887C227.952 178.296 229.38 173.594 230.01 169.757C231.743 158.876 233.479 147.992 235.219 137.104C235.731 133.877 236.204 130.532 235.357 127.384C234.727 125.161 232.344 121.412 229.606 121.403C226.652 121.403 225.5 125.239 224.683 127.571C222.575 133.641 222.733 140.37 222.959 146.667Z" fill="url(#paint12_linear_13_1321)"/>
<path d="M221.325 170.15L217.662 170.416C217.282 170.394 216.902 170.45 216.544 170.58C216.187 170.71 215.86 170.912 215.584 171.174C215.285 171.635 215.137 172.179 215.161 172.728C215.062 174.696 215.042 176.663 215.161 178.552C215.141 178.63 215.141 178.711 215.161 178.788C215.216 178.855 215.288 178.906 215.369 178.937C215.45 178.968 215.538 178.977 215.623 178.965C217.024 178.954 218.4 178.588 219.621 177.903C220.141 177.66 220.588 177.287 220.921 176.821C221.223 176.259 221.376 175.629 221.364 174.991C221.463 173.348 221.502 171.695 221.443 170.072L221.325 170.15Z" fill="#4A43B7"/>
<path d="M221.246 176.772C221.239 176.633 221.198 176.498 221.128 176.378C221.035 176.282 220.912 176.22 220.779 176.204C220.647 176.188 220.512 176.218 220.399 176.289C220.181 176.445 219.988 176.635 219.828 176.85C219.195 177.596 218.307 178.08 217.337 178.208C216.349 178.185 215.361 178.244 214.383 178.385C213.677 178.66 213.037 179.079 212.502 179.615L209.311 182.369C208.563 183.009 207.746 183.845 207.923 184.819C208.062 185.246 208.322 185.622 208.672 185.904C209.022 186.185 209.446 186.358 209.892 186.403C211.505 186.579 213.137 186.377 214.658 185.813C216.077 185.433 217.472 184.967 218.834 184.416C219.548 184.161 220.186 183.727 220.685 183.156C221.778 181.691 221.413 178.493 221.246 176.772Z" fill="#3E3E54"/>
<path d="M230.118 170.583L226.426 170.869C226.045 170.848 225.663 170.904 225.304 171.034C224.945 171.164 224.617 171.366 224.338 171.626C224.047 172.091 223.903 172.633 223.924 173.181C223.816 175.148 223.806 177.116 223.875 179.005C223.876 179.089 223.893 179.172 223.924 179.251C223.98 179.314 224.05 179.363 224.13 179.392C224.209 179.422 224.294 179.43 224.377 179.418C225.782 179.412 227.162 179.046 228.385 178.355C228.904 178.117 229.352 177.747 229.685 177.283C229.975 176.717 230.124 176.089 230.118 175.453C230.23 173.8 230.259 172.161 230.207 170.534L230.118 170.583Z" fill="#4A43B7"/>
<path d="M230.039 177.175C230.039 177.033 230.001 176.894 229.931 176.772C229.837 176.674 229.711 176.613 229.576 176.599C229.441 176.584 229.306 176.618 229.193 176.693C228.975 176.846 228.785 177.036 228.631 177.254C227.997 177.996 227.109 178.476 226.14 178.601C225.152 178.586 224.164 178.649 223.186 178.788C222.478 179.06 221.834 179.475 221.295 180.008L218.105 182.763C217.366 183.412 216.549 184.248 216.716 185.213C216.857 185.638 217.117 186.014 217.467 186.296C217.816 186.577 218.24 186.751 218.686 186.797C220.302 186.978 221.938 186.776 223.462 186.206C224.882 185.83 226.276 185.363 227.637 184.809C228.349 184.555 228.983 184.121 229.478 183.55C230.571 182.084 230.207 178.916 230.039 177.175Z" fill="#3E3E54"/>
<path d="M233.25 106.37C231.103 106.478 228.73 106.37 227.095 107.786C226.933 107.895 226.799 108.041 226.704 108.212C226.61 108.384 226.558 108.575 226.554 108.77C226.613 109.037 226.75 109.28 226.948 109.469L231.763 115.067C231.993 115.367 232.268 115.629 232.58 115.844C233.214 116.157 233.934 116.254 234.628 116.119C237.276 115.823 239.758 114.685 241.708 112.873C243.678 110.994 242.762 107.954 240.655 106.429C238.547 104.904 235.751 106.242 233.25 106.37Z" fill="url(#paint13_linear_13_1321)"/>
<path d="M257.985 26.1399C264.741 26.7203 270.787 30.9901 274.883 36.3814C279.147 41.9891 282.554 49.4366 289.447 50.9123C292.549 51.5813 295.788 50.8237 298.939 51.1484C301.878 51.5118 304.629 52.7818 306.811 54.7816C308.993 56.7814 310.495 59.4113 311.11 62.3048C311.849 66.1319 310.943 70.0868 311.337 73.963C312.115 81.6072 317.885 88.8776 315.729 96.2464C314.015 102.071 306.866 105.602 301.165 103.379C295.099 101.008 292.47 94.0918 288.364 89.0154C286.581 86.8018 283.972 84.7259 281.175 85.2474C279.787 85.513 278.576 86.3886 277.236 86.7427C274.085 87.5593 270.806 85.3457 269.201 82.5124C267.596 79.679 267.232 76.334 266.73 73.1268C266.001 68.6012 264.76 63.9576 261.806 60.4848C258.143 56.2347 252.186 54.1195 249.419 49.2398C247.784 46.3474 247.498 42.9336 246.011 39.992C244.692 37.4045 242.161 36.0567 243.274 32.997C245.135 27.9402 253.308 25.7463 257.985 26.1399Z" fill="#3E3E54"/>
<path d="M239.453 32.8889C239.294 33.7159 239.335 34.569 239.573 35.3769C239.811 36.1848 240.239 36.9239 240.822 37.5325C242.005 38.737 243.328 39.797 244.761 40.6905C246.19 41.5933 247.371 42.8376 248.197 44.311C248.283 44.5596 248.424 44.7852 248.611 44.9701C248.708 45.0545 248.832 45.101 248.961 45.101C249.089 45.101 249.213 45.0545 249.31 44.9701C249.405 44.8388 249.454 44.6795 249.448 44.5176C249.645 41.7629 249.143 39.018 249.143 36.2634C249.143 34.3941 249.704 32.0133 248.581 30.3605C246.425 27.1631 240.32 29.7308 239.453 32.8889Z" fill="#3E3E54"/>
<path d="M220.813 93.4327C220.686 94.193 220.852 94.973 221.276 95.6168C222.162 96.7482 224.112 96.453 225.037 95.361C225.876 94.1686 226.228 92.7014 226.022 91.2585C225.922 92.57 226.195 93.8829 226.81 95.0462C227.528 96.1284 229.183 96.7088 230.177 95.8628C230.448 95.5952 230.656 95.2714 230.787 94.9143C230.918 94.5572 230.969 94.1756 230.936 93.7968C230.91 92.4747 230.37 91.2145 229.429 90.2845C229.942 91.0298 230.703 91.5699 231.576 91.8094C232.01 91.9323 232.47 91.9323 232.905 91.8094C233.339 91.6353 233.701 91.3202 233.933 90.9149C234.166 90.5097 234.254 90.038 234.185 89.5762C234.102 89.1178 233.921 88.6827 233.654 88.3007C233.387 87.9187 233.041 87.5987 232.639 87.3626C231.83 86.8851 230.943 86.5521 230.02 86.3788C230.68 85.9066 231.438 85.5819 232.088 85.0998C232.428 84.8827 232.717 84.5942 232.934 84.2545C233.152 83.9148 233.293 83.5318 233.348 83.1322C233.417 81.7746 231.901 80.7809 230.542 80.8891C229.2 81.1316 227.972 81.7971 227.036 82.7879C226.162 81.9581 225.112 81.3359 223.964 80.9678C223.388 80.7916 222.775 80.7734 222.189 80.9154C221.603 81.0573 221.067 81.3541 220.636 81.7746C220.403 82.0767 220.239 82.4253 220.153 82.7966C220.067 83.1679 220.063 83.5533 220.139 83.9265C220.216 84.2998 220.372 84.6523 220.597 84.96C220.822 85.2677 221.11 85.5234 221.443 85.7098C220.586 85.7968 219.725 85.8395 218.863 85.8377C218.43 85.8463 218.006 85.9601 217.627 86.1692C217.247 86.3783 216.925 86.6765 216.687 87.038C216.502 87.4859 216.48 87.9846 216.626 88.4468C216.772 88.909 217.076 89.3053 217.484 89.5664C217.901 89.815 218.367 89.971 218.849 90.0236C219.332 90.0762 219.82 90.0243 220.281 89.8713C220.872 89.6942 221.975 88.7793 222.506 89.1925C221.945 90.7371 220.98 91.7603 220.813 93.4327Z" fill="#4A43B7"/>
<path d="M226.13 89.3499C227.974 89.3499 229.468 88.2355 229.468 86.8609C229.468 85.4862 227.974 84.3718 226.13 84.3718C224.287 84.3718 222.792 85.4862 222.792 86.8609C222.792 88.2355 224.287 89.3499 226.13 89.3499Z" fill="white"/>
</g>
<defs>
<linearGradient id="paint0_linear_13_1321" x1="261.324" y1="94.0231" x2="225.486" y2="82.6019" gradientUnits="userSpaceOnUse">
<stop offset="0.01"/>
<stop offset="0.13" stop-opacity="0.69"/>
<stop offset="1" stop-opacity="0"/>
</linearGradient>
<linearGradient id="paint1_linear_13_1321" x1="222.669" y1="105.086" x2="237.75" y2="111.178" gradientUnits="userSpaceOnUse">
<stop stop-color="#E5C5D5"/>
<stop offset="0.42" stop-color="#EAD4D1"/>
<stop offset="1" stop-color="#F0E9CB"/>
</linearGradient>
<linearGradient id="paint2_linear_13_1321" x1="232.57" y1="234.275" x2="361.153" y2="234.275" gradientUnits="userSpaceOnUse">
<stop offset="0.02" stop-color="white" stop-opacity="0"/>
<stop offset="0.32" stop-color="white" stop-opacity="0.39"/>
<stop offset="0.68" stop-color="white" stop-opacity="0.68"/>
<stop offset="1" stop-color="white"/>
</linearGradient>
<linearGradient id="paint3_linear_13_1321" x1="33757.6" y1="1512.06" x2="33758.4" y2="1315.54" gradientUnits="userSpaceOnUse">
<stop offset="0.01"/>
<stop offset="0.13" stop-opacity="0.69"/>
<stop offset="1" stop-opacity="0"/>
</linearGradient>
<linearGradient id="paint4_linear_13_1321" x1="33827.7" y1="3586.31" x2="33827.7" y2="4055.77" gradientUnits="userSpaceOnUse">
<stop offset="0.01"/>
<stop offset="0.13" stop-opacity="0.69"/>
<stop offset="1" stop-opacity="0"/>
</linearGradient>
<linearGradient id="paint5_linear_13_1321" x1="24468.9" y1="8322.38" x2="24399.8" y2="9361.8" gradientUnits="userSpaceOnUse">
<stop offset="0.02" stop-color="white" stop-opacity="0"/>
<stop offset="0.32" stop-color="white" stop-opacity="0.39"/>
<stop offset="0.68" stop-color="white" stop-opacity="0.68"/>
<stop offset="1" stop-color="white"/>
</linearGradient>
<linearGradient id="paint6_linear_13_1321" x1="27253.7" y1="6037.36" x2="27185.4" y2="7658.44" gradientUnits="userSpaceOnUse">
<stop offset="0.01"/>
<stop offset="0.13" stop-opacity="0.69"/>
<stop offset="1" stop-opacity="0"/>
</linearGradient>
<linearGradient id="paint7_linear_13_1321" x1="24648.1" y1="4015.74" x2="24643.9" y2="3371.73" gradientUnits="userSpaceOnUse">
<stop offset="0.01"/>
<stop offset="0.13" stop-opacity="0.69"/>
<stop offset="1" stop-opacity="0"/>
</linearGradient>
<linearGradient id="paint8_linear_13_1321" x1="6679.32" y1="6356.48" x2="5536.18" y2="6374.15" gradientUnits="userSpaceOnUse">
<stop offset="0.01"/>
<stop offset="0.13" stop-opacity="0.69"/>
<stop offset="1" stop-opacity="0"/>
</linearGradient>
<linearGradient id="paint9_linear_13_1321" x1="4580.31" y1="1701.1" x2="5009.42" y2="1701.1" gradientUnits="userSpaceOnUse">
<stop stop-color="#E5C5D5"/>
<stop offset="0.42" stop-color="#EAD4D1"/>
<stop offset="1" stop-color="#F0E9CB"/>
</linearGradient>
<linearGradient id="paint10_linear_13_1321" x1="9018.14" y1="5571.14" x2="7052.25" y2="5508.81" gradientUnits="userSpaceOnUse">
<stop offset="0.01"/>
<stop offset="0.13" stop-opacity="0.69"/>
<stop offset="1" stop-opacity="0"/>
</linearGradient>
<linearGradient id="paint11_linear_13_1321" x1="-195.707" y1="16870.4" x2="13.4805" y2="16888.8" gradientUnits="userSpaceOnUse">
<stop stop-color="#E5C5D5"/>
<stop offset="0.42" stop-color="#EAD4D1"/>
<stop offset="1" stop-color="#F0E9CB"/>
</linearGradient>
<linearGradient id="paint12_linear_13_1321" x1="2734.12" y1="9775.3" x2="2905.57" y2="9775.3" gradientUnits="userSpaceOnUse">
<stop stop-color="#E5C5D5"/>
<stop offset="0.42" stop-color="#EAD4D1"/>
<stop offset="1" stop-color="#F0E9CB"/>
</linearGradient>
<linearGradient id="paint13_linear_13_1321" x1="3428.36" y1="1447.38" x2="3696.86" y2="1447.38" gradientUnits="userSpaceOnUse">
<stop stop-color="#E5C5D5"/>
<stop offset="0.42" stop-color="#EAD4D1"/>
<stop offset="1" stop-color="#F0E9CB"/>
</linearGradient>
<clipPath id="clip0_13_1321">
<rect width="498" height="375" fill="white"/>
</clipPath>
</defs>
</svg>
