<svg width="1440" height="363" viewBox="0 0 1440 363" fill="none" xmlns="http://www.w3.org/2000/svg">
<path d="M-321.746 15.0589C-148.022 -9.10777 245.581 0.0588379 457.456 70.0588C722.299 157.559 949.673 75.0588 1030.57 45.0588C1111.47 15.0589 1518.53 -35.9412 1486.17 91.0588C1453.81 218.059 1550.89 269.559 1246.88 212.559C942.86 155.559 696.752 261.559 509.403 237.059C322.053 212.559 240.301 106.059 -8.36216 115.559C-207.293 123.159 -391.008 71.7255 -458 45.0588" stroke="#FF63A8" stroke-width="5"/>
<path d="M-289.386 356.559C-25.3939 364.059 619.257 361.459 813.419 313.059C1056.12 252.559 1308.19 265.559 1246.88 172.559C1185.56 79.5587 949.673 92.5588 813.419 70.0588C677.165 47.5588 470.23 0.0588281 250.52 15.0588C74.7527 27.0588 -262.703 114.725 -409.459 157.059" stroke="#6C63FF" stroke-width="5"/>
</svg>
