<svg width="1440" height="174" viewBox="0 0 1440 174" fill="none" xmlns="http://www.w3.org/2000/svg">
<path d="M334.5 24.5L334.796 22.0176L334.5 24.5ZM900.5 147L900.4 144.502L900.5 147ZM1098 58L1097.7 55.5176L1098 58ZM471.5 100L471.6 97.502L471.5 100ZM-31.8867 173.336C5.18466 114.681 130.512 2.71438 334.204 26.9824L334.796 22.0176C128.888 -2.51438 1.81534 110.653 -36.1133 170.664L-31.8867 173.336ZM334.204 26.9824C461.868 42.1924 540.339 75.204 618.53 103.29C696.825 131.414 774.663 154.515 900.6 149.498L900.4 144.502C775.337 149.485 698.175 126.586 620.22 98.5847C542.161 70.546 463.132 37.3076 334.796 22.0176L334.204 26.9824ZM900.6 149.498C1101.86 141.48 1366.73 50.0029 1473.96 5.30759L1472.04 0.692414C1364.94 45.3305 1100.74 136.52 900.4 144.502L900.6 149.498ZM1475.11 170.664C1455.99 140.4 1412.91 105.52 1349.13 81.2633C1285.27 56.9797 1200.49 43.2721 1097.7 55.5176L1098.3 60.4824C1200.31 48.3279 1284.28 61.9536 1347.35 85.9367C1410.49 109.947 1452.51 144.267 1470.89 173.336L1475.11 170.664ZM1097.7 55.5176C841.641 86.0251 722.359 107.492 471.6 97.502L471.4 102.498C722.641 112.508 842.359 90.9749 1098.3 60.4824L1097.7 55.5176ZM471.6 97.502C271.028 89.5111 73.7984 45.2215 -33.0382 0.692414L-34.9618 5.30759C72.5348 50.1118 270.372 94.4889 471.4 102.498L471.6 97.502Z" fill="#FF63A8"/>
</svg>
