<svg width="142" height="46" viewBox="0 0 142 46" fill="none" xmlns="http://www.w3.org/2000/svg">
<path fill-rule="evenodd" clip-rule="evenodd" d="M-1.11309e-07 43.2896C-4.98346e-08 44.6959 1.14284 45.836 2.55261 45.836L33.1839 45.836C34.5937 45.836 35.7366 44.6959 35.7366 43.2896L35.7366 2.54643C35.7366 1.14007 34.5937 -2.05856e-05 33.1839 -2.0524e-05L2.55261 -1.91851e-05C1.14284 -1.91234e-05 -1.95372e-06 1.14007 -1.89225e-06 2.54643L-1.11309e-07 43.2896ZM30.6313 40.7431L5.10522 40.7431L5.10522 28.0249C6.92949 27.0968 8.17878 25.2049 8.17878 23.0219C8.17878 20.8389 6.92949 18.947 5.10522 18.0189L5.10522 5.09287L30.6313 5.09287L30.6313 40.7431Z" fill="#FF63A8"/>
<path d="M61.912 35L56.3255 26.748L53.733 29.3039V35H48.8402V8.34519H53.733V24.4841L61.4374 15.9035H66.6223L59.5022 24.0095L67.1335 35H61.912ZM67.708 29.3404C67.708 28.099 68.0488 27.0157 68.7304 26.0907C69.4363 25.1414 70.41 24.4111 71.6514 23.8999C72.8929 23.3887 74.3169 23.1331 75.9235 23.1331C76.7268 23.1331 77.5423 23.194 78.3699 23.3157C79.1975 23.4374 79.9156 23.6321 80.5242 23.8999V22.8775C80.5242 21.6604 80.1591 20.7232 79.4288 20.066C78.7229 19.4088 77.664 19.0801 76.2521 19.0801C75.2054 19.0801 74.2074 19.2627 73.258 19.6278C72.3087 19.993 71.3106 20.5285 70.2639 21.2344L68.6938 18.0212C69.9596 17.1936 71.2498 16.5729 72.5643 16.1591C73.9031 15.7452 75.3028 15.5383 76.7633 15.5383C79.4897 15.5383 81.6074 16.2199 83.1167 17.5831C84.6502 18.9463 85.417 20.8936 85.417 23.4252V29.523C85.417 30.0342 85.5022 30.3993 85.6726 30.6184C85.8673 30.8375 86.1716 30.9714 86.5854 31.02V35C86.1473 35.073 85.7456 35.1339 85.3805 35.1826C85.0397 35.2313 84.7476 35.2556 84.5042 35.2556C83.5305 35.2556 82.788 35.0365 82.2768 34.5984C81.79 34.1602 81.4857 33.6247 81.364 32.9918L81.2545 32.0059C80.4268 33.077 79.3923 33.9046 78.1508 34.4888C76.9094 35.073 75.6436 35.3651 74.3534 35.3651C73.0876 35.3651 71.9435 35.1095 70.9212 34.5984C69.9231 34.0628 69.132 33.3447 68.5478 32.4441C67.9879 31.5191 67.708 30.4845 67.708 29.3404ZM79.6114 30.3263C79.8791 30.0342 80.0982 29.7421 80.2686 29.45C80.439 29.1578 80.5242 28.8901 80.5242 28.6467V26.7114C79.94 26.468 79.3071 26.2855 78.6255 26.1637C77.9439 26.0177 77.2988 25.9447 76.6903 25.9447C75.4245 25.9447 74.3778 26.2246 73.5501 26.7845C72.7468 27.32 72.3452 28.0381 72.3452 28.9388C72.3452 29.4256 72.4791 29.8881 72.7468 30.3263C73.0146 30.7644 73.4041 31.1174 73.9153 31.3852C74.4265 31.6529 75.035 31.7868 75.7409 31.7868C76.4712 31.7868 77.1893 31.6529 77.8952 31.3852C78.6012 31.0931 79.1732 30.7401 79.6114 30.3263ZM89.9527 8.34519H94.8455V28.8657C94.8455 29.7421 94.9915 30.3385 95.2836 30.6549C95.5757 30.947 95.9774 31.0931 96.4886 31.0931C96.878 31.0931 97.2797 31.0444 97.6935 30.947C98.1073 30.8496 98.4725 30.7279 98.7889 30.5819L99.4461 34.3062C98.7889 34.6227 98.0221 34.8661 97.1458 35.0365C96.2695 35.2069 95.4784 35.2921 94.7724 35.2921C93.2389 35.2921 92.0461 34.8905 91.1941 34.0872C90.3665 33.2595 89.9527 32.0911 89.9527 30.5819V8.34519ZM110.451 35.3651C108.917 35.3651 107.53 35.1095 106.288 34.5984C105.047 34.0628 103.988 33.3447 103.111 32.4441C102.235 31.5191 101.554 30.4723 101.067 29.3039C100.604 28.1111 100.373 26.8575 100.373 25.543C100.373 23.7173 100.775 22.0499 101.578 20.5407C102.406 19.0315 103.574 17.8265 105.083 16.9258C106.617 16.0008 108.418 15.5383 110.487 15.5383C112.581 15.5383 114.37 16.0008 115.855 16.9258C117.34 17.8265 118.471 19.0315 119.25 20.5407C120.054 22.0256 120.455 23.6321 120.455 25.3605C120.455 25.6526 120.443 25.9568 120.419 26.2733C120.395 26.5654 120.37 26.8088 120.346 27.0036H105.558C105.655 27.9772 105.935 28.8292 106.398 29.5595C106.885 30.2898 107.493 30.8496 108.223 31.2391C108.978 31.6042 109.781 31.7868 110.633 31.7868C111.607 31.7868 112.52 31.5556 113.372 31.0931C114.248 30.6062 114.844 29.9733 115.161 29.1944L119.36 30.3628C118.897 31.3365 118.228 32.2006 117.352 32.9552C116.5 33.7099 115.49 34.3062 114.321 34.7444C113.153 35.1582 111.863 35.3651 110.451 35.3651ZM105.448 23.8999H115.453C115.356 22.9262 115.076 22.0864 114.613 21.3805C114.175 20.6502 113.591 20.0903 112.861 19.7009C112.13 19.287 111.315 19.0801 110.414 19.0801C109.538 19.0801 108.735 19.287 108.004 19.7009C107.298 20.0903 106.714 20.6502 106.252 21.3805C105.813 22.0864 105.546 22.9262 105.448 23.8999ZM141.218 35H136.325V24.265C136.325 22.7315 136.058 21.6117 135.522 20.9058C134.986 20.1999 134.244 19.8469 133.295 19.8469C132.637 19.8469 131.968 20.0173 131.286 20.3581C130.629 20.6989 130.033 21.1736 129.497 21.7821C128.962 22.3663 128.572 23.0479 128.329 23.8269V35H123.436V15.867H127.854V19.4088C128.341 18.5811 128.962 17.8874 129.716 17.3275C130.471 16.7433 131.335 16.3051 132.309 16.013C133.307 15.6966 134.354 15.5383 135.449 15.5383C136.642 15.5383 137.615 15.7574 138.37 16.1956C139.149 16.6094 139.733 17.1814 140.123 17.9117C140.537 18.6176 140.816 19.4209 140.963 20.3216C141.133 21.2223 141.218 22.1351 141.218 23.0601V35Z" fill="#6C63FF"/>
</svg>
