<?xml version="1.0" standalone="no"?>
<!DOCTYPE svg PUBLIC "-//W3C//DTD SVG 20010904//EN"
 "http://www.w3.org/TR/2001/REC-SVG-20010904/DTD/svg10.dtd">
<svg version="1.0" xmlns="http://www.w3.org/2000/svg"
 width="736.000000pt" height="736.000000pt" viewBox="0 0 736.000000 736.000000"
 preserveAspectRatio="xMidYMid meet">
<metadata>
Created by potrace 1.14, written by Peter Selinger 2001-2017
</metadata>
<g transform="translate(0.000000,736.000000) scale(0.100000,-0.100000)"
fill="#000000" stroke="none">
<path d="M1086 7340 c-112 -36 -204 -120 -258 -235 l-23 -50 -2 -3345 c-3
-3621 -6 -3365 47 -3470 22 -43 89 -116 135 -147 35 -23 109 -54 145 -60 14
-3 1148 -5 2520 -6 1804 -2 2509 1 2545 9 157 35 286 166 314 320 5 28 8 1461
7 3364 -2 3171 -3 3317 -20 3364 -46 127 -147 222 -275 260 -49 14 -294 16
-2565 15 -2433 0 -2513 -1 -2570 -19z m4608 -801 c5 -5 9 -3989 6 -5527 l0
-172 -37 0 c-21 1 -45 0 -53 0 -8 0 -44 -1 -80 0 -36 0 -72 0 -80 0 -8 -1 -44
-1 -80 0 -36 0 -72 0 -80 0 -8 -1 -44 -1 -80 0 -36 0 -72 0 -80 0 -8 -1 -44
-1 -80 0 -36 0 -72 0 -80 0 -8 -1 -44 -1 -80 0 -36 0 -72 0 -80 0 -8 -1 -44
-1 -80 0 -36 0 -72 0 -80 0 -8 -1 -44 -1 -80 0 -36 0 -72 0 -80 0 -8 -1 -44
-1 -80 0 -36 0 -72 0 -80 0 -8 -1 -44 -1 -80 0 -36 0 -72 0 -80 0 -8 -1 -44
-1 -80 0 -36 0 -72 0 -80 0 -8 -1 -44 -1 -80 -1 -36 1 -74 0 -85 0 -11 0 -35
1 -52 3 -18 2 -33 0 -33 -5 0 -4 -5 -5 -12 -1 -6 4 -50 6 -97 6 -47 -1 -90 -2
-96 -2 -5 0 -28 0 -50 0 -22 0 -47 0 -55 -1 -8 0 -28 -1 -45 0 -16 1 -37 1
-45 1 -8 -1 -30 1 -47 3 -18 2 -33 -1 -33 -6 0 -4 -5 -5 -12 -1 -6 4 -50 6
-97 6 -47 -1 -90 -2 -96 -2 -5 0 -28 0 -50 0 -22 0 -47 0 -55 -1 -8 0 -28 -1
-45 0 -16 1 -37 1 -45 1 -8 -1 -30 1 -47 3 -18 2 -33 -1 -33 -6 0 -4 -5 -5
-12 -1 -6 4 -50 6 -97 6 -47 -1 -90 -2 -96 -2 -5 0 -28 0 -50 0 -22 0 -47 0
-55 -1 -8 0 -28 -1 -45 0 -16 1 -37 1 -45 1 -8 -1 -30 1 -47 3 -18 2 -33 -1
-33 -6 0 -4 -5 -5 -12 -1 -6 4 -50 6 -97 6 -47 -1 -90 -2 -96 -2 -5 0 -28 0
-50 0 -22 0 -47 0 -55 -1 -8 0 -28 -1 -45 0 -16 1 -37 1 -45 1 -8 -1 -30 1
-47 3 -18 2 -33 -1 -33 -6 0 -4 -5 -5 -12 -1 -7 4 -56 7 -110 7 -54 -1 -98 2
-99 5 0 4 -1 459 -2 1012 -2 882 0 1007 13 1018 8 7 44 32 80 55 154 100 296
285 353 462 54 165 57 352 9 535 -26 101 -123 273 -200 356 -46 49 -147 130
-201 161 -28 15 -51 33 -52 38 -2 19 -5 2050 -3 2055 3 7 4071 6 4078 -1z"/>
</g>
</svg>
